G04 #@! TF.FileFunction,Legend,Bot*
%FSLAX46Y46*%
G04 Gerber Fmt 4.6, Leading zero omitted, Abs format (unit mm)*
G04 Created by KiCad (PCBNEW (2015-08-12 BZR 6086)-product) date Tue 01 Sep 2015 09:02:53 PM CEST*
%MOMM*%
G01*
G04 APERTURE LIST*
%ADD10C,0.100000*%
%ADD11C,0.150000*%
%ADD12C,0.580000*%
%ADD13R,3.250000X3.250000*%
%ADD14R,8.020000X8.020000*%
%ADD15R,4.080000X1.670000*%
%ADD16C,1.760000*%
%ADD17C,1.760000*%
%ADD18R,1.760000X1.760000*%
%ADD19O,1.760000X1.760000*%
G04 APERTURE END LIST*
D10*
D11*
X131380952Y-119692381D02*
X131857143Y-119692381D01*
X131857143Y-118692381D01*
X131047619Y-119168571D02*
X130714285Y-119168571D01*
X130571428Y-119692381D02*
X131047619Y-119692381D01*
X131047619Y-118692381D01*
X130571428Y-118692381D01*
X130142857Y-119692381D02*
X130142857Y-118692381D01*
X129904762Y-118692381D01*
X129761904Y-118740000D01*
X129666666Y-118835238D01*
X129619047Y-118930476D01*
X129571428Y-119120952D01*
X129571428Y-119263810D01*
X129619047Y-119454286D01*
X129666666Y-119549524D01*
X129761904Y-119644762D01*
X129904762Y-119692381D01*
X130142857Y-119692381D01*
X129142857Y-119311429D02*
X128380952Y-119311429D01*
X127904762Y-119692381D02*
X127904762Y-118692381D01*
X127666667Y-118692381D01*
X127523809Y-118740000D01*
X127428571Y-118835238D01*
X127380952Y-118930476D01*
X127333333Y-119120952D01*
X127333333Y-119263810D01*
X127380952Y-119454286D01*
X127428571Y-119549524D01*
X127523809Y-119644762D01*
X127666667Y-119692381D01*
X127904762Y-119692381D01*
X126904762Y-119692381D02*
X126904762Y-118692381D01*
X126476191Y-119406667D02*
X126000000Y-119406667D01*
X126571429Y-119692381D02*
X126238096Y-118692381D01*
X125904762Y-119692381D01*
X125238095Y-119168571D02*
X125095238Y-119216190D01*
X125047619Y-119263810D01*
X125000000Y-119359048D01*
X125000000Y-119501905D01*
X125047619Y-119597143D01*
X125095238Y-119644762D01*
X125190476Y-119692381D01*
X125571429Y-119692381D01*
X125571429Y-118692381D01*
X125238095Y-118692381D01*
X125142857Y-118740000D01*
X125095238Y-118787619D01*
X125047619Y-118882857D01*
X125047619Y-118978095D01*
X125095238Y-119073333D01*
X125142857Y-119120952D01*
X125238095Y-119168571D01*
X125571429Y-119168571D01*
X124380953Y-118692381D02*
X124190476Y-118692381D01*
X124095238Y-118740000D01*
X124000000Y-118835238D01*
X123952381Y-119025714D01*
X123952381Y-119359048D01*
X124000000Y-119549524D01*
X124095238Y-119644762D01*
X124190476Y-119692381D01*
X124380953Y-119692381D01*
X124476191Y-119644762D01*
X124571429Y-119549524D01*
X124619048Y-119359048D01*
X124619048Y-119025714D01*
X124571429Y-118835238D01*
X124476191Y-118740000D01*
X124380953Y-118692381D01*
X123047619Y-119692381D02*
X123523810Y-119692381D01*
X123523810Y-118692381D01*
X122523810Y-118692381D02*
X122333333Y-118692381D01*
X122238095Y-118740000D01*
X122142857Y-118835238D01*
X122095238Y-119025714D01*
X122095238Y-119359048D01*
X122142857Y-119549524D01*
X122238095Y-119644762D01*
X122333333Y-119692381D01*
X122523810Y-119692381D01*
X122619048Y-119644762D01*
X122714286Y-119549524D01*
X122761905Y-119359048D01*
X122761905Y-119025714D01*
X122714286Y-118835238D01*
X122619048Y-118740000D01*
X122523810Y-118692381D01*
X133309524Y-121242381D02*
X133309524Y-120242381D01*
X132976190Y-120956667D01*
X132642857Y-120242381D01*
X132642857Y-121242381D01*
X132214286Y-120956667D02*
X131738095Y-120956667D01*
X132309524Y-121242381D02*
X131976191Y-120242381D01*
X131642857Y-121242381D01*
X131309524Y-121242381D02*
X131309524Y-120242381D01*
X130833334Y-121242381D02*
X130833334Y-120242381D01*
X130261905Y-121242381D01*
X130261905Y-120242381D01*
X128690476Y-120718571D02*
X128547619Y-120766190D01*
X128500000Y-120813810D01*
X128452381Y-120909048D01*
X128452381Y-121051905D01*
X128500000Y-121147143D01*
X128547619Y-121194762D01*
X128642857Y-121242381D01*
X129023810Y-121242381D01*
X129023810Y-120242381D01*
X128690476Y-120242381D01*
X128595238Y-120290000D01*
X128547619Y-120337619D01*
X128500000Y-120432857D01*
X128500000Y-120528095D01*
X128547619Y-120623333D01*
X128595238Y-120670952D01*
X128690476Y-120718571D01*
X129023810Y-120718571D01*
X127833334Y-120242381D02*
X127642857Y-120242381D01*
X127547619Y-120290000D01*
X127452381Y-120385238D01*
X127404762Y-120575714D01*
X127404762Y-120909048D01*
X127452381Y-121099524D01*
X127547619Y-121194762D01*
X127642857Y-121242381D01*
X127833334Y-121242381D01*
X127928572Y-121194762D01*
X128023810Y-121099524D01*
X128071429Y-120909048D01*
X128071429Y-120575714D01*
X128023810Y-120385238D01*
X127928572Y-120290000D01*
X127833334Y-120242381D01*
X127023810Y-120956667D02*
X126547619Y-120956667D01*
X127119048Y-121242381D02*
X126785715Y-120242381D01*
X126452381Y-121242381D01*
X125547619Y-121242381D02*
X125880953Y-120766190D01*
X126119048Y-121242381D02*
X126119048Y-120242381D01*
X125738095Y-120242381D01*
X125642857Y-120290000D01*
X125595238Y-120337619D01*
X125547619Y-120432857D01*
X125547619Y-120575714D01*
X125595238Y-120670952D01*
X125642857Y-120718571D01*
X125738095Y-120766190D01*
X126119048Y-120766190D01*
X125119048Y-121242381D02*
X125119048Y-120242381D01*
X124880953Y-120242381D01*
X124738095Y-120290000D01*
X124642857Y-120385238D01*
X124595238Y-120480476D01*
X124547619Y-120670952D01*
X124547619Y-120813810D01*
X124595238Y-121004286D01*
X124642857Y-121099524D01*
X124738095Y-121194762D01*
X124880953Y-121242381D01*
X125119048Y-121242381D01*
X123452381Y-120575714D02*
X123214286Y-121242381D01*
X122976190Y-120575714D01*
X122642857Y-120337619D02*
X122595238Y-120290000D01*
X122500000Y-120242381D01*
X122261904Y-120242381D01*
X122166666Y-120290000D01*
X122119047Y-120337619D01*
X122071428Y-120432857D01*
X122071428Y-120528095D01*
X122119047Y-120670952D01*
X122690476Y-121242381D01*
X122071428Y-121242381D01*
X121642857Y-121147143D02*
X121595238Y-121194762D01*
X121642857Y-121242381D01*
X121690476Y-121194762D01*
X121642857Y-121147143D01*
X121642857Y-121242381D01*
X120976191Y-120242381D02*
X120880952Y-120242381D01*
X120785714Y-120290000D01*
X120738095Y-120337619D01*
X120690476Y-120432857D01*
X120642857Y-120623333D01*
X120642857Y-120861429D01*
X120690476Y-121051905D01*
X120738095Y-121147143D01*
X120785714Y-121194762D01*
X120880952Y-121242381D01*
X120976191Y-121242381D01*
X121071429Y-121194762D01*
X121119048Y-121147143D01*
X121166667Y-121051905D01*
X121214286Y-120861429D01*
X121214286Y-120623333D01*
X121166667Y-120432857D01*
X121119048Y-120337619D01*
X121071429Y-120290000D01*
X120976191Y-120242381D01*
X128270000Y-130810000D02*
X128270000Y-123190000D01*
X137160000Y-130810000D02*
X128270000Y-130810000D01*
X137160000Y-123190000D02*
X137160000Y-130810000D01*
X128270000Y-123190000D02*
X137160000Y-123190000D01*
X133425199Y-141130817D02*
G75*
G02X130916957Y-141240369I-1501199J5602199D01*
G01*
X136025047Y-139629795D02*
G75*
G03X137374043Y-137512369I-4101047J4101177D01*
G01*
X130947082Y-141249332D02*
G75*
G03X129345739Y-143762938I-146421J-1673606D01*
G01*
X137366743Y-137542940D02*
G75*
G02X140344261Y-137412938I1522596J-709998D01*
G01*
X129980739Y-144862790D02*
X129345739Y-143762938D01*
X140979261Y-138512790D02*
X140344261Y-137412938D01*
X143519261Y-142912200D02*
X144154261Y-144012052D01*
X144154261Y-144012052D02*
X143414557Y-147810846D01*
X143414557Y-147810846D02*
X136815443Y-151620846D01*
X136815443Y-151620846D02*
X133155739Y-150362052D01*
X133155739Y-150362052D02*
X132520739Y-149262200D01*
X111549753Y-125498977D02*
G75*
G02X112709000Y-123272000I5602247J-1501023D01*
G01*
X111549753Y-128501023D02*
G75*
G03X112709000Y-130728000I5602247J1501023D01*
G01*
X112686175Y-123293608D02*
G75*
G03X111310000Y-120650000I-1376175J963608D01*
G01*
X112686175Y-130706392D02*
G75*
G02X111310000Y-133350000I-1376175J-963608D01*
G01*
X110040000Y-120650000D02*
X111310000Y-120650000D01*
X110040000Y-133350000D02*
X111310000Y-133350000D01*
X104960000Y-133350000D02*
X103690000Y-133350000D01*
X103690000Y-133350000D02*
X100770000Y-130810000D01*
X100770000Y-130810000D02*
X100770000Y-123190000D01*
X100770000Y-123190000D02*
X103690000Y-120650000D01*
X103690000Y-120650000D02*
X104960000Y-120650000D01*
X136025047Y-114370205D02*
G75*
G02X137374043Y-116487631I-4101047J-4101177D01*
G01*
X133425199Y-112869183D02*
G75*
G03X130916957Y-112759631I-1501199J-5602199D01*
G01*
X137366743Y-116457060D02*
G75*
G03X140344261Y-116587062I1522596J709998D01*
G01*
X130947082Y-112750668D02*
G75*
G02X129345739Y-110237062I-146421J1673606D01*
G01*
X140979261Y-115487210D02*
X140344261Y-116587062D01*
X129980739Y-109137210D02*
X129345739Y-110237062D01*
X132520739Y-104737800D02*
X133155739Y-103637948D01*
X133155739Y-103637948D02*
X136815443Y-102379154D01*
X136815443Y-102379154D02*
X143414557Y-106189154D01*
X143414557Y-106189154D02*
X144154261Y-109987948D01*
X144154261Y-109987948D02*
X143519261Y-111087800D01*
D12*
X145731000Y-122682000D02*
G75*
G03X145731000Y-122682000I-254000J0D01*
G01*
D11*
X134717887Y-137939202D02*
X134617979Y-138051870D01*
X134600550Y-138116920D01*
X134606929Y-138223208D01*
X134678358Y-138346925D01*
X134767216Y-138405594D01*
X134832265Y-138423024D01*
X134938553Y-138416644D01*
X135268468Y-138226168D01*
X134768468Y-137360143D01*
X134479792Y-137526810D01*
X134421123Y-137615668D01*
X134403693Y-137680717D01*
X134410073Y-137787005D01*
X134457692Y-137869483D01*
X134546550Y-137928152D01*
X134611599Y-137945582D01*
X134717887Y-137939202D01*
X135006563Y-137772535D01*
X134300825Y-138454923D02*
X133888431Y-138693018D01*
X134526160Y-138654739D02*
X133737485Y-137955381D01*
X133948810Y-138988073D01*
X133283853Y-138217286D02*
X132788981Y-138503000D01*
X133536417Y-139226168D02*
X133036417Y-138360143D01*
X132582784Y-138622048D02*
X132046673Y-138931572D01*
X132525825Y-139094819D01*
X132402106Y-139166248D01*
X132343437Y-139255106D01*
X132326007Y-139320155D01*
X132332388Y-139426444D01*
X132451435Y-139632640D01*
X132540293Y-139691309D01*
X132605342Y-139708739D01*
X132711630Y-139702359D01*
X132959067Y-139559501D01*
X133017736Y-139470643D01*
X133035165Y-139405594D01*
X113524571Y-125785715D02*
X113572190Y-125928572D01*
X113619810Y-125976191D01*
X113715048Y-126023810D01*
X113857905Y-126023810D01*
X113953143Y-125976191D01*
X114000762Y-125928572D01*
X114048381Y-125833334D01*
X114048381Y-125452381D01*
X113048381Y-125452381D01*
X113048381Y-125785715D01*
X113096000Y-125880953D01*
X113143619Y-125928572D01*
X113238857Y-125976191D01*
X113334095Y-125976191D01*
X113429333Y-125928572D01*
X113476952Y-125880953D01*
X113524571Y-125785715D01*
X113524571Y-125452381D01*
X113762667Y-126404762D02*
X113762667Y-126880953D01*
X114048381Y-126309524D02*
X113048381Y-126642857D01*
X114048381Y-126976191D01*
X113048381Y-127166667D02*
X113048381Y-127738096D01*
X114048381Y-127452381D02*
X113048381Y-127452381D01*
X113143619Y-128023810D02*
X113096000Y-128071429D01*
X113048381Y-128166667D01*
X113048381Y-128404763D01*
X113096000Y-128500001D01*
X113143619Y-128547620D01*
X113238857Y-128595239D01*
X113334095Y-128595239D01*
X113476952Y-128547620D01*
X114048381Y-127976191D01*
X114048381Y-128595239D01*
X134789316Y-115937079D02*
X134641789Y-115906890D01*
X134576740Y-115924321D01*
X134487881Y-115982990D01*
X134416453Y-116106707D01*
X134410073Y-116212995D01*
X134427503Y-116278044D01*
X134486172Y-116366902D01*
X134816087Y-116557379D01*
X135316087Y-115691354D01*
X135027411Y-115524687D01*
X134921123Y-115518307D01*
X134856074Y-115535737D01*
X134767216Y-115594406D01*
X134719597Y-115676884D01*
X134713217Y-115783172D01*
X134730647Y-115848221D01*
X134789316Y-115937079D01*
X135077992Y-116103746D01*
X134134158Y-115833753D02*
X133721764Y-115595657D01*
X134073779Y-116128807D02*
X134285104Y-115096116D01*
X133496429Y-115795474D01*
X133831472Y-114834211D02*
X133336600Y-114548496D01*
X133084036Y-115557379D02*
X133584036Y-114691354D01*
X132094292Y-114985950D02*
X132589164Y-115271664D01*
X132341728Y-115128807D02*
X132841728Y-114262782D01*
X132852778Y-114434119D01*
X132887638Y-114564216D01*
X132946307Y-114653075D01*
X114154466Y-138590701D02*
X113659594Y-138304986D01*
X113407030Y-139313869D02*
X113907030Y-138447844D01*
X113453397Y-138185939D02*
X112376047Y-138718630D01*
X112876047Y-137852605D02*
X112953397Y-139051964D01*
X123257614Y-145001106D02*
X123784386Y-144755380D01*
X123752487Y-145286821D02*
X124252487Y-144420796D01*
X123922572Y-144230319D01*
X123816284Y-144223939D01*
X123751235Y-144241369D01*
X123662376Y-144300038D01*
X123590948Y-144423756D01*
X123584568Y-144530044D01*
X123601998Y-144595093D01*
X123660667Y-144683951D01*
X123990582Y-144874427D01*
X123468940Y-143968415D02*
X122391589Y-144501106D01*
X122891589Y-143635081D02*
X122968940Y-144834440D01*
X144389285Y-122852571D02*
X144389285Y-121352571D01*
X142817856Y-122709714D02*
X142889285Y-122781143D01*
X143103571Y-122852571D01*
X143246428Y-122852571D01*
X143460713Y-122781143D01*
X143603571Y-122638286D01*
X143674999Y-122495429D01*
X143746428Y-122209714D01*
X143746428Y-121995429D01*
X143674999Y-121709714D01*
X143603571Y-121566857D01*
X143460713Y-121424000D01*
X143246428Y-121352571D01*
X143103571Y-121352571D01*
X142889285Y-121424000D01*
X142817856Y-121495429D01*
X142246428Y-122781143D02*
X142032142Y-122852571D01*
X141674999Y-122852571D01*
X141532142Y-122781143D01*
X141460713Y-122709714D01*
X141389285Y-122566857D01*
X141389285Y-122424000D01*
X141460713Y-122281143D01*
X141532142Y-122209714D01*
X141674999Y-122138286D01*
X141960713Y-122066857D01*
X142103571Y-121995429D01*
X142174999Y-121924000D01*
X142246428Y-121781143D01*
X142246428Y-121638286D01*
X142174999Y-121495429D01*
X142103571Y-121424000D01*
X141960713Y-121352571D01*
X141603571Y-121352571D01*
X141389285Y-121424000D01*
X140746428Y-122852571D02*
X140746428Y-121352571D01*
X140175000Y-121352571D01*
X140032142Y-121424000D01*
X139960714Y-121495429D01*
X139889285Y-121638286D01*
X139889285Y-121852571D01*
X139960714Y-121995429D01*
X140032142Y-122066857D01*
X140175000Y-122138286D01*
X140746428Y-122138286D01*
X131571904Y-129040000D02*
X131667142Y-128992381D01*
X131809999Y-128992381D01*
X131952857Y-129040000D01*
X132048095Y-129135238D01*
X132095714Y-129230476D01*
X132143333Y-129420952D01*
X132143333Y-129563810D01*
X132095714Y-129754286D01*
X132048095Y-129849524D01*
X131952857Y-129944762D01*
X131809999Y-129992381D01*
X131714761Y-129992381D01*
X131571904Y-129944762D01*
X131524285Y-129897143D01*
X131524285Y-129563810D01*
X131714761Y-129563810D01*
X131095714Y-129992381D02*
X131095714Y-128992381D01*
X130524285Y-129992381D01*
X130524285Y-128992381D01*
X130048095Y-129992381D02*
X130048095Y-128992381D01*
X129810000Y-128992381D01*
X129667142Y-129040000D01*
X129571904Y-129135238D01*
X129524285Y-129230476D01*
X129476666Y-129420952D01*
X129476666Y-129563810D01*
X129524285Y-129754286D01*
X129571904Y-129849524D01*
X129667142Y-129944762D01*
X129810000Y-129992381D01*
X130048095Y-129992381D01*
X132381428Y-127452381D02*
X132381428Y-126452381D01*
X132048094Y-127166667D01*
X131714761Y-126452381D01*
X131714761Y-127452381D01*
X131048095Y-126452381D02*
X130857618Y-126452381D01*
X130762380Y-126500000D01*
X130667142Y-126595238D01*
X130619523Y-126785714D01*
X130619523Y-127119048D01*
X130667142Y-127309524D01*
X130762380Y-127404762D01*
X130857618Y-127452381D01*
X131048095Y-127452381D01*
X131143333Y-127404762D01*
X131238571Y-127309524D01*
X131286190Y-127119048D01*
X131286190Y-126785714D01*
X131238571Y-126595238D01*
X131143333Y-126500000D01*
X131048095Y-126452381D01*
X130238571Y-127404762D02*
X130095714Y-127452381D01*
X129857618Y-127452381D01*
X129762380Y-127404762D01*
X129714761Y-127357143D01*
X129667142Y-127261905D01*
X129667142Y-127166667D01*
X129714761Y-127071429D01*
X129762380Y-127023810D01*
X129857618Y-126976190D01*
X130048095Y-126928571D01*
X130143333Y-126880952D01*
X130190952Y-126833333D01*
X130238571Y-126738095D01*
X130238571Y-126642857D01*
X130190952Y-126547619D01*
X130143333Y-126500000D01*
X130048095Y-126452381D01*
X129809999Y-126452381D01*
X129667142Y-126500000D01*
X129238571Y-127452381D02*
X129238571Y-126452381D01*
X132286190Y-123912381D02*
X131667142Y-123912381D01*
X132000476Y-124293333D01*
X131857618Y-124293333D01*
X131762380Y-124340952D01*
X131714761Y-124388571D01*
X131667142Y-124483810D01*
X131667142Y-124721905D01*
X131714761Y-124817143D01*
X131762380Y-124864762D01*
X131857618Y-124912381D01*
X132143333Y-124912381D01*
X132238571Y-124864762D01*
X132286190Y-124817143D01*
X131238571Y-124817143D02*
X131190952Y-124864762D01*
X131238571Y-124912381D01*
X131286190Y-124864762D01*
X131238571Y-124817143D01*
X131238571Y-124912381D01*
X130857619Y-123912381D02*
X130238571Y-123912381D01*
X130571905Y-124293333D01*
X130429047Y-124293333D01*
X130333809Y-124340952D01*
X130286190Y-124388571D01*
X130238571Y-124483810D01*
X130238571Y-124721905D01*
X130286190Y-124817143D01*
X130333809Y-124864762D01*
X130429047Y-124912381D01*
X130714762Y-124912381D01*
X130810000Y-124864762D01*
X130857619Y-124817143D01*
X129952857Y-123912381D02*
X129619524Y-124912381D01*
X129286190Y-123912381D01*
X135167619Y-129992381D02*
X135500953Y-129516190D01*
X135739048Y-129992381D02*
X135739048Y-128992381D01*
X135358095Y-128992381D01*
X135262857Y-129040000D01*
X135215238Y-129087619D01*
X135167619Y-129182857D01*
X135167619Y-129325714D01*
X135215238Y-129420952D01*
X135262857Y-129468571D01*
X135358095Y-129516190D01*
X135739048Y-129516190D01*
X134786667Y-129944762D02*
X134643810Y-129992381D01*
X134405714Y-129992381D01*
X134310476Y-129944762D01*
X134262857Y-129897143D01*
X134215238Y-129801905D01*
X134215238Y-129706667D01*
X134262857Y-129611429D01*
X134310476Y-129563810D01*
X134405714Y-129516190D01*
X134596191Y-129468571D01*
X134691429Y-129420952D01*
X134739048Y-129373333D01*
X134786667Y-129278095D01*
X134786667Y-129182857D01*
X134739048Y-129087619D01*
X134691429Y-129040000D01*
X134596191Y-128992381D01*
X134358095Y-128992381D01*
X134215238Y-129040000D01*
X133929524Y-128992381D02*
X133358095Y-128992381D01*
X133643810Y-129992381D02*
X133643810Y-128992381D01*
X135905714Y-127404762D02*
X135762857Y-127452381D01*
X135524761Y-127452381D01*
X135429523Y-127404762D01*
X135381904Y-127357143D01*
X135334285Y-127261905D01*
X135334285Y-127166667D01*
X135381904Y-127071429D01*
X135429523Y-127023810D01*
X135524761Y-126976190D01*
X135715238Y-126928571D01*
X135810476Y-126880952D01*
X135858095Y-126833333D01*
X135905714Y-126738095D01*
X135905714Y-126642857D01*
X135858095Y-126547619D01*
X135810476Y-126500000D01*
X135715238Y-126452381D01*
X135477142Y-126452381D01*
X135334285Y-126500000D01*
X134334285Y-127357143D02*
X134381904Y-127404762D01*
X134524761Y-127452381D01*
X134619999Y-127452381D01*
X134762857Y-127404762D01*
X134858095Y-127309524D01*
X134905714Y-127214286D01*
X134953333Y-127023810D01*
X134953333Y-126880952D01*
X134905714Y-126690476D01*
X134858095Y-126595238D01*
X134762857Y-126500000D01*
X134619999Y-126452381D01*
X134524761Y-126452381D01*
X134381904Y-126500000D01*
X134334285Y-126547619D01*
X133905714Y-127452381D02*
X133905714Y-126452381D01*
X133334285Y-127452381D02*
X133762857Y-126880952D01*
X133334285Y-126452381D02*
X133905714Y-127023810D01*
X136191428Y-124912381D02*
X136191428Y-123912381D01*
X135858094Y-124626667D01*
X135524761Y-123912381D01*
X135524761Y-124912381D01*
X135048571Y-124912381D02*
X135048571Y-123912381D01*
X134620000Y-124864762D02*
X134477143Y-124912381D01*
X134239047Y-124912381D01*
X134143809Y-124864762D01*
X134096190Y-124817143D01*
X134048571Y-124721905D01*
X134048571Y-124626667D01*
X134096190Y-124531429D01*
X134143809Y-124483810D01*
X134239047Y-124436190D01*
X134429524Y-124388571D01*
X134524762Y-124340952D01*
X134572381Y-124293333D01*
X134620000Y-124198095D01*
X134620000Y-124102857D01*
X134572381Y-124007619D01*
X134524762Y-123960000D01*
X134429524Y-123912381D01*
X134191428Y-123912381D01*
X134048571Y-123960000D01*
X133429524Y-123912381D02*
X133239047Y-123912381D01*
X133143809Y-123960000D01*
X133048571Y-124055238D01*
X133000952Y-124245714D01*
X133000952Y-124579048D01*
X133048571Y-124769524D01*
X133143809Y-124864762D01*
X133239047Y-124912381D01*
X133429524Y-124912381D01*
X133524762Y-124864762D01*
X133620000Y-124769524D01*
X133667619Y-124579048D01*
X133667619Y-124245714D01*
X133620000Y-124055238D01*
X133524762Y-123960000D01*
X133429524Y-123912381D01*
%LPC*%
D10*
G36*
X131624693Y-144970204D02*
X133249693Y-147784786D01*
X130435111Y-149409786D01*
X128810111Y-146595204D01*
X131624693Y-144970204D01*
X131624693Y-144970204D01*
G37*
G36*
X143064889Y-138365204D02*
X144689889Y-141179786D01*
X141875307Y-142804786D01*
X140250307Y-139990204D01*
X143064889Y-138365204D01*
X143064889Y-138365204D01*
G37*
G36*
X138217762Y-138409733D02*
X142227762Y-145355257D01*
X135282238Y-149365257D01*
X131272238Y-142419733D01*
X138217762Y-138409733D01*
X138217762Y-138409733D01*
G37*
D13*
X107500000Y-120395000D03*
X107500000Y-133605000D03*
D14*
X107500000Y-127000000D03*
D10*
G36*
X140250307Y-114009796D02*
X141875307Y-111195214D01*
X144689889Y-112820214D01*
X143064889Y-115634796D01*
X140250307Y-114009796D01*
X140250307Y-114009796D01*
G37*
G36*
X128810111Y-107404796D02*
X130435111Y-104590214D01*
X133249693Y-106215214D01*
X131624693Y-109029796D01*
X128810111Y-107404796D01*
X128810111Y-107404796D01*
G37*
G36*
X131272238Y-111580267D02*
X135282238Y-104634743D01*
X142227762Y-108644743D01*
X138217762Y-115590267D01*
X131272238Y-111580267D01*
X131272238Y-111580267D01*
G37*
G36*
X122607753Y-143139369D02*
X121772753Y-144585631D01*
X118239369Y-142545631D01*
X119074369Y-141099369D01*
X122607753Y-143139369D01*
X122607753Y-143139369D01*
G37*
G36*
X118320927Y-140664369D02*
X117485927Y-142110631D01*
X113952543Y-140070631D01*
X114787543Y-138624369D01*
X118320927Y-140664369D01*
X118320927Y-140664369D01*
G37*
D15*
X144904000Y-124460000D03*
X139954000Y-124460000D03*
X144904000Y-127000000D03*
X139954000Y-127000000D03*
X144904000Y-129540000D03*
X139954000Y-129540000D03*
D16*
X127000000Y-127000000D03*
D10*
G36*
X109597771Y-108618454D02*
X108717771Y-107094250D01*
X110241975Y-106214250D01*
X111121975Y-107738454D01*
X109597771Y-108618454D01*
X109597771Y-108618454D01*
G37*
D17*
X110919873Y-109148403D02*
X110919873Y-109148403D01*
X111651924Y-106416352D02*
X111651924Y-106416352D01*
X112651924Y-108148403D02*
X112651924Y-108148403D01*
X113383975Y-105416352D02*
X113383975Y-105416352D01*
X114383975Y-107148403D02*
X114383975Y-107148403D01*
X115116025Y-104416352D02*
X115116025Y-104416352D01*
X116116025Y-106148403D02*
X116116025Y-106148403D01*
X116848076Y-103416352D02*
X116848076Y-103416352D01*
X117848076Y-105148403D02*
X117848076Y-105148403D01*
X118580127Y-102416352D02*
X118580127Y-102416352D01*
X119580127Y-104148403D02*
X119580127Y-104148403D01*
D10*
G36*
X119782229Y-151261546D02*
X118902229Y-152785750D01*
X117378025Y-151905750D01*
X118258025Y-150381546D01*
X119782229Y-151261546D01*
X119782229Y-151261546D01*
G37*
D17*
X119580127Y-149851597D02*
X119580127Y-149851597D01*
X116848076Y-150583648D02*
X116848076Y-150583648D01*
X117848076Y-148851597D02*
X117848076Y-148851597D01*
X115116025Y-149583648D02*
X115116025Y-149583648D01*
X116116025Y-147851597D02*
X116116025Y-147851597D01*
X113383975Y-148583648D02*
X113383975Y-148583648D01*
X114383975Y-146851597D02*
X114383975Y-146851597D01*
X111651924Y-147583648D02*
X111651924Y-147583648D01*
X112651924Y-145851597D02*
X112651924Y-145851597D01*
X109919873Y-146583648D02*
X109919873Y-146583648D01*
X110919873Y-144851597D02*
X110919873Y-144851597D01*
D18*
X152500000Y-122000000D03*
D19*
X150500000Y-122000000D03*
X152500000Y-124000000D03*
X150500000Y-124000000D03*
X152500000Y-126000000D03*
X150500000Y-126000000D03*
X152500000Y-128000000D03*
X150500000Y-128000000D03*
X152500000Y-130000000D03*
X150500000Y-130000000D03*
X152500000Y-132000000D03*
X150500000Y-132000000D03*
M02*
