M48
INCH,TZ
T1C0.016
T2C0.040
T3C0.073
%
G90
G05
T1
X39250Y-47750
X39250Y-52250
X40250Y-55250
X40500Y-44750
X40824Y-53161
X41000Y-47250
X41750Y-42750
X42250Y-54000
X43622Y-55428
X43625Y-55991
X44079Y-55261
X44319Y-54927
X44414Y-44105
X44500Y-40500
X44669Y-54618
X45251Y-52319
X45294Y-59866
X45435Y-48197
X45500Y-52000
X45520Y-48587
X45750Y-49000
X45926Y-48588
X46000Y-53000
X46107Y-44170
X46500Y-50000
X46555Y-42250
X46748Y-49715
X46931Y-48383
X47055Y-50736
X47143Y-48073
X47165Y-48681
X47168Y-47043
X47400Y-55200
X47402Y-49278
X47444Y-47295
X47499Y-53239
X47512Y-49888
X47592Y-51031
X47741Y-41928
X47889Y-45867
X48000Y-42750
X48000Y-48000
X48065Y-43172
X48250Y-55500
X48500Y-42750
X48500Y-53250
X48508Y-39643
X48588Y-60317
X48750Y-55750
X48752Y-44880
X49250Y-51000
X49250Y-53250
X49250Y-56000
X49264Y-48000
X49325Y-45545
X49325Y-45171
X49400Y-44400
X49500Y-48335
X49566Y-44884
X49932Y-44806
X50172Y-45337
X50323Y-45723
X50750Y-51000
X50767Y-47762
X51000Y-52750
X51372Y-39643
X51432Y-60296
X51500Y-50250
X51500Y-51500
X51500Y-52750
X51750Y-46250
X52000Y-52750
X52114Y-47459
X52129Y-45800
X52250Y-51000
X52450Y-46134
X52519Y-46981
X53075Y-48332
X53129Y-46750
X53418Y-50834
X53500Y-49750
X54109Y-59782
X54151Y-53250
X54250Y-40250
X54754Y-48471
X54962Y-47026
X55275Y-46758
X55750Y-51750
X55750Y-52750
X56500Y-41500
X56509Y-58423
X57250Y-51750
X57500Y-52000
X57750Y-52250
X58460Y-56240
X58500Y-43750
X60000Y-46000
X60053Y-53952
T2
X43276Y-42290
X43276Y-57710
X43669Y-42972
X43669Y-57028
X43957Y-41896
X43957Y-58104
X44351Y-42578
X44351Y-57422
X44639Y-41503
X44639Y-58497
X45033Y-42184
X45033Y-57816
X45321Y-41109
X45321Y-58891
X45715Y-41791
X45715Y-58209
X46003Y-40715
X46003Y-59285
X46397Y-41397
X46397Y-58603
X46685Y-40321
X46685Y-59679
X47079Y-41003
X47079Y-58997
X50000Y-50000
X59252Y-48031
X59252Y-48819
X59252Y-49606
X59252Y-50394
X59252Y-51181
X59252Y-51969
X60039Y-48031
X60039Y-48819
X60039Y-49606
X60039Y-50394
X60039Y-51181
X60039Y-51969
T3
X42323Y-47400
X42323Y-52600
X51587Y-42051
X51587Y-57949
X56091Y-44652
X56091Y-55348
T0
M30
