G04 #@! TF.FileFunction,Copper,L1,Top,Signal*
%FSLAX46Y46*%
G04 Gerber Fmt 4.6, Leading zero omitted, Abs format (unit mm)*
G04 Created by KiCad (PCBNEW (2015-08-12 BZR 6086)-product) date Tue 01 Sep 2015 09:02:53 PM CEST*
%MOMM*%
G01*
G04 APERTURE LIST*
%ADD10C,0.100000*%
%ADD11R,7.620000X7.620000*%
%ADD12R,2.850000X2.850000*%
%ADD13R,1.200000X0.750000*%
%ADD14R,1.200000X0.900000*%
%ADD15R,1.550000X1.300000*%
%ADD16R,0.800100X0.800100*%
%ADD17R,0.797560X0.797560*%
%ADD18C,1.360000*%
%ADD19C,1.360000*%
%ADD20R,1.360000X1.360000*%
%ADD21O,1.360000X1.360000*%
%ADD22C,0.600000*%
%ADD23C,0.250000*%
%ADD24C,0.800000*%
%ADD25C,0.750000*%
%ADD26C,0.400000*%
%ADD27C,0.254000*%
G04 APERTURE END LIST*
D10*
G36*
X138144557Y-138682938D02*
X141954557Y-145282052D01*
X135355443Y-149092052D01*
X131545443Y-142492938D01*
X138144557Y-138682938D01*
X138144557Y-138682938D01*
G37*
D11*
X107500000Y-127000000D03*
D10*
G36*
X131551488Y-145243409D02*
X132976488Y-147711581D01*
X130508316Y-149136581D01*
X129083316Y-146668409D01*
X131551488Y-145243409D01*
X131551488Y-145243409D01*
G37*
G36*
X142991684Y-138638409D02*
X144416684Y-141106581D01*
X141948512Y-142531581D01*
X140523512Y-140063409D01*
X142991684Y-138638409D01*
X142991684Y-138638409D01*
G37*
D12*
X107500000Y-120395000D03*
X107500000Y-133605000D03*
D10*
G36*
X140523512Y-113936591D02*
X141948512Y-111468419D01*
X144416684Y-112893419D01*
X142991684Y-115361591D01*
X140523512Y-113936591D01*
X140523512Y-113936591D01*
G37*
G36*
X129083316Y-107331591D02*
X130508316Y-104863419D01*
X132976488Y-106288419D01*
X131551488Y-108756591D01*
X129083316Y-107331591D01*
X129083316Y-107331591D01*
G37*
G36*
X122674555Y-110213666D02*
X123063464Y-109824757D01*
X124194835Y-110956128D01*
X123805926Y-111345037D01*
X122674555Y-110213666D01*
X122674555Y-110213666D01*
G37*
G36*
X122108870Y-110779352D02*
X122497779Y-110390443D01*
X123629150Y-111521814D01*
X123240241Y-111910723D01*
X122108870Y-110779352D01*
X122108870Y-110779352D01*
G37*
G36*
X121543184Y-111345037D02*
X121932093Y-110956128D01*
X123063464Y-112087499D01*
X122674555Y-112476408D01*
X121543184Y-111345037D01*
X121543184Y-111345037D01*
G37*
G36*
X120977499Y-111910722D02*
X121366408Y-111521813D01*
X122497779Y-112653184D01*
X122108870Y-113042093D01*
X120977499Y-111910722D01*
X120977499Y-111910722D01*
G37*
G36*
X120411813Y-112476408D02*
X120800722Y-112087499D01*
X121932093Y-113218870D01*
X121543184Y-113607779D01*
X120411813Y-112476408D01*
X120411813Y-112476408D01*
G37*
G36*
X119846128Y-113042093D02*
X120235037Y-112653184D01*
X121366408Y-113784555D01*
X120977499Y-114173464D01*
X119846128Y-113042093D01*
X119846128Y-113042093D01*
G37*
G36*
X119280443Y-113607779D02*
X119669352Y-113218870D01*
X120800723Y-114350241D01*
X120411814Y-114739150D01*
X119280443Y-113607779D01*
X119280443Y-113607779D01*
G37*
G36*
X118714757Y-114173464D02*
X119103666Y-113784555D01*
X120235037Y-114915926D01*
X119846128Y-115304835D01*
X118714757Y-114173464D01*
X118714757Y-114173464D01*
G37*
G36*
X119103666Y-117355445D02*
X118714757Y-116966536D01*
X119846128Y-115835165D01*
X120235037Y-116224074D01*
X119103666Y-117355445D01*
X119103666Y-117355445D01*
G37*
G36*
X119669352Y-117921130D02*
X119280443Y-117532221D01*
X120411814Y-116400850D01*
X120800723Y-116789759D01*
X119669352Y-117921130D01*
X119669352Y-117921130D01*
G37*
G36*
X120235037Y-118486816D02*
X119846128Y-118097907D01*
X120977499Y-116966536D01*
X121366408Y-117355445D01*
X120235037Y-118486816D01*
X120235037Y-118486816D01*
G37*
G36*
X120800722Y-119052501D02*
X120411813Y-118663592D01*
X121543184Y-117532221D01*
X121932093Y-117921130D01*
X120800722Y-119052501D01*
X120800722Y-119052501D01*
G37*
G36*
X121366408Y-119618187D02*
X120977499Y-119229278D01*
X122108870Y-118097907D01*
X122497779Y-118486816D01*
X121366408Y-119618187D01*
X121366408Y-119618187D01*
G37*
G36*
X121932093Y-120183872D02*
X121543184Y-119794963D01*
X122674555Y-118663592D01*
X123063464Y-119052501D01*
X121932093Y-120183872D01*
X121932093Y-120183872D01*
G37*
G36*
X122497779Y-120749557D02*
X122108870Y-120360648D01*
X123240241Y-119229277D01*
X123629150Y-119618186D01*
X122497779Y-120749557D01*
X122497779Y-120749557D01*
G37*
G36*
X123063464Y-121315243D02*
X122674555Y-120926334D01*
X123805926Y-119794963D01*
X124194835Y-120183872D01*
X123063464Y-121315243D01*
X123063464Y-121315243D01*
G37*
G36*
X124725165Y-120183872D02*
X125114074Y-119794963D01*
X126245445Y-120926334D01*
X125856536Y-121315243D01*
X124725165Y-120183872D01*
X124725165Y-120183872D01*
G37*
G36*
X125290850Y-119618186D02*
X125679759Y-119229277D01*
X126811130Y-120360648D01*
X126422221Y-120749557D01*
X125290850Y-119618186D01*
X125290850Y-119618186D01*
G37*
G36*
X125856536Y-119052501D02*
X126245445Y-118663592D01*
X127376816Y-119794963D01*
X126987907Y-120183872D01*
X125856536Y-119052501D01*
X125856536Y-119052501D01*
G37*
G36*
X126422221Y-118486816D02*
X126811130Y-118097907D01*
X127942501Y-119229278D01*
X127553592Y-119618187D01*
X126422221Y-118486816D01*
X126422221Y-118486816D01*
G37*
G36*
X126987907Y-117921130D02*
X127376816Y-117532221D01*
X128508187Y-118663592D01*
X128119278Y-119052501D01*
X126987907Y-117921130D01*
X126987907Y-117921130D01*
G37*
G36*
X127553592Y-117355445D02*
X127942501Y-116966536D01*
X129073872Y-118097907D01*
X128684963Y-118486816D01*
X127553592Y-117355445D01*
X127553592Y-117355445D01*
G37*
G36*
X128119277Y-116789759D02*
X128508186Y-116400850D01*
X129639557Y-117532221D01*
X129250648Y-117921130D01*
X128119277Y-116789759D01*
X128119277Y-116789759D01*
G37*
G36*
X128684963Y-116224074D02*
X129073872Y-115835165D01*
X130205243Y-116966536D01*
X129816334Y-117355445D01*
X128684963Y-116224074D01*
X128684963Y-116224074D01*
G37*
G36*
X129073872Y-115304835D02*
X128684963Y-114915926D01*
X129816334Y-113784555D01*
X130205243Y-114173464D01*
X129073872Y-115304835D01*
X129073872Y-115304835D01*
G37*
G36*
X128508186Y-114739150D02*
X128119277Y-114350241D01*
X129250648Y-113218870D01*
X129639557Y-113607779D01*
X128508186Y-114739150D01*
X128508186Y-114739150D01*
G37*
G36*
X127942501Y-114173464D02*
X127553592Y-113784555D01*
X128684963Y-112653184D01*
X129073872Y-113042093D01*
X127942501Y-114173464D01*
X127942501Y-114173464D01*
G37*
G36*
X127376816Y-113607779D02*
X126987907Y-113218870D01*
X128119278Y-112087499D01*
X128508187Y-112476408D01*
X127376816Y-113607779D01*
X127376816Y-113607779D01*
G37*
G36*
X126811130Y-113042093D02*
X126422221Y-112653184D01*
X127553592Y-111521813D01*
X127942501Y-111910722D01*
X126811130Y-113042093D01*
X126811130Y-113042093D01*
G37*
G36*
X126245445Y-112476408D02*
X125856536Y-112087499D01*
X126987907Y-110956128D01*
X127376816Y-111345037D01*
X126245445Y-112476408D01*
X126245445Y-112476408D01*
G37*
G36*
X125679759Y-111910723D02*
X125290850Y-111521814D01*
X126422221Y-110390443D01*
X126811130Y-110779352D01*
X125679759Y-111910723D01*
X125679759Y-111910723D01*
G37*
G36*
X125114074Y-111345037D02*
X124725165Y-110956128D01*
X125856536Y-109824757D01*
X126245445Y-110213666D01*
X125114074Y-111345037D01*
X125114074Y-111345037D01*
G37*
D13*
X127320000Y-137160000D03*
X129220000Y-137160000D03*
X121600000Y-137160000D03*
X119700000Y-137160000D03*
D10*
G36*
X118549150Y-111343180D02*
X118018820Y-110812850D01*
X118867348Y-109964322D01*
X119397678Y-110494652D01*
X118549150Y-111343180D01*
X118549150Y-111343180D01*
G37*
G36*
X119892652Y-109999678D02*
X119362322Y-109469348D01*
X120210850Y-108620820D01*
X120741180Y-109151150D01*
X119892652Y-109999678D01*
X119892652Y-109999678D01*
G37*
D14*
X142070000Y-135890000D03*
X139870000Y-135890000D03*
D15*
X123025000Y-129250000D03*
X123025000Y-124750000D03*
X130975000Y-124750000D03*
X130975000Y-129250000D03*
D14*
X145245000Y-129540000D03*
X143045000Y-129540000D03*
X143045000Y-121920000D03*
X145245000Y-121920000D03*
X130980000Y-121920000D03*
X133180000Y-121920000D03*
D10*
G36*
X135620000Y-133100000D02*
X133620000Y-133100000D01*
X133630000Y-132900000D01*
X135610000Y-132900000D01*
X135620000Y-133100000D01*
X135620000Y-133100000D01*
G37*
G36*
X135610000Y-132900000D02*
X133630000Y-132900000D01*
X133700000Y-132700000D01*
X135540000Y-132700000D01*
X135610000Y-132900000D01*
X135610000Y-132900000D01*
G37*
G36*
X135540000Y-132700000D02*
X133700000Y-132700000D01*
X133810000Y-132500000D01*
X135430000Y-132500000D01*
X135540000Y-132700000D01*
X135540000Y-132700000D01*
G37*
G36*
X135230000Y-132300000D02*
X134010000Y-132300000D01*
X134180000Y-132200000D01*
X135060000Y-132200000D01*
X135230000Y-132300000D01*
X135230000Y-132300000D01*
G37*
G36*
X135060000Y-132200000D02*
X134180000Y-132200000D01*
X134480000Y-132100000D01*
X134760000Y-132100000D01*
X135060000Y-132200000D01*
X135060000Y-132200000D01*
G37*
G36*
X135430000Y-132500000D02*
X133810000Y-132500000D01*
X134010000Y-132300000D01*
X135230000Y-132300000D01*
X135430000Y-132500000D01*
X135430000Y-132500000D01*
G37*
G36*
X134180000Y-134500000D02*
X135060000Y-134500000D01*
X134760000Y-134600000D01*
X134480000Y-134600000D01*
X134180000Y-134500000D01*
X134180000Y-134500000D01*
G37*
G36*
X133620000Y-133600000D02*
X135620000Y-133600000D01*
X135610000Y-133800000D01*
X133630000Y-133800000D01*
X133620000Y-133600000D01*
X133620000Y-133600000D01*
G37*
G36*
X133630000Y-133800000D02*
X135610000Y-133800000D01*
X135540000Y-134000000D01*
X133700000Y-134000000D01*
X133630000Y-133800000D01*
X133630000Y-133800000D01*
G37*
G36*
X133700000Y-134000000D02*
X135540000Y-134000000D01*
X135430000Y-134200000D01*
X133810000Y-134200000D01*
X133700000Y-134000000D01*
X133700000Y-134000000D01*
G37*
G36*
X134010000Y-134400000D02*
X135230000Y-134400000D01*
X135060000Y-134500000D01*
X134180000Y-134500000D01*
X134010000Y-134400000D01*
X134010000Y-134400000D01*
G37*
G36*
X133810000Y-134200000D02*
X135430000Y-134200000D01*
X135230000Y-134400000D01*
X134010000Y-134400000D01*
X133810000Y-134200000D01*
X133810000Y-134200000D01*
G37*
G36*
X128000000Y-133100000D02*
X126000000Y-133100000D01*
X126010000Y-132900000D01*
X127990000Y-132900000D01*
X128000000Y-133100000D01*
X128000000Y-133100000D01*
G37*
G36*
X127990000Y-132900000D02*
X126010000Y-132900000D01*
X126080000Y-132700000D01*
X127920000Y-132700000D01*
X127990000Y-132900000D01*
X127990000Y-132900000D01*
G37*
G36*
X127920000Y-132700000D02*
X126080000Y-132700000D01*
X126190000Y-132500000D01*
X127810000Y-132500000D01*
X127920000Y-132700000D01*
X127920000Y-132700000D01*
G37*
G36*
X127610000Y-132300000D02*
X126390000Y-132300000D01*
X126560000Y-132200000D01*
X127440000Y-132200000D01*
X127610000Y-132300000D01*
X127610000Y-132300000D01*
G37*
G36*
X127440000Y-132200000D02*
X126560000Y-132200000D01*
X126860000Y-132100000D01*
X127140000Y-132100000D01*
X127440000Y-132200000D01*
X127440000Y-132200000D01*
G37*
G36*
X127810000Y-132500000D02*
X126190000Y-132500000D01*
X126390000Y-132300000D01*
X127610000Y-132300000D01*
X127810000Y-132500000D01*
X127810000Y-132500000D01*
G37*
G36*
X126560000Y-134500000D02*
X127440000Y-134500000D01*
X127140000Y-134600000D01*
X126860000Y-134600000D01*
X126560000Y-134500000D01*
X126560000Y-134500000D01*
G37*
G36*
X126000000Y-133600000D02*
X128000000Y-133600000D01*
X127990000Y-133800000D01*
X126010000Y-133800000D01*
X126000000Y-133600000D01*
X126000000Y-133600000D01*
G37*
G36*
X126010000Y-133800000D02*
X127990000Y-133800000D01*
X127920000Y-134000000D01*
X126080000Y-134000000D01*
X126010000Y-133800000D01*
X126010000Y-133800000D01*
G37*
G36*
X126080000Y-134000000D02*
X127920000Y-134000000D01*
X127810000Y-134200000D01*
X126190000Y-134200000D01*
X126080000Y-134000000D01*
X126080000Y-134000000D01*
G37*
G36*
X126390000Y-134400000D02*
X127610000Y-134400000D01*
X127440000Y-134500000D01*
X126560000Y-134500000D01*
X126390000Y-134400000D01*
X126390000Y-134400000D01*
G37*
G36*
X126190000Y-134200000D02*
X127810000Y-134200000D01*
X127610000Y-134400000D01*
X126390000Y-134400000D01*
X126190000Y-134200000D01*
X126190000Y-134200000D01*
G37*
G36*
X120380000Y-133100000D02*
X118380000Y-133100000D01*
X118390000Y-132900000D01*
X120370000Y-132900000D01*
X120380000Y-133100000D01*
X120380000Y-133100000D01*
G37*
G36*
X120370000Y-132900000D02*
X118390000Y-132900000D01*
X118460000Y-132700000D01*
X120300000Y-132700000D01*
X120370000Y-132900000D01*
X120370000Y-132900000D01*
G37*
G36*
X120300000Y-132700000D02*
X118460000Y-132700000D01*
X118570000Y-132500000D01*
X120190000Y-132500000D01*
X120300000Y-132700000D01*
X120300000Y-132700000D01*
G37*
G36*
X119990000Y-132300000D02*
X118770000Y-132300000D01*
X118940000Y-132200000D01*
X119820000Y-132200000D01*
X119990000Y-132300000D01*
X119990000Y-132300000D01*
G37*
G36*
X119820000Y-132200000D02*
X118940000Y-132200000D01*
X119240000Y-132100000D01*
X119520000Y-132100000D01*
X119820000Y-132200000D01*
X119820000Y-132200000D01*
G37*
G36*
X120190000Y-132500000D02*
X118570000Y-132500000D01*
X118770000Y-132300000D01*
X119990000Y-132300000D01*
X120190000Y-132500000D01*
X120190000Y-132500000D01*
G37*
G36*
X118940000Y-134500000D02*
X119820000Y-134500000D01*
X119520000Y-134600000D01*
X119240000Y-134600000D01*
X118940000Y-134500000D01*
X118940000Y-134500000D01*
G37*
G36*
X118380000Y-133600000D02*
X120380000Y-133600000D01*
X120370000Y-133800000D01*
X118390000Y-133800000D01*
X118380000Y-133600000D01*
X118380000Y-133600000D01*
G37*
G36*
X118390000Y-133800000D02*
X120370000Y-133800000D01*
X120300000Y-134000000D01*
X118460000Y-134000000D01*
X118390000Y-133800000D01*
X118390000Y-133800000D01*
G37*
G36*
X118460000Y-134000000D02*
X120300000Y-134000000D01*
X120190000Y-134200000D01*
X118570000Y-134200000D01*
X118460000Y-134000000D01*
X118460000Y-134000000D01*
G37*
G36*
X118770000Y-134400000D02*
X119990000Y-134400000D01*
X119820000Y-134500000D01*
X118940000Y-134500000D01*
X118770000Y-134400000D01*
X118770000Y-134400000D01*
G37*
G36*
X118570000Y-134200000D02*
X120190000Y-134200000D01*
X119990000Y-134400000D01*
X118770000Y-134400000D01*
X118570000Y-134200000D01*
X118570000Y-134200000D01*
G37*
G36*
X137035000Y-129040000D02*
X137035000Y-130040000D01*
X136935000Y-130035000D01*
X136935000Y-129045000D01*
X137035000Y-129040000D01*
X137035000Y-129040000D01*
G37*
G36*
X136935000Y-129045000D02*
X136935000Y-130035000D01*
X136835000Y-130000000D01*
X136835000Y-129080000D01*
X136935000Y-129045000D01*
X136935000Y-129045000D01*
G37*
G36*
X136835000Y-129080000D02*
X136835000Y-130000000D01*
X136735000Y-129945000D01*
X136735000Y-129135000D01*
X136835000Y-129080000D01*
X136835000Y-129080000D01*
G37*
G36*
X136635000Y-129235000D02*
X136635000Y-129845000D01*
X136585000Y-129760000D01*
X136585000Y-129320000D01*
X136635000Y-129235000D01*
X136635000Y-129235000D01*
G37*
G36*
X136585000Y-129320000D02*
X136585000Y-129760000D01*
X136535000Y-129610000D01*
X136535000Y-129470000D01*
X136585000Y-129320000D01*
X136585000Y-129320000D01*
G37*
G36*
X136735000Y-129135000D02*
X136735000Y-129945000D01*
X136635000Y-129845000D01*
X136635000Y-129235000D01*
X136735000Y-129135000D01*
X136735000Y-129135000D01*
G37*
G36*
X137685000Y-129845000D02*
X137685000Y-129235000D01*
X137735000Y-129320000D01*
X137735000Y-129760000D01*
X137685000Y-129845000D01*
X137685000Y-129845000D01*
G37*
G36*
X137735000Y-129760000D02*
X137735000Y-129320000D01*
X137785000Y-129470000D01*
X137785000Y-129610000D01*
X137735000Y-129760000D01*
X137735000Y-129760000D01*
G37*
G36*
X137585000Y-129945000D02*
X137585000Y-129135000D01*
X137685000Y-129235000D01*
X137685000Y-129845000D01*
X137585000Y-129945000D01*
X137585000Y-129945000D01*
G37*
G36*
X137485000Y-130000000D02*
X137485000Y-129080000D01*
X137585000Y-129135000D01*
X137585000Y-129945000D01*
X137485000Y-130000000D01*
X137485000Y-130000000D01*
G37*
G36*
X137385000Y-130035000D02*
X137385000Y-129045000D01*
X137485000Y-129080000D01*
X137485000Y-130000000D01*
X137385000Y-130035000D01*
X137385000Y-130035000D01*
G37*
G36*
X137285000Y-130040000D02*
X137285000Y-129040000D01*
X137385000Y-129045000D01*
X137385000Y-130035000D01*
X137285000Y-130040000D01*
X137285000Y-130040000D01*
G37*
G36*
X137035000Y-127135000D02*
X137035000Y-128135000D01*
X136935000Y-128130000D01*
X136935000Y-127140000D01*
X137035000Y-127135000D01*
X137035000Y-127135000D01*
G37*
G36*
X136935000Y-127140000D02*
X136935000Y-128130000D01*
X136835000Y-128095000D01*
X136835000Y-127175000D01*
X136935000Y-127140000D01*
X136935000Y-127140000D01*
G37*
G36*
X136835000Y-127175000D02*
X136835000Y-128095000D01*
X136735000Y-128040000D01*
X136735000Y-127230000D01*
X136835000Y-127175000D01*
X136835000Y-127175000D01*
G37*
G36*
X136635000Y-127330000D02*
X136635000Y-127940000D01*
X136585000Y-127855000D01*
X136585000Y-127415000D01*
X136635000Y-127330000D01*
X136635000Y-127330000D01*
G37*
G36*
X136585000Y-127415000D02*
X136585000Y-127855000D01*
X136535000Y-127705000D01*
X136535000Y-127565000D01*
X136585000Y-127415000D01*
X136585000Y-127415000D01*
G37*
G36*
X136735000Y-127230000D02*
X136735000Y-128040000D01*
X136635000Y-127940000D01*
X136635000Y-127330000D01*
X136735000Y-127230000D01*
X136735000Y-127230000D01*
G37*
G36*
X137685000Y-127940000D02*
X137685000Y-127330000D01*
X137735000Y-127415000D01*
X137735000Y-127855000D01*
X137685000Y-127940000D01*
X137685000Y-127940000D01*
G37*
G36*
X137735000Y-127855000D02*
X137735000Y-127415000D01*
X137785000Y-127565000D01*
X137785000Y-127705000D01*
X137735000Y-127855000D01*
X137735000Y-127855000D01*
G37*
G36*
X137585000Y-128040000D02*
X137585000Y-127230000D01*
X137685000Y-127330000D01*
X137685000Y-127940000D01*
X137585000Y-128040000D01*
X137585000Y-128040000D01*
G37*
G36*
X137485000Y-128095000D02*
X137485000Y-127175000D01*
X137585000Y-127230000D01*
X137585000Y-128040000D01*
X137485000Y-128095000D01*
X137485000Y-128095000D01*
G37*
G36*
X137385000Y-128130000D02*
X137385000Y-127140000D01*
X137485000Y-127175000D01*
X137485000Y-128095000D01*
X137385000Y-128130000D01*
X137385000Y-128130000D01*
G37*
G36*
X137285000Y-128135000D02*
X137285000Y-127135000D01*
X137385000Y-127140000D01*
X137385000Y-128130000D01*
X137285000Y-128135000D01*
X137285000Y-128135000D01*
G37*
G36*
X137035000Y-125230000D02*
X137035000Y-126230000D01*
X136935000Y-126225000D01*
X136935000Y-125235000D01*
X137035000Y-125230000D01*
X137035000Y-125230000D01*
G37*
G36*
X136935000Y-125235000D02*
X136935000Y-126225000D01*
X136835000Y-126190000D01*
X136835000Y-125270000D01*
X136935000Y-125235000D01*
X136935000Y-125235000D01*
G37*
G36*
X136835000Y-125270000D02*
X136835000Y-126190000D01*
X136735000Y-126135000D01*
X136735000Y-125325000D01*
X136835000Y-125270000D01*
X136835000Y-125270000D01*
G37*
G36*
X136635000Y-125425000D02*
X136635000Y-126035000D01*
X136585000Y-125950000D01*
X136585000Y-125510000D01*
X136635000Y-125425000D01*
X136635000Y-125425000D01*
G37*
G36*
X136585000Y-125510000D02*
X136585000Y-125950000D01*
X136535000Y-125800000D01*
X136535000Y-125660000D01*
X136585000Y-125510000D01*
X136585000Y-125510000D01*
G37*
G36*
X136735000Y-125325000D02*
X136735000Y-126135000D01*
X136635000Y-126035000D01*
X136635000Y-125425000D01*
X136735000Y-125325000D01*
X136735000Y-125325000D01*
G37*
G36*
X137685000Y-126035000D02*
X137685000Y-125425000D01*
X137735000Y-125510000D01*
X137735000Y-125950000D01*
X137685000Y-126035000D01*
X137685000Y-126035000D01*
G37*
G36*
X137735000Y-125950000D02*
X137735000Y-125510000D01*
X137785000Y-125660000D01*
X137785000Y-125800000D01*
X137735000Y-125950000D01*
X137735000Y-125950000D01*
G37*
G36*
X137585000Y-126135000D02*
X137585000Y-125325000D01*
X137685000Y-125425000D01*
X137685000Y-126035000D01*
X137585000Y-126135000D01*
X137585000Y-126135000D01*
G37*
G36*
X137485000Y-126190000D02*
X137485000Y-125270000D01*
X137585000Y-125325000D01*
X137585000Y-126135000D01*
X137485000Y-126190000D01*
X137485000Y-126190000D01*
G37*
G36*
X137385000Y-126225000D02*
X137385000Y-125235000D01*
X137485000Y-125270000D01*
X137485000Y-126190000D01*
X137385000Y-126225000D01*
X137385000Y-126225000D01*
G37*
G36*
X137285000Y-126230000D02*
X137285000Y-125230000D01*
X137385000Y-125235000D01*
X137385000Y-126225000D01*
X137285000Y-126230000D01*
X137285000Y-126230000D01*
G37*
D16*
X148270000Y-136159240D03*
X146370000Y-136159240D03*
X147320000Y-138158220D03*
X133030000Y-137429240D03*
X131130000Y-137429240D03*
X132080000Y-139428220D03*
X117790000Y-137429240D03*
X115890000Y-137429240D03*
X116840000Y-139428220D03*
X143195000Y-126730760D03*
X145095000Y-126730760D03*
X144145000Y-124731780D03*
D13*
X108900000Y-140335000D03*
X107000000Y-140335000D03*
D10*
G36*
X116965000Y-126230000D02*
X116965000Y-125230000D01*
X117065000Y-125235000D01*
X117065000Y-126225000D01*
X116965000Y-126230000D01*
X116965000Y-126230000D01*
G37*
G36*
X117065000Y-126225000D02*
X117065000Y-125235000D01*
X117165000Y-125270000D01*
X117165000Y-126190000D01*
X117065000Y-126225000D01*
X117065000Y-126225000D01*
G37*
G36*
X117165000Y-126190000D02*
X117165000Y-125270000D01*
X117265000Y-125325000D01*
X117265000Y-126135000D01*
X117165000Y-126190000D01*
X117165000Y-126190000D01*
G37*
G36*
X117365000Y-126035000D02*
X117365000Y-125425000D01*
X117415000Y-125510000D01*
X117415000Y-125950000D01*
X117365000Y-126035000D01*
X117365000Y-126035000D01*
G37*
G36*
X117415000Y-125950000D02*
X117415000Y-125510000D01*
X117465000Y-125660000D01*
X117465000Y-125800000D01*
X117415000Y-125950000D01*
X117415000Y-125950000D01*
G37*
G36*
X117265000Y-126135000D02*
X117265000Y-125325000D01*
X117365000Y-125425000D01*
X117365000Y-126035000D01*
X117265000Y-126135000D01*
X117265000Y-126135000D01*
G37*
G36*
X116315000Y-125425000D02*
X116315000Y-126035000D01*
X116265000Y-125950000D01*
X116265000Y-125510000D01*
X116315000Y-125425000D01*
X116315000Y-125425000D01*
G37*
G36*
X116265000Y-125510000D02*
X116265000Y-125950000D01*
X116215000Y-125800000D01*
X116215000Y-125660000D01*
X116265000Y-125510000D01*
X116265000Y-125510000D01*
G37*
G36*
X116415000Y-125325000D02*
X116415000Y-126135000D01*
X116315000Y-126035000D01*
X116315000Y-125425000D01*
X116415000Y-125325000D01*
X116415000Y-125325000D01*
G37*
G36*
X116515000Y-125270000D02*
X116515000Y-126190000D01*
X116415000Y-126135000D01*
X116415000Y-125325000D01*
X116515000Y-125270000D01*
X116515000Y-125270000D01*
G37*
G36*
X116615000Y-125235000D02*
X116615000Y-126225000D01*
X116515000Y-126190000D01*
X116515000Y-125270000D01*
X116615000Y-125235000D01*
X116615000Y-125235000D01*
G37*
G36*
X116715000Y-125230000D02*
X116715000Y-126230000D01*
X116615000Y-126225000D01*
X116615000Y-125235000D01*
X116715000Y-125230000D01*
X116715000Y-125230000D01*
G37*
G36*
X116965000Y-128135000D02*
X116965000Y-127135000D01*
X117065000Y-127140000D01*
X117065000Y-128130000D01*
X116965000Y-128135000D01*
X116965000Y-128135000D01*
G37*
G36*
X117065000Y-128130000D02*
X117065000Y-127140000D01*
X117165000Y-127175000D01*
X117165000Y-128095000D01*
X117065000Y-128130000D01*
X117065000Y-128130000D01*
G37*
G36*
X117165000Y-128095000D02*
X117165000Y-127175000D01*
X117265000Y-127230000D01*
X117265000Y-128040000D01*
X117165000Y-128095000D01*
X117165000Y-128095000D01*
G37*
G36*
X117365000Y-127940000D02*
X117365000Y-127330000D01*
X117415000Y-127415000D01*
X117415000Y-127855000D01*
X117365000Y-127940000D01*
X117365000Y-127940000D01*
G37*
G36*
X117415000Y-127855000D02*
X117415000Y-127415000D01*
X117465000Y-127565000D01*
X117465000Y-127705000D01*
X117415000Y-127855000D01*
X117415000Y-127855000D01*
G37*
G36*
X117265000Y-128040000D02*
X117265000Y-127230000D01*
X117365000Y-127330000D01*
X117365000Y-127940000D01*
X117265000Y-128040000D01*
X117265000Y-128040000D01*
G37*
G36*
X116315000Y-127330000D02*
X116315000Y-127940000D01*
X116265000Y-127855000D01*
X116265000Y-127415000D01*
X116315000Y-127330000D01*
X116315000Y-127330000D01*
G37*
G36*
X116265000Y-127415000D02*
X116265000Y-127855000D01*
X116215000Y-127705000D01*
X116215000Y-127565000D01*
X116265000Y-127415000D01*
X116265000Y-127415000D01*
G37*
G36*
X116415000Y-127230000D02*
X116415000Y-128040000D01*
X116315000Y-127940000D01*
X116315000Y-127330000D01*
X116415000Y-127230000D01*
X116415000Y-127230000D01*
G37*
G36*
X116515000Y-127175000D02*
X116515000Y-128095000D01*
X116415000Y-128040000D01*
X116415000Y-127230000D01*
X116515000Y-127175000D01*
X116515000Y-127175000D01*
G37*
G36*
X116615000Y-127140000D02*
X116615000Y-128130000D01*
X116515000Y-128095000D01*
X116515000Y-127175000D01*
X116615000Y-127140000D01*
X116615000Y-127140000D01*
G37*
G36*
X116715000Y-127135000D02*
X116715000Y-128135000D01*
X116615000Y-128130000D01*
X116615000Y-127140000D01*
X116715000Y-127135000D01*
X116715000Y-127135000D01*
G37*
G36*
X116965000Y-130040000D02*
X116965000Y-129040000D01*
X117065000Y-129045000D01*
X117065000Y-130035000D01*
X116965000Y-130040000D01*
X116965000Y-130040000D01*
G37*
G36*
X117065000Y-130035000D02*
X117065000Y-129045000D01*
X117165000Y-129080000D01*
X117165000Y-130000000D01*
X117065000Y-130035000D01*
X117065000Y-130035000D01*
G37*
G36*
X117165000Y-130000000D02*
X117165000Y-129080000D01*
X117265000Y-129135000D01*
X117265000Y-129945000D01*
X117165000Y-130000000D01*
X117165000Y-130000000D01*
G37*
G36*
X117365000Y-129845000D02*
X117365000Y-129235000D01*
X117415000Y-129320000D01*
X117415000Y-129760000D01*
X117365000Y-129845000D01*
X117365000Y-129845000D01*
G37*
G36*
X117415000Y-129760000D02*
X117415000Y-129320000D01*
X117465000Y-129470000D01*
X117465000Y-129610000D01*
X117415000Y-129760000D01*
X117415000Y-129760000D01*
G37*
G36*
X117265000Y-129945000D02*
X117265000Y-129135000D01*
X117365000Y-129235000D01*
X117365000Y-129845000D01*
X117265000Y-129945000D01*
X117265000Y-129945000D01*
G37*
G36*
X116315000Y-129235000D02*
X116315000Y-129845000D01*
X116265000Y-129760000D01*
X116265000Y-129320000D01*
X116315000Y-129235000D01*
X116315000Y-129235000D01*
G37*
G36*
X116265000Y-129320000D02*
X116265000Y-129760000D01*
X116215000Y-129610000D01*
X116215000Y-129470000D01*
X116265000Y-129320000D01*
X116265000Y-129320000D01*
G37*
G36*
X116415000Y-129135000D02*
X116415000Y-129945000D01*
X116315000Y-129845000D01*
X116315000Y-129235000D01*
X116415000Y-129135000D01*
X116415000Y-129135000D01*
G37*
G36*
X116515000Y-129080000D02*
X116515000Y-130000000D01*
X116415000Y-129945000D01*
X116415000Y-129135000D01*
X116515000Y-129080000D01*
X116515000Y-129080000D01*
G37*
G36*
X116615000Y-129045000D02*
X116615000Y-130035000D01*
X116515000Y-130000000D01*
X116515000Y-129080000D01*
X116615000Y-129045000D01*
X116615000Y-129045000D01*
G37*
G36*
X116715000Y-129040000D02*
X116715000Y-130040000D01*
X116615000Y-130035000D01*
X116615000Y-129045000D01*
X116715000Y-129040000D01*
X116715000Y-129040000D01*
G37*
D14*
X106256000Y-115316000D03*
X104056000Y-115316000D03*
X106256000Y-117348000D03*
X104056000Y-117348000D03*
X106850000Y-142240000D03*
X109050000Y-142240000D03*
X109050000Y-138430000D03*
X106850000Y-138430000D03*
D17*
X101079300Y-125984000D03*
X99580700Y-125984000D03*
X101079300Y-128016000D03*
X99580700Y-128016000D03*
D18*
X127000000Y-127000000D03*
D10*
G36*
X131545443Y-111507062D02*
X135355443Y-104907948D01*
X141954557Y-108717948D01*
X138144557Y-115317062D01*
X131545443Y-111507062D01*
X131545443Y-111507062D01*
G37*
D16*
X125410000Y-137429240D03*
X123510000Y-137429240D03*
X124460000Y-139428220D03*
D10*
G36*
X109670976Y-108345249D02*
X108990976Y-107167455D01*
X110168770Y-106487455D01*
X110848770Y-107665249D01*
X109670976Y-108345249D01*
X109670976Y-108345249D01*
G37*
D19*
X110919873Y-109148403D02*
X110919873Y-109148403D01*
X111651924Y-106416352D02*
X111651924Y-106416352D01*
X112651924Y-108148403D02*
X112651924Y-108148403D01*
X113383975Y-105416352D02*
X113383975Y-105416352D01*
X114383975Y-107148403D02*
X114383975Y-107148403D01*
X115116025Y-104416352D02*
X115116025Y-104416352D01*
X116116025Y-106148403D02*
X116116025Y-106148403D01*
X116848076Y-103416352D02*
X116848076Y-103416352D01*
X117848076Y-105148403D02*
X117848076Y-105148403D01*
X118580127Y-102416352D02*
X118580127Y-102416352D01*
X119580127Y-104148403D02*
X119580127Y-104148403D01*
D10*
G36*
X119509024Y-151334751D02*
X118829024Y-152512545D01*
X117651230Y-151832545D01*
X118331230Y-150654751D01*
X119509024Y-151334751D01*
X119509024Y-151334751D01*
G37*
D19*
X119580127Y-149851597D02*
X119580127Y-149851597D01*
X116848076Y-150583648D02*
X116848076Y-150583648D01*
X117848076Y-148851597D02*
X117848076Y-148851597D01*
X115116025Y-149583648D02*
X115116025Y-149583648D01*
X116116025Y-147851597D02*
X116116025Y-147851597D01*
X113383975Y-148583648D02*
X113383975Y-148583648D01*
X114383975Y-146851597D02*
X114383975Y-146851597D01*
X111651924Y-147583648D02*
X111651924Y-147583648D01*
X112651924Y-145851597D02*
X112651924Y-145851597D01*
X109919873Y-146583648D02*
X109919873Y-146583648D01*
X110919873Y-144851597D02*
X110919873Y-144851597D01*
D20*
X152500000Y-122000000D03*
D21*
X150500000Y-122000000D03*
X152500000Y-124000000D03*
X150500000Y-124000000D03*
X152500000Y-126000000D03*
X150500000Y-126000000D03*
X152500000Y-128000000D03*
X150500000Y-128000000D03*
X152500000Y-130000000D03*
X150500000Y-130000000D03*
X152500000Y-132000000D03*
X150500000Y-132000000D03*
D22*
X130638020Y-153153045D03*
X123412860Y-153203928D03*
X130485376Y-100694310D03*
X123209334Y-100694310D03*
X125095000Y-129540000D03*
X130810000Y-130810000D03*
X115046609Y-152060256D03*
X148488777Y-142849290D03*
X143531937Y-148393610D03*
X137436860Y-151845037D03*
X148590000Y-111125000D03*
X152400000Y-116840000D03*
X103693497Y-135028930D03*
X107315000Y-137160000D03*
X113030000Y-102870000D03*
X106045000Y-108585000D03*
X102870000Y-113665000D03*
X99695000Y-121285000D03*
X99695000Y-132715000D03*
X102235000Y-140335000D03*
X152534899Y-137037661D03*
X143510000Y-105410000D03*
X137795000Y-102235000D03*
X123190000Y-108585000D03*
X121920000Y-108585000D03*
X146685000Y-132715000D03*
X146050000Y-132080000D03*
X145415000Y-131445000D03*
X122555000Y-140970000D03*
X123825000Y-141605000D03*
X125095000Y-142240000D03*
X132080000Y-133985000D03*
X130810000Y-133985000D03*
X129540000Y-133985000D03*
X123190000Y-135255000D03*
X125095000Y-135255000D03*
X132715000Y-129540000D03*
X128905000Y-129540000D03*
X130810000Y-127635000D03*
X139074020Y-123116907D03*
X134811339Y-122764338D03*
X110806730Y-142217946D03*
X120646764Y-135228148D03*
X135890000Y-126365000D03*
X123828950Y-113995093D03*
X120680403Y-126716513D03*
X112570514Y-139513559D03*
X122084379Y-109657430D03*
X104140000Y-120015000D03*
X121262221Y-106497006D03*
X117112362Y-112192514D03*
X118250020Y-107315000D03*
X114937348Y-132891304D03*
X119204339Y-122892064D03*
X111960756Y-140361966D03*
X119743150Y-122105658D03*
X118739305Y-126276499D03*
X110798882Y-140787089D03*
X118110000Y-127000000D03*
X119799705Y-123650829D03*
X115570000Y-132080000D03*
X115621223Y-123412063D03*
X119806976Y-119488799D03*
X116652797Y-123414291D03*
X120508858Y-120129020D03*
X121637595Y-116501343D03*
X115405048Y-122420069D03*
X120399970Y-125166473D03*
X121920000Y-121920000D03*
X125130047Y-121920000D03*
X116205000Y-124460000D03*
X112812722Y-112025711D03*
X125730000Y-122770011D03*
X132369848Y-120544968D03*
X139602274Y-119444950D03*
X133398963Y-119331037D03*
X119520020Y-128868304D03*
X125286150Y-114734873D03*
X133222461Y-117181007D03*
X131445000Y-117475000D03*
X132407051Y-116332739D03*
X127820103Y-116137004D03*
X127436159Y-115156256D03*
X126827135Y-113806917D03*
X116840000Y-134620000D03*
X120396000Y-140208000D03*
X125476000Y-112776000D03*
X120883288Y-129617642D03*
X125285830Y-115684873D03*
X113460424Y-138729054D03*
X137544773Y-135254059D03*
X135680865Y-129119305D03*
X128948882Y-121314298D03*
X125897849Y-114004272D03*
X134948443Y-118744940D03*
X140399230Y-118764535D03*
X141605000Y-133985000D03*
X141605000Y-131445000D03*
D23*
X130587137Y-153203928D02*
X130638020Y-153153045D01*
X123412860Y-153203928D02*
X130587137Y-153203928D01*
X122946788Y-153670000D02*
X123112861Y-153503927D01*
X116656353Y-153670000D02*
X122946788Y-153670000D01*
X123112861Y-153503927D02*
X123412860Y-153203928D01*
X115046609Y-152060256D02*
X116656353Y-153670000D01*
X123209334Y-100694310D02*
X130485376Y-100694310D01*
X122785070Y-100694310D02*
X123209334Y-100694310D01*
X120302169Y-100694310D02*
X122785070Y-100694310D01*
X118580127Y-102416352D02*
X120302169Y-100694310D01*
X120345000Y-138430000D02*
X120345000Y-138760000D01*
X120345000Y-138760000D02*
X122555000Y-140970000D01*
X129220000Y-137160000D02*
X129220000Y-134305000D01*
X123025000Y-129250000D02*
X124805000Y-129250000D01*
X124805000Y-129250000D02*
X125095000Y-129540000D01*
X130975000Y-129250000D02*
X130975000Y-130645000D01*
X130975000Y-130645000D02*
X130810000Y-130810000D01*
X148590000Y-111125000D02*
X148590000Y-110490000D01*
X148590000Y-110490000D02*
X143510000Y-105410000D01*
X154305000Y-131285000D02*
X154305000Y-118745000D01*
X154305000Y-118745000D02*
X152400000Y-116840000D01*
X153590000Y-132000000D02*
X154305000Y-131285000D01*
X152500000Y-132000000D02*
X153590000Y-132000000D01*
X103284566Y-134620000D02*
X103393498Y-134728931D01*
X103393498Y-134728931D02*
X103693497Y-135028930D01*
X102235000Y-134620000D02*
X103284566Y-134620000D01*
X106850000Y-138430000D02*
X106850000Y-137625000D01*
X106850000Y-137625000D02*
X107315000Y-137160000D01*
X107000000Y-140335000D02*
X107000000Y-138580000D01*
X107000000Y-138580000D02*
X106850000Y-138430000D01*
X118580127Y-102416352D02*
X117848076Y-102416352D01*
X117848076Y-102416352D02*
X116848076Y-103416352D01*
X113665000Y-102235000D02*
X115666724Y-102235000D01*
X115666724Y-102235000D02*
X116848076Y-103416352D01*
X113030000Y-102870000D02*
X113665000Y-102235000D01*
X106045000Y-110490000D02*
X106045000Y-108585000D01*
X102870000Y-113665000D02*
X106045000Y-110490000D01*
X99580700Y-125984000D02*
X99580700Y-121399300D01*
X99580700Y-121399300D02*
X99695000Y-121285000D01*
X99695000Y-132715000D02*
X99695000Y-128130300D01*
X99695000Y-128130300D02*
X99580700Y-128016000D01*
X102235000Y-134620000D02*
X101600000Y-134620000D01*
X101600000Y-134620000D02*
X99695000Y-132715000D01*
X102235000Y-140335000D02*
X102235000Y-134620000D01*
X151656478Y-136159240D02*
X152534899Y-137037661D01*
X148270000Y-136159240D02*
X151656478Y-136159240D01*
X152500000Y-137002762D02*
X152534899Y-137037661D01*
X152500000Y-132000000D02*
X152500000Y-137002762D01*
X137795000Y-102235000D02*
X140335000Y-102235000D01*
X140335000Y-102235000D02*
X143510000Y-105410000D01*
X120777000Y-108585000D02*
X121920000Y-108585000D01*
X120051751Y-109310249D02*
X120777000Y-108585000D01*
X146050000Y-132080000D02*
X146685000Y-132715000D01*
X145245000Y-129540000D02*
X145245000Y-131275000D01*
X145245000Y-131275000D02*
X145415000Y-131445000D01*
X123825000Y-141605000D02*
X123190000Y-141605000D01*
X123190000Y-141605000D02*
X122555000Y-140970000D01*
X125095000Y-142240000D02*
X124460000Y-142240000D01*
X124460000Y-142240000D02*
X123825000Y-141605000D01*
X129220000Y-138115000D02*
X125095000Y-142240000D01*
X129220000Y-137160000D02*
X129220000Y-138115000D01*
X129220000Y-134305000D02*
X129540000Y-133985000D01*
X120345000Y-138430000D02*
X125059290Y-138430000D01*
X125059290Y-138430000D02*
X125410000Y-138079290D01*
X125410000Y-138079290D02*
X125410000Y-137429240D01*
X119700000Y-137160000D02*
X119700000Y-137785000D01*
X119700000Y-137785000D02*
X120345000Y-138430000D01*
X125410000Y-137429240D02*
X125410000Y-135570000D01*
X125410000Y-135570000D02*
X125095000Y-135255000D01*
X130975000Y-129250000D02*
X132425000Y-129250000D01*
X132425000Y-129250000D02*
X132715000Y-129540000D01*
X130975000Y-129250000D02*
X129195000Y-129250000D01*
X129195000Y-129250000D02*
X128905000Y-129540000D01*
X130975000Y-129250000D02*
X130975000Y-127800000D01*
X130975000Y-127800000D02*
X130810000Y-127635000D01*
X122303324Y-111716268D02*
X120051751Y-109464695D01*
X120051751Y-109464695D02*
X120051751Y-109310249D01*
X122972789Y-113299805D02*
X122972789Y-112385733D01*
X122305627Y-113517103D02*
X122755491Y-113517103D01*
X122755491Y-113517103D02*
X122972789Y-113299805D01*
X122972789Y-112385733D02*
X122303324Y-111716268D01*
X127748047Y-118292361D02*
X127078583Y-117622897D01*
X127078583Y-117622897D02*
X126083279Y-117622897D01*
X126083279Y-117622897D02*
X122809125Y-114348743D01*
X122809125Y-114348743D02*
X122809125Y-114020601D01*
X122809125Y-114020601D02*
X122305627Y-113517103D01*
X108608647Y-145903649D02*
X105774999Y-143070001D01*
X106775000Y-140335000D02*
X107000000Y-140335000D01*
X109239874Y-145903649D02*
X108608647Y-145903649D01*
X109919873Y-146583648D02*
X109239874Y-145903649D01*
X105774999Y-141335001D02*
X106775000Y-140335000D01*
X105774999Y-143070001D02*
X105774999Y-141335001D01*
X121171953Y-112847639D02*
X121841417Y-113517103D01*
X121841417Y-113517103D02*
X122305627Y-113517103D01*
D24*
X127000000Y-138655000D02*
X127000000Y-137676939D01*
X127000000Y-137676939D02*
X127000000Y-134100000D01*
D23*
X127320000Y-137160000D02*
X127320000Y-137356939D01*
X127320000Y-137356939D02*
X127000000Y-137676939D01*
D24*
X126226780Y-139428220D02*
X127000000Y-138655000D01*
X124460000Y-139428220D02*
X126226780Y-139428220D01*
X134620000Y-132600000D02*
X127000000Y-132600000D01*
X144019145Y-132608335D02*
X134811665Y-132608335D01*
X134803330Y-132600000D02*
X134620000Y-132600000D01*
X134811665Y-132608335D02*
X134803330Y-132600000D01*
X144019145Y-132608335D02*
X146370000Y-134959190D01*
D23*
X142070000Y-135890000D02*
X146100760Y-135890000D01*
X146100760Y-135890000D02*
X146370000Y-136159240D01*
D24*
X147979190Y-133350000D02*
X149150000Y-133350000D01*
X149150000Y-133350000D02*
X150500000Y-132000000D01*
X146370000Y-136159240D02*
X146370000Y-134959190D01*
X146370000Y-134959190D02*
X147979190Y-133350000D01*
D23*
X126050990Y-119989417D02*
X122358200Y-116296627D01*
X122358200Y-116296627D02*
X122358200Y-115838476D01*
X122358200Y-115838476D02*
X121302430Y-114782706D01*
X121302430Y-114782706D02*
X121302430Y-114109486D01*
X121302430Y-114109486D02*
X120606268Y-113413324D01*
X134385677Y-123190000D02*
X134811339Y-122764338D01*
X140270927Y-121920000D02*
X139074020Y-123116907D01*
X126050990Y-119989417D02*
X126930019Y-120868446D01*
X121600000Y-133855000D02*
X121774999Y-133680001D01*
X121774999Y-133680001D02*
X121774999Y-123719999D01*
X121774999Y-123719999D02*
X121869999Y-123624999D01*
X121869999Y-123624999D02*
X125930001Y-123624999D01*
X125930001Y-123624999D02*
X126365000Y-123190000D01*
D25*
X121600000Y-133855000D02*
X121983443Y-134238443D01*
X121983443Y-136776557D02*
X121600000Y-137160000D01*
X121983443Y-134238443D02*
X121983443Y-136776557D01*
D23*
X143045000Y-121920000D02*
X140270927Y-121920000D01*
X133180000Y-121920000D02*
X133967001Y-121920000D01*
X133967001Y-121920000D02*
X134811339Y-122764338D01*
X126365000Y-123190000D02*
X134385677Y-123190000D01*
X117475000Y-106680000D02*
X117475000Y-109420502D01*
X117475000Y-109420502D02*
X118708249Y-110653751D01*
X117848076Y-106306924D02*
X117475000Y-106680000D01*
X117848076Y-105148403D02*
X117848076Y-106306924D01*
X119179498Y-111125000D02*
X120580686Y-111125000D01*
X120580686Y-111125000D02*
X121737639Y-112281953D01*
X119179498Y-111125000D02*
X119179498Y-111986554D01*
X119179498Y-111986554D02*
X120606268Y-113413324D01*
X118708249Y-110653751D02*
X119179498Y-111125000D01*
X126930019Y-122624981D02*
X126930019Y-120868446D01*
X126365000Y-123190000D02*
X126930019Y-122624981D01*
D25*
X120345000Y-132600000D02*
X121600000Y-133855000D01*
X119380000Y-132600000D02*
X120345000Y-132600000D01*
X123459240Y-137429240D02*
X123190000Y-137160000D01*
X123190000Y-137160000D02*
X121600000Y-137160000D01*
X123510000Y-137429240D02*
X123459240Y-137429240D01*
D23*
X142940810Y-127635000D02*
X137460010Y-127635000D01*
X142940810Y-127635000D02*
X143045000Y-127739190D01*
X143045000Y-127739190D02*
X143045000Y-129540000D01*
X143195000Y-127380810D02*
X143195000Y-126730760D01*
X142940810Y-127635000D02*
X143195000Y-127380810D01*
D26*
X116050760Y-137429240D02*
X115890000Y-137429240D01*
X119380000Y-134100000D02*
X116050760Y-137429240D01*
X113250224Y-142217946D02*
X110806730Y-142217946D01*
X116039950Y-139428220D02*
X113250224Y-142217946D01*
X116840000Y-139428220D02*
X116039950Y-139428220D01*
D23*
X119341042Y-135228148D02*
X120646764Y-135228148D01*
X117790000Y-136779190D02*
X119341042Y-135228148D01*
X117790000Y-137429240D02*
X117790000Y-136779190D01*
X137795000Y-126682500D02*
X138430000Y-126047500D01*
X138430000Y-126047500D02*
X138430000Y-125730000D01*
X138430000Y-125730000D02*
X137460010Y-125730000D01*
X138430000Y-125730000D02*
X140970000Y-123190000D01*
X140970000Y-123190000D02*
X144780000Y-123190000D01*
X144780000Y-123190000D02*
X145245000Y-122725000D01*
X145245000Y-122725000D02*
X145245000Y-121920000D01*
X137795000Y-126682500D02*
X136207500Y-126682500D01*
X136207500Y-126682500D02*
X135890000Y-126365000D01*
X142709552Y-140824449D02*
X142470098Y-140584995D01*
D24*
X147320000Y-138158220D02*
X147320000Y-139358270D01*
X146978270Y-139700000D02*
X143355093Y-139700000D01*
X147320000Y-139358270D02*
X146978270Y-139700000D01*
X143355093Y-139700000D02*
X142470098Y-140584995D01*
X130899897Y-147320000D02*
X131029902Y-147189995D01*
D23*
X120680403Y-128766877D02*
X120680403Y-126716513D01*
X112570514Y-139513559D02*
X112570514Y-136876766D01*
X112570514Y-136876766D02*
X120680403Y-128766877D01*
X123434695Y-110584897D02*
X124104160Y-111254362D01*
X123596227Y-113760219D02*
X123828950Y-113992942D01*
X123596227Y-112226504D02*
X123596227Y-113760219D01*
X124104160Y-111718571D02*
X123596227Y-112226504D01*
X124104160Y-111254362D02*
X124104160Y-111718571D01*
X123828950Y-113992942D02*
X123828950Y-113995093D01*
X122084379Y-110365952D02*
X122084379Y-109657430D01*
X115116025Y-149583648D02*
X114788967Y-149910706D01*
X114788967Y-149910706D02*
X110540706Y-149910706D01*
X110540706Y-149910706D02*
X104230001Y-143600001D01*
X104230001Y-136430686D02*
X105087631Y-135573056D01*
X104230001Y-143600001D02*
X104230001Y-136430686D01*
X102977372Y-121177628D02*
X104140000Y-120015000D01*
X105087631Y-135573056D02*
X105087631Y-134461729D01*
X105087631Y-134461729D02*
X102977372Y-132351470D01*
X102977372Y-132351470D02*
X102977372Y-121177628D01*
X122869010Y-111150583D02*
X122084379Y-110365952D01*
X118254087Y-112192514D02*
X117112362Y-112192514D01*
X125522233Y-106497006D02*
X121262221Y-106497006D01*
X136859990Y-117834763D02*
X125522233Y-106497006D01*
X136859990Y-125704990D02*
X136859990Y-117834763D01*
X120040583Y-113979010D02*
X118254087Y-112192514D01*
X135010430Y-124714260D02*
X135010430Y-127519991D01*
X135125439Y-127635000D02*
X136859990Y-127635000D01*
X136234990Y-123489700D02*
X135010430Y-124714260D01*
X136234990Y-117987593D02*
X136234990Y-123489700D01*
X118250020Y-107315000D02*
X125562397Y-107315000D01*
X125562397Y-107315000D02*
X136234990Y-117987593D01*
X135010430Y-127519991D02*
X135125439Y-127635000D01*
X119474897Y-114544695D02*
X118498624Y-113568422D01*
X118498624Y-113568422D02*
X116614188Y-113568422D01*
X116614188Y-113568422D02*
X116116025Y-113070259D01*
X116116025Y-113070259D02*
X116116025Y-106148403D01*
X111660757Y-136167895D02*
X114937348Y-132891304D01*
X111660757Y-140061967D02*
X111660757Y-136167895D01*
X111960756Y-140361966D02*
X111660757Y-140061967D01*
X119474897Y-116595305D02*
X117831936Y-118238266D01*
X118904340Y-121379313D02*
X118904340Y-122592065D01*
X117831936Y-120306909D02*
X118904340Y-121379313D01*
X117831936Y-118238266D02*
X117831936Y-120306909D01*
X118904340Y-122592065D02*
X119204339Y-122892064D01*
X119743150Y-121369581D02*
X119743150Y-122105658D01*
X117804981Y-128575019D02*
X116292261Y-128575019D01*
X108977280Y-135890000D02*
X106934000Y-135890000D01*
X105174990Y-137649010D02*
X105174990Y-143507550D01*
X105174990Y-143507550D02*
X110806079Y-149138639D01*
X110806079Y-149138639D02*
X111867319Y-149138639D01*
X116292261Y-128575019D02*
X108977280Y-135890000D01*
X106934000Y-135890000D02*
X105174990Y-137649010D01*
X111867319Y-149138639D02*
X112422310Y-148583648D01*
X112422310Y-148583648D02*
X113383975Y-148583648D01*
X118192806Y-125730000D02*
X117140010Y-125730000D01*
X120040583Y-117160990D02*
X118431946Y-118769627D01*
X118431946Y-120058377D02*
X119743150Y-121369581D01*
X118431946Y-118769627D02*
X118431946Y-120058377D01*
X119039304Y-127340696D02*
X117804981Y-128575019D01*
X119039304Y-126576498D02*
X119039304Y-127340696D01*
X118739305Y-126276499D02*
X119039304Y-126576498D01*
X118192806Y-125730000D02*
X118739305Y-126276499D01*
X110798882Y-135886735D02*
X110798882Y-140787089D01*
X115570000Y-132080000D02*
X114605617Y-132080000D01*
X114605617Y-132080000D02*
X110798882Y-135886735D01*
X117475000Y-127635000D02*
X117140010Y-127635000D01*
X120606268Y-117726676D02*
X119619146Y-118713798D01*
X119434954Y-118713798D02*
X119031956Y-119116796D01*
X119619146Y-118713798D02*
X119434954Y-118713798D01*
X119974971Y-123475563D02*
X119799705Y-123650829D01*
X119031956Y-119809845D02*
X120518151Y-121296040D01*
X119031956Y-119116796D02*
X119031956Y-119809845D01*
X120518151Y-121296040D02*
X120518151Y-122431223D01*
X119974972Y-122974404D02*
X119974971Y-123475563D01*
X120518151Y-122431223D02*
X119974972Y-122974404D01*
X117475000Y-127635000D02*
X118110000Y-127000000D01*
X115921222Y-123112064D02*
X115621223Y-123412063D01*
X116178951Y-122854335D02*
X115921222Y-123112064D01*
X111944284Y-117864382D02*
X116178951Y-122099049D01*
X109919873Y-107416352D02*
X109351369Y-107984856D01*
X109351369Y-107984856D02*
X109351369Y-111598179D01*
X109351369Y-111598179D02*
X111944284Y-114191093D01*
X111944284Y-114191093D02*
X111944284Y-117864382D01*
X116178951Y-122099049D02*
X116178951Y-122854335D01*
X119975515Y-119488799D02*
X119806976Y-119488799D01*
X121171953Y-118292361D02*
X119975515Y-119488799D01*
X116952796Y-122024352D02*
X116952796Y-123114292D01*
X112494294Y-117565850D02*
X116952796Y-122024352D01*
X112494294Y-113963272D02*
X112494294Y-117565850D01*
X110919873Y-109148403D02*
X110919873Y-112388852D01*
X116952796Y-123114292D02*
X116652797Y-123414291D01*
X110919873Y-112388852D02*
X112494294Y-113963272D01*
X121737639Y-118858047D02*
X120508858Y-120086828D01*
X120508858Y-120086828D02*
X120508858Y-120129020D01*
X121937594Y-116801342D02*
X121637595Y-116501343D01*
X122939719Y-118787337D02*
X122939719Y-117803467D01*
X122303324Y-119423732D02*
X122939719Y-118787337D01*
X122939719Y-117803467D02*
X121937594Y-116801342D01*
X108515966Y-106970699D02*
X108515966Y-111540607D01*
X108515966Y-111540607D02*
X111394274Y-114418914D01*
X110971925Y-105736353D02*
X109750312Y-105736353D01*
X115405048Y-122192340D02*
X115405048Y-122420069D01*
X111394274Y-114418914D02*
X111394274Y-118181566D01*
X109750312Y-105736353D02*
X108515966Y-106970699D01*
X111651924Y-106416352D02*
X110971925Y-105736353D01*
X111394274Y-118181566D02*
X115405048Y-122192340D01*
X118196104Y-123298492D02*
X119764086Y-124866474D01*
X119764086Y-124866474D02*
X120099971Y-124866474D01*
X120099971Y-124866474D02*
X120399970Y-125166473D01*
X118196104Y-121519619D02*
X118196104Y-123298492D01*
X113600071Y-109096550D02*
X113600071Y-116923586D01*
X113600071Y-116923586D02*
X118196104Y-121519619D01*
X112651924Y-108148403D02*
X113600071Y-109096550D01*
X122869010Y-119989417D02*
X121713428Y-121144999D01*
X121713428Y-121144999D02*
X121547999Y-121144999D01*
X121547999Y-121144999D02*
X121144999Y-121547999D01*
X121144999Y-121547999D02*
X121144999Y-122652917D01*
X121144999Y-122652917D02*
X120574981Y-123222935D01*
X120399970Y-125127747D02*
X120399970Y-125166473D01*
X120574981Y-123222935D02*
X120574981Y-124952736D01*
X120574981Y-124952736D02*
X120399970Y-125127747D01*
X113383975Y-105416352D02*
X112703976Y-104736353D01*
X112703976Y-104736353D02*
X109901770Y-104736353D01*
X109901770Y-104736353D02*
X107947310Y-106690813D01*
X107947310Y-106690813D02*
X107947310Y-111749781D01*
X107947310Y-111749781D02*
X110844264Y-114646735D01*
X110844264Y-114646735D02*
X110844264Y-118409387D01*
X110844264Y-118409387D02*
X114680028Y-122245150D01*
X114680028Y-122245150D02*
X114680028Y-123748955D01*
X114680028Y-123748955D02*
X115391073Y-124460000D01*
X115391073Y-124460000D02*
X115780736Y-124460000D01*
X115780736Y-124460000D02*
X116205000Y-124460000D01*
X121920000Y-121920000D02*
X122069798Y-121920000D01*
X122069798Y-121920000D02*
X123434695Y-120555103D01*
X123434695Y-120555103D02*
X124799592Y-121920000D01*
X124799592Y-121920000D02*
X125130047Y-121920000D01*
X126121700Y-122378311D02*
X125730000Y-122770011D01*
X112812722Y-112449975D02*
X112812722Y-112025711D01*
X113046254Y-117218311D02*
X113046254Y-112683507D01*
X117596094Y-121768151D02*
X113046254Y-117218311D01*
X117596094Y-123547024D02*
X117596094Y-121768151D01*
X119990563Y-125941493D02*
X117596094Y-123547024D01*
X120774862Y-125941493D02*
X119990563Y-125941493D01*
X121174989Y-125541366D02*
X120774862Y-125941493D01*
X121174989Y-123471469D02*
X121174989Y-125541366D01*
X121876447Y-122770011D02*
X121174989Y-123471469D01*
X125730000Y-122770011D02*
X121876447Y-122770011D01*
X113046254Y-112683507D02*
X112812722Y-112449975D01*
X126121700Y-121191498D02*
X126121700Y-122378311D01*
X125485305Y-120555103D02*
X126121700Y-121191498D01*
X127737912Y-120544968D02*
X132369848Y-120544968D01*
X126616676Y-119423732D02*
X127737912Y-120544968D01*
X146448245Y-119789257D02*
X139946581Y-119789257D01*
X139946581Y-119789257D02*
X139602274Y-119444950D01*
X147320000Y-120661012D02*
X146448245Y-119789257D01*
X147320000Y-126820000D02*
X147320000Y-120661012D01*
X150500000Y-130000000D02*
X147320000Y-126820000D01*
X133350000Y-119380000D02*
X133398963Y-119331037D01*
X133139958Y-119169958D02*
X133350000Y-119380000D01*
X129757014Y-119169958D02*
X133139958Y-119169958D01*
X128313732Y-117726676D02*
X129757014Y-119169958D01*
X119520020Y-128868304D02*
X118781696Y-128868304D01*
X118781696Y-128868304D02*
X118110000Y-129540000D01*
X118110000Y-129540000D02*
X117140010Y-129540000D01*
X126061110Y-115180920D02*
X125615063Y-114734873D01*
X128313732Y-117726676D02*
X126061110Y-115474054D01*
X126061110Y-115474054D02*
X126061110Y-115180920D01*
X125615063Y-114734873D02*
X125286150Y-114734873D01*
X132111049Y-118292419D02*
X133222461Y-117181007D01*
X130010846Y-118292419D02*
X132111049Y-118292419D01*
X128879417Y-117160990D02*
X130010846Y-118292419D01*
X131445000Y-117475000D02*
X130324798Y-117475000D01*
X130324798Y-117475000D02*
X129445103Y-116595305D01*
X131233147Y-116332739D02*
X132407051Y-116332739D01*
X129445103Y-114544695D02*
X131233147Y-116332739D01*
X128508154Y-115448953D02*
X127820103Y-116137004D01*
X128508154Y-115410884D02*
X128508154Y-115448953D01*
X128209953Y-115112683D02*
X128508154Y-115410884D01*
X128879417Y-113979010D02*
X128209953Y-114648474D01*
X128209953Y-114648474D02*
X128209953Y-115112683D01*
X127436159Y-114290897D02*
X127436159Y-115156256D01*
X128313732Y-113413324D02*
X127436159Y-114290897D01*
X127748047Y-112847639D02*
X126827135Y-113768551D01*
X126827135Y-113768551D02*
X126827135Y-113806917D01*
X114300000Y-137795000D02*
X114300000Y-137160000D01*
X114300000Y-137160000D02*
X116840000Y-134620000D01*
X115058169Y-138553169D02*
X114300000Y-137795000D01*
X120396000Y-140208000D02*
X118741169Y-138553169D01*
X118741169Y-138553169D02*
X115058169Y-138553169D01*
X126616676Y-111716268D02*
X125556944Y-112776000D01*
X125556944Y-112776000D02*
X125476000Y-112776000D01*
X120480591Y-129917641D02*
X120583289Y-129917641D01*
X113460424Y-138729054D02*
X113460424Y-136937808D01*
X113460424Y-136937808D02*
X120480591Y-129917641D01*
X120583289Y-129917641D02*
X120883288Y-129617642D01*
X124511115Y-114459930D02*
X124511115Y-115202191D01*
X124603951Y-112501047D02*
X124603951Y-114367094D01*
X125200574Y-112000999D02*
X125103999Y-112000999D01*
X126050990Y-111150583D02*
X125200574Y-112000999D01*
X124603951Y-114367094D02*
X124511115Y-114459930D01*
X125103999Y-112000999D02*
X124603951Y-112501047D01*
X124511115Y-115202191D02*
X124993797Y-115684873D01*
X124993797Y-115684873D02*
X125285830Y-115684873D01*
X135680865Y-129119305D02*
X134410420Y-127848860D01*
X134410420Y-127848860D02*
X134410420Y-124465728D01*
X134410420Y-124465728D02*
X135684980Y-123191168D01*
X135684980Y-123191168D02*
X135684980Y-118215413D01*
X135684980Y-118215413D02*
X127418069Y-109948502D01*
X127418069Y-109948502D02*
X126121700Y-109948502D01*
X126121700Y-109948502D02*
X125485305Y-110584897D01*
X136101560Y-129540000D02*
X135680865Y-129119305D01*
X137544773Y-135678323D02*
X137544773Y-135254059D01*
X118134474Y-152987555D02*
X120235541Y-152987555D01*
X116848076Y-151701157D02*
X118134474Y-152987555D01*
X116848076Y-150583648D02*
X116848076Y-151701157D01*
X120235541Y-152987555D02*
X137544773Y-135678323D01*
X136859990Y-129540000D02*
X136101560Y-129540000D01*
X125897849Y-113566465D02*
X125897849Y-114004272D01*
X129554584Y-121920000D02*
X128948882Y-121314298D01*
X130980000Y-121920000D02*
X129554584Y-121920000D01*
X127182361Y-112281953D02*
X125897849Y-113566465D01*
X110919873Y-144851597D02*
X108761597Y-144851597D01*
X108761597Y-144851597D02*
X106850000Y-142940000D01*
X106850000Y-142940000D02*
X106850000Y-142240000D01*
D24*
X130879950Y-139428220D02*
X132080000Y-139428220D01*
X126136572Y-144171598D02*
X130879950Y-139428220D01*
X111599872Y-144171598D02*
X126136572Y-144171598D01*
X110919873Y-144851597D02*
X111599872Y-144171598D01*
D23*
X138273187Y-130966813D02*
X138273187Y-130278187D01*
X138273187Y-130278187D02*
X137535000Y-129540000D01*
X137535000Y-129540000D02*
X137460010Y-129540000D01*
X136291813Y-130966813D02*
X138273187Y-130966813D01*
X136291813Y-130966813D02*
X130975000Y-125650000D01*
X130975000Y-125650000D02*
X130975000Y-124750000D01*
X130975000Y-124750000D02*
X131100000Y-124750000D01*
X123025000Y-124750000D02*
X130975000Y-124750000D01*
X134948443Y-119169204D02*
X134948443Y-118744940D01*
X128094281Y-119769967D02*
X132741849Y-119769967D01*
X132741849Y-119769967D02*
X133126883Y-120155001D01*
X133962646Y-120155001D02*
X134948443Y-119169204D01*
X127182361Y-118858047D02*
X128094281Y-119769967D01*
X133126883Y-120155001D02*
X133962646Y-120155001D01*
X148280418Y-120408670D02*
X146636283Y-118764535D01*
X150500000Y-128000000D02*
X148280418Y-125780418D01*
X148280418Y-125780418D02*
X148280418Y-120408670D01*
X146636283Y-118764535D02*
X140399230Y-118764535D01*
X109050000Y-138430000D02*
X109050000Y-136762527D01*
X109050000Y-136762527D02*
X116272527Y-129540000D01*
X116272527Y-129540000D02*
X116539990Y-129540000D01*
X109050000Y-142240000D02*
X109050000Y-140485000D01*
X109050000Y-140485000D02*
X108900000Y-140335000D01*
X109050000Y-142240000D02*
X109050000Y-138430000D01*
X106256000Y-115316000D02*
X106973047Y-115316000D01*
X106973047Y-115316000D02*
X114130018Y-122472971D01*
X114130018Y-122472971D02*
X114130018Y-124047487D01*
X115812531Y-125730000D02*
X116539990Y-125730000D01*
X114130018Y-124047487D02*
X115812531Y-125730000D01*
X108227216Y-117348000D02*
X113580008Y-122700792D01*
X106256000Y-117348000D02*
X108227216Y-117348000D01*
X115570000Y-127635000D02*
X116539990Y-127635000D01*
X113580008Y-122700792D02*
X113580008Y-125645008D01*
X113580008Y-125645008D02*
X115570000Y-127635000D01*
X101079300Y-117360700D02*
X103124000Y-115316000D01*
X103124000Y-115316000D02*
X104056000Y-115316000D01*
X101079300Y-125984000D02*
X101079300Y-117360700D01*
X102108000Y-118364000D02*
X103124000Y-117348000D01*
X103124000Y-117348000D02*
X104056000Y-117348000D01*
X102108000Y-127636080D02*
X102108000Y-118364000D01*
X101079300Y-128016000D02*
X101728080Y-128016000D01*
X101728080Y-128016000D02*
X102108000Y-127636080D01*
D24*
X133030000Y-135890000D02*
X134620000Y-134300000D01*
X131469190Y-135890000D02*
X133030000Y-135890000D01*
X131130000Y-136229190D02*
X131469190Y-135890000D01*
X131130000Y-137429240D02*
X131130000Y-136229190D01*
D23*
X133030000Y-137429240D02*
X133680050Y-137429240D01*
X139720000Y-135890000D02*
X139870000Y-135890000D01*
X133680050Y-137429240D02*
X136926611Y-134182679D01*
X136926611Y-134182679D02*
X138012679Y-134182679D01*
X138012679Y-134182679D02*
X139720000Y-135890000D01*
X143510000Y-131445000D02*
X141605000Y-131445000D01*
X144145000Y-130810000D02*
X143510000Y-131445000D01*
X144145000Y-124731780D02*
X144145000Y-130810000D01*
X141605000Y-133985000D02*
X139870000Y-135720000D01*
X139870000Y-135720000D02*
X139870000Y-135890000D01*
D27*
G36*
X124410000Y-98425000D02*
X124416290Y-98489145D01*
X124422133Y-98553356D01*
X124422812Y-98555662D01*
X124423046Y-98558051D01*
X124441666Y-98619723D01*
X124459879Y-98681606D01*
X124460992Y-98683736D01*
X124461686Y-98686033D01*
X124491916Y-98742886D01*
X124521816Y-98800081D01*
X124523323Y-98801955D01*
X124524449Y-98804073D01*
X124565157Y-98853986D01*
X124605586Y-98904269D01*
X124607427Y-98905813D01*
X124608944Y-98907674D01*
X124658616Y-98948766D01*
X124707998Y-98990203D01*
X124710102Y-98991360D01*
X124711953Y-98992891D01*
X124768639Y-99023541D01*
X124825150Y-99054608D01*
X124827442Y-99055335D01*
X124829552Y-99056476D01*
X124891084Y-99075524D01*
X124952580Y-99095031D01*
X124954968Y-99095299D01*
X124957262Y-99096009D01*
X125021366Y-99102746D01*
X125085436Y-99109933D01*
X125090050Y-99109965D01*
X125090218Y-99109983D01*
X125090386Y-99109968D01*
X125095000Y-99110000D01*
X128905000Y-99110000D01*
X128969145Y-99103710D01*
X129033356Y-99097867D01*
X129035662Y-99097188D01*
X129038051Y-99096954D01*
X129099723Y-99078334D01*
X129161606Y-99060121D01*
X129163736Y-99059008D01*
X129166033Y-99058314D01*
X129222886Y-99028084D01*
X129280081Y-98998184D01*
X129281955Y-98996677D01*
X129284073Y-98995551D01*
X129333986Y-98954843D01*
X129384269Y-98914414D01*
X129385813Y-98912573D01*
X129387674Y-98911056D01*
X129428766Y-98861384D01*
X129470203Y-98812002D01*
X129471360Y-98809898D01*
X129472891Y-98808047D01*
X129503541Y-98751361D01*
X129534608Y-98694850D01*
X129535335Y-98692558D01*
X129536476Y-98690448D01*
X129555524Y-98628916D01*
X129575031Y-98567420D01*
X129575299Y-98565032D01*
X129576009Y-98562738D01*
X129582746Y-98498634D01*
X129589933Y-98434564D01*
X129589965Y-98429950D01*
X129589983Y-98429782D01*
X129589968Y-98429614D01*
X129590000Y-98425000D01*
X129590000Y-97959570D01*
X134490845Y-98751253D01*
X139835817Y-100736515D01*
X144693387Y-103722142D01*
X148878532Y-107594415D01*
X152231846Y-112205843D01*
X154625598Y-117380777D01*
X155968613Y-122922107D01*
X156209735Y-128618753D01*
X155339778Y-134253751D01*
X153391879Y-139612450D01*
X150440237Y-144490744D01*
X146597271Y-148702826D01*
X142009368Y-152088250D01*
X136851272Y-154518073D01*
X131300909Y-155904372D01*
X129590000Y-156084197D01*
X129590000Y-155575000D01*
X129583710Y-155510855D01*
X129577867Y-155446644D01*
X129577188Y-155444338D01*
X129576954Y-155441949D01*
X129558334Y-155380277D01*
X129540121Y-155318394D01*
X129539008Y-155316264D01*
X129538314Y-155313967D01*
X129508084Y-155257114D01*
X129478184Y-155199919D01*
X129476677Y-155198045D01*
X129475551Y-155195927D01*
X129434843Y-155146014D01*
X129394414Y-155095731D01*
X129392573Y-155094187D01*
X129391056Y-155092326D01*
X129341384Y-155051234D01*
X129292002Y-155009797D01*
X129289898Y-155008640D01*
X129288047Y-155007109D01*
X129231361Y-154976459D01*
X129174850Y-154945392D01*
X129172558Y-154944665D01*
X129170448Y-154943524D01*
X129108916Y-154924476D01*
X129047420Y-154904969D01*
X129045032Y-154904701D01*
X129042738Y-154903991D01*
X128978634Y-154897254D01*
X128914564Y-154890067D01*
X128909950Y-154890035D01*
X128909782Y-154890017D01*
X128909614Y-154890032D01*
X128905000Y-154890000D01*
X125095000Y-154890000D01*
X125030855Y-154896290D01*
X124966644Y-154902133D01*
X124964338Y-154902812D01*
X124961949Y-154903046D01*
X124900277Y-154921666D01*
X124838394Y-154939879D01*
X124836264Y-154940992D01*
X124833967Y-154941686D01*
X124777114Y-154971916D01*
X124719919Y-155001816D01*
X124718045Y-155003323D01*
X124715927Y-155004449D01*
X124666014Y-155045157D01*
X124615731Y-155085586D01*
X124614187Y-155087427D01*
X124612326Y-155088944D01*
X124571234Y-155138616D01*
X124529797Y-155187998D01*
X124528640Y-155190102D01*
X124527109Y-155191953D01*
X124496459Y-155248639D01*
X124465392Y-155305150D01*
X124464665Y-155307442D01*
X124463524Y-155309552D01*
X124444476Y-155371084D01*
X124424969Y-155432580D01*
X124424701Y-155434968D01*
X124423991Y-155437262D01*
X124417254Y-155501366D01*
X124410067Y-155565436D01*
X124410035Y-155570050D01*
X124410017Y-155570218D01*
X124410032Y-155570386D01*
X124410000Y-155575000D01*
X124410000Y-156040430D01*
X119509155Y-155248747D01*
X114164185Y-153263486D01*
X109306613Y-150277858D01*
X105121468Y-146405585D01*
X101768154Y-141794157D01*
X99374402Y-136619223D01*
X98031387Y-131077893D01*
X97913882Y-128301750D01*
X98546920Y-128301750D01*
X98546920Y-128477322D01*
X98571323Y-128600003D01*
X98619190Y-128715565D01*
X98688683Y-128819569D01*
X98777131Y-128908017D01*
X98881135Y-128977510D01*
X98996697Y-129025377D01*
X99119378Y-129049780D01*
X99294950Y-129049780D01*
X99453700Y-128891030D01*
X99453700Y-128143000D01*
X98705670Y-128143000D01*
X98546920Y-128301750D01*
X97913882Y-128301750D01*
X97827873Y-126269750D01*
X98546920Y-126269750D01*
X98546920Y-126445322D01*
X98571323Y-126568003D01*
X98619190Y-126683565D01*
X98688683Y-126787569D01*
X98777131Y-126876017D01*
X98881135Y-126945510D01*
X98996697Y-126993377D01*
X99029993Y-127000000D01*
X98996697Y-127006623D01*
X98881135Y-127054490D01*
X98777131Y-127123983D01*
X98688683Y-127212431D01*
X98619190Y-127316435D01*
X98571323Y-127431997D01*
X98546920Y-127554678D01*
X98546920Y-127730250D01*
X98705670Y-127889000D01*
X99453700Y-127889000D01*
X99453700Y-127140970D01*
X99312730Y-127000000D01*
X99453700Y-126859030D01*
X99453700Y-126111000D01*
X98705670Y-126111000D01*
X98546920Y-126269750D01*
X97827873Y-126269750D01*
X97796252Y-125522678D01*
X98546920Y-125522678D01*
X98546920Y-125698250D01*
X98705670Y-125857000D01*
X99453700Y-125857000D01*
X99453700Y-125108970D01*
X99707700Y-125108970D01*
X99707700Y-125857000D01*
X99727700Y-125857000D01*
X99727700Y-126111000D01*
X99707700Y-126111000D01*
X99707700Y-126859030D01*
X99848670Y-127000000D01*
X99707700Y-127140970D01*
X99707700Y-127889000D01*
X99727700Y-127889000D01*
X99727700Y-128143000D01*
X99707700Y-128143000D01*
X99707700Y-128891030D01*
X99866450Y-129049780D01*
X100042022Y-129049780D01*
X100164703Y-129025377D01*
X100280265Y-128977510D01*
X100328818Y-128945068D01*
X100339070Y-128953805D01*
X100502757Y-129027590D01*
X100680520Y-129052852D01*
X101478080Y-129052852D01*
X101579201Y-129044788D01*
X101750714Y-128991674D01*
X101900639Y-128892880D01*
X102017105Y-128756230D01*
X102039197Y-128707221D01*
X102079671Y-128685701D01*
X102142005Y-128653390D01*
X102145128Y-128650897D01*
X102148658Y-128649020D01*
X102203067Y-128604645D01*
X102217372Y-128593226D01*
X102217372Y-132351470D01*
X102224223Y-132421347D01*
X102230341Y-132491273D01*
X102231456Y-132495111D01*
X102231846Y-132499088D01*
X102252136Y-132566291D01*
X102271723Y-132633710D01*
X102273562Y-132637258D01*
X102274717Y-132641083D01*
X102307671Y-132703061D01*
X102339982Y-132765395D01*
X102342475Y-132768518D01*
X102344352Y-132772048D01*
X102388727Y-132826457D01*
X102432520Y-132881316D01*
X102438003Y-132886876D01*
X102438098Y-132886992D01*
X102438206Y-132887081D01*
X102439971Y-132888871D01*
X104327631Y-134776531D01*
X104327631Y-135258254D01*
X103692600Y-135893285D01*
X103648033Y-135947541D01*
X103602915Y-136001311D01*
X103600990Y-136004812D01*
X103598453Y-136007901D01*
X103565288Y-136069753D01*
X103531458Y-136131290D01*
X103530249Y-136135102D01*
X103528362Y-136138621D01*
X103507849Y-136205717D01*
X103486609Y-136272673D01*
X103486163Y-136276645D01*
X103484995Y-136280467D01*
X103477898Y-136350335D01*
X103470075Y-136420075D01*
X103470021Y-136427880D01*
X103470005Y-136428033D01*
X103470019Y-136428176D01*
X103470001Y-136430686D01*
X103470001Y-143600001D01*
X103476852Y-143669878D01*
X103482970Y-143739804D01*
X103484085Y-143743642D01*
X103484475Y-143747619D01*
X103504765Y-143814822D01*
X103524352Y-143882241D01*
X103526191Y-143885789D01*
X103527346Y-143889614D01*
X103560300Y-143951592D01*
X103592611Y-144013926D01*
X103595104Y-144017049D01*
X103596981Y-144020579D01*
X103641356Y-144074988D01*
X103685149Y-144129847D01*
X103690632Y-144135407D01*
X103690727Y-144135523D01*
X103690835Y-144135612D01*
X103692600Y-144137402D01*
X110003305Y-150448107D01*
X110057561Y-150492674D01*
X110111331Y-150537792D01*
X110114832Y-150539717D01*
X110117921Y-150542254D01*
X110179808Y-150575438D01*
X110241310Y-150609249D01*
X110245118Y-150610457D01*
X110248641Y-150612346D01*
X110315824Y-150632886D01*
X110382693Y-150654098D01*
X110386660Y-150654543D01*
X110390487Y-150655713D01*
X110460405Y-150662815D01*
X110530095Y-150670632D01*
X110537900Y-150670686D01*
X110538053Y-150670702D01*
X110538196Y-150670688D01*
X110540706Y-150670706D01*
X114383892Y-150670706D01*
X114437297Y-150710071D01*
X114453134Y-150719360D01*
X114464156Y-150725722D01*
X114697888Y-150831717D01*
X114947757Y-150890296D01*
X115204244Y-150899225D01*
X115457581Y-150858166D01*
X115555601Y-150821701D01*
X115568913Y-150907628D01*
X115656715Y-151148785D01*
X115789686Y-151368294D01*
X115962762Y-151557795D01*
X116088076Y-151650165D01*
X116088076Y-151701157D01*
X116094927Y-151771034D01*
X116101045Y-151840960D01*
X116102160Y-151844798D01*
X116102550Y-151848775D01*
X116122840Y-151915978D01*
X116142427Y-151983397D01*
X116144266Y-151986945D01*
X116145421Y-151990770D01*
X116178375Y-152052748D01*
X116210686Y-152115082D01*
X116213179Y-152118205D01*
X116215056Y-152121735D01*
X116259431Y-152176144D01*
X116303224Y-152231003D01*
X116308707Y-152236563D01*
X116308802Y-152236679D01*
X116308910Y-152236768D01*
X116310675Y-152238558D01*
X117597072Y-153524956D01*
X117651354Y-153569543D01*
X117705099Y-153614641D01*
X117708600Y-153616566D01*
X117711689Y-153619103D01*
X117773541Y-153652268D01*
X117835078Y-153686098D01*
X117838890Y-153687307D01*
X117842409Y-153689194D01*
X117909517Y-153709711D01*
X117976461Y-153730947D01*
X117980432Y-153731392D01*
X117984254Y-153732561D01*
X118054084Y-153739654D01*
X118123863Y-153747481D01*
X118131678Y-153747536D01*
X118131821Y-153747550D01*
X118131954Y-153747537D01*
X118134474Y-153747555D01*
X120235541Y-153747555D01*
X120305418Y-153740704D01*
X120375344Y-153734586D01*
X120379182Y-153733471D01*
X120383159Y-153733081D01*
X120450362Y-153712791D01*
X120517781Y-153693204D01*
X120521329Y-153691365D01*
X120525154Y-153690210D01*
X120587132Y-153657256D01*
X120649466Y-153624945D01*
X120652589Y-153622452D01*
X120656119Y-153620575D01*
X120710528Y-153576200D01*
X120765387Y-153532407D01*
X120770947Y-153526924D01*
X120771063Y-153526829D01*
X120771152Y-153526721D01*
X120772942Y-153524956D01*
X127655681Y-146642217D01*
X128445782Y-146642217D01*
X128463726Y-146820867D01*
X128530729Y-146987445D01*
X129955729Y-149455617D01*
X130013274Y-149539159D01*
X130145028Y-149661136D01*
X130305549Y-149741578D01*
X130482124Y-149774115D01*
X130660774Y-149756171D01*
X130827352Y-149689168D01*
X133295524Y-148264168D01*
X133379066Y-148206623D01*
X133501043Y-148074869D01*
X133581485Y-147914348D01*
X133614022Y-147737773D01*
X133596078Y-147559123D01*
X133529075Y-147392545D01*
X132104075Y-144924373D01*
X132046530Y-144840831D01*
X131914776Y-144718854D01*
X131754255Y-144638412D01*
X131577680Y-144605875D01*
X131399030Y-144623819D01*
X131232452Y-144690822D01*
X128764280Y-146115822D01*
X128680738Y-146173367D01*
X128558761Y-146305121D01*
X128478319Y-146465642D01*
X128445782Y-146642217D01*
X127655681Y-146642217D01*
X131173331Y-143124567D01*
X134802856Y-149411088D01*
X134860401Y-149494630D01*
X134992155Y-149616607D01*
X135152676Y-149697049D01*
X135329251Y-149729586D01*
X135507901Y-149711643D01*
X135674479Y-149644639D01*
X142273593Y-145834639D01*
X142357135Y-145777094D01*
X142479112Y-145645340D01*
X142559554Y-145484819D01*
X142592091Y-145308244D01*
X142574148Y-145129594D01*
X142507144Y-144963016D01*
X138697144Y-138363902D01*
X138639599Y-138280360D01*
X138507845Y-138158383D01*
X138347324Y-138077941D01*
X138170749Y-138045404D01*
X137992099Y-138063347D01*
X137825521Y-138130351D01*
X133902713Y-140395185D01*
X138082174Y-136215724D01*
X138126741Y-136161468D01*
X138171859Y-136107698D01*
X138173784Y-136104197D01*
X138176321Y-136101108D01*
X138209505Y-136039221D01*
X138243316Y-135977719D01*
X138244524Y-135973911D01*
X138246413Y-135970388D01*
X138266953Y-135903205D01*
X138288165Y-135836336D01*
X138288610Y-135832369D01*
X138289780Y-135828542D01*
X138290787Y-135818633D01*
X138361684Y-135718129D01*
X138396078Y-135640880D01*
X138631928Y-135876730D01*
X138631928Y-136340000D01*
X138639992Y-136441121D01*
X138693106Y-136612634D01*
X138791900Y-136762559D01*
X138928550Y-136879025D01*
X139092237Y-136952810D01*
X139270000Y-136978072D01*
X140470000Y-136978072D01*
X140571121Y-136970008D01*
X140742634Y-136916894D01*
X140892559Y-136818100D01*
X140969225Y-136728148D01*
X140991900Y-136762559D01*
X141128550Y-136879025D01*
X141292237Y-136952810D01*
X141470000Y-136978072D01*
X142670000Y-136978072D01*
X142771121Y-136970008D01*
X142942634Y-136916894D01*
X143092559Y-136818100D01*
X143209025Y-136681450D01*
X143223202Y-136650000D01*
X145339112Y-136650000D01*
X145339942Y-136660411D01*
X145393056Y-136831924D01*
X145491850Y-136981849D01*
X145628500Y-137098315D01*
X145792187Y-137172100D01*
X145969950Y-137197362D01*
X146622905Y-137197362D01*
X146497391Y-137280070D01*
X146380925Y-137416720D01*
X146307140Y-137580407D01*
X146281878Y-137758170D01*
X146281878Y-138558270D01*
X146285000Y-138597419D01*
X146285000Y-138665000D01*
X143743819Y-138665000D01*
X143544271Y-138319373D01*
X143486726Y-138235831D01*
X143354972Y-138113854D01*
X143194451Y-138033412D01*
X143017876Y-138000875D01*
X142839226Y-138018819D01*
X142672648Y-138085822D01*
X140204476Y-139510822D01*
X140120934Y-139568367D01*
X139998957Y-139700121D01*
X139918515Y-139860642D01*
X139885978Y-140037217D01*
X139903922Y-140215867D01*
X139970925Y-140382445D01*
X141395925Y-142850617D01*
X141453470Y-142934159D01*
X141585224Y-143056136D01*
X141745745Y-143136578D01*
X141922320Y-143169115D01*
X142100970Y-143151171D01*
X142267548Y-143084168D01*
X144735720Y-141659168D01*
X144819262Y-141601623D01*
X144941239Y-141469869D01*
X145021681Y-141309348D01*
X145054218Y-141132773D01*
X145036274Y-140954123D01*
X144969271Y-140787545D01*
X144938934Y-140735000D01*
X146978270Y-140735000D01*
X147073456Y-140725667D01*
X147168659Y-140717338D01*
X147173882Y-140715820D01*
X147179303Y-140715289D01*
X147270848Y-140687650D01*
X147362636Y-140660983D01*
X147367469Y-140658478D01*
X147372678Y-140656905D01*
X147457066Y-140612035D01*
X147541971Y-140568024D01*
X147546226Y-140564627D01*
X147551030Y-140562073D01*
X147625088Y-140501673D01*
X147699836Y-140442003D01*
X147707416Y-140434528D01*
X147707566Y-140434406D01*
X147707681Y-140434267D01*
X147710126Y-140431856D01*
X148051855Y-140090126D01*
X148112541Y-140016246D01*
X148173992Y-139943011D01*
X148176613Y-139938243D01*
X148180069Y-139934036D01*
X148225249Y-139849775D01*
X148271305Y-139766000D01*
X148272951Y-139760811D01*
X148275522Y-139756016D01*
X148303453Y-139664657D01*
X148332383Y-139573459D01*
X148332990Y-139568045D01*
X148334580Y-139562845D01*
X148344234Y-139467803D01*
X148354899Y-139372721D01*
X148354973Y-139362076D01*
X148354993Y-139361883D01*
X148354976Y-139361703D01*
X148355000Y-139358270D01*
X148355000Y-138580239D01*
X148358122Y-138558270D01*
X148358122Y-137758170D01*
X148350058Y-137657049D01*
X148296944Y-137485536D01*
X148198150Y-137335611D01*
X148061500Y-137219145D01*
X147991120Y-137187420D01*
X148143000Y-137035540D01*
X148143000Y-136286240D01*
X148397000Y-136286240D01*
X148397000Y-137035540D01*
X148555750Y-137194290D01*
X148732592Y-137194290D01*
X148855273Y-137169887D01*
X148970835Y-137122020D01*
X149074839Y-137052527D01*
X149163287Y-136964079D01*
X149232780Y-136860075D01*
X149280647Y-136744513D01*
X149305050Y-136621832D01*
X149305050Y-136444990D01*
X149146300Y-136286240D01*
X148397000Y-136286240D01*
X148143000Y-136286240D01*
X148123000Y-136286240D01*
X148123000Y-136032240D01*
X148143000Y-136032240D01*
X148143000Y-135282940D01*
X148397000Y-135282940D01*
X148397000Y-136032240D01*
X149146300Y-136032240D01*
X149305050Y-135873490D01*
X149305050Y-135696648D01*
X149280647Y-135573967D01*
X149232780Y-135458405D01*
X149163287Y-135354401D01*
X149074839Y-135265953D01*
X148970835Y-135196460D01*
X148855273Y-135148593D01*
X148732592Y-135124190D01*
X148555750Y-135124190D01*
X148397000Y-135282940D01*
X148143000Y-135282940D01*
X147984250Y-135124190D01*
X147807408Y-135124190D01*
X147684727Y-135148593D01*
X147615729Y-135177173D01*
X148407901Y-134385000D01*
X149150000Y-134385000D01*
X149245186Y-134375667D01*
X149340389Y-134367338D01*
X149345612Y-134365820D01*
X149351033Y-134365289D01*
X149442578Y-134337650D01*
X149534366Y-134310983D01*
X149539199Y-134308478D01*
X149544408Y-134306905D01*
X149628796Y-134262035D01*
X149713701Y-134218024D01*
X149717956Y-134214627D01*
X149722760Y-134212073D01*
X149796818Y-134151673D01*
X149871566Y-134092003D01*
X149879146Y-134084528D01*
X149879296Y-134084406D01*
X149879411Y-134084267D01*
X149881856Y-134081856D01*
X150657554Y-133306157D01*
X150746406Y-133298071D01*
X150992608Y-133225610D01*
X151220046Y-133106708D01*
X151420057Y-132945895D01*
X151502028Y-132848206D01*
X151625083Y-132981713D01*
X151833417Y-133133537D01*
X152067367Y-133241800D01*
X152169814Y-133272872D01*
X152373000Y-133149254D01*
X152373000Y-132127000D01*
X152627000Y-132127000D01*
X152627000Y-133149254D01*
X152830186Y-133272872D01*
X152932633Y-133241800D01*
X153166583Y-133133537D01*
X153374917Y-132981713D01*
X153549628Y-132792162D01*
X153684003Y-132572169D01*
X153772877Y-132330187D01*
X153650108Y-132127000D01*
X152627000Y-132127000D01*
X152373000Y-132127000D01*
X152353000Y-132127000D01*
X152353000Y-131873000D01*
X152373000Y-131873000D01*
X152373000Y-131853000D01*
X152627000Y-131853000D01*
X152627000Y-131873000D01*
X153650108Y-131873000D01*
X153772877Y-131669813D01*
X153684003Y-131427831D01*
X153549628Y-131207838D01*
X153374917Y-131018287D01*
X153351366Y-131001124D01*
X153420057Y-130945895D01*
X153585024Y-130749295D01*
X153708663Y-130524397D01*
X153786264Y-130279767D01*
X153814872Y-130024723D01*
X153815000Y-130006363D01*
X153815000Y-129993637D01*
X153789956Y-129738219D01*
X153715778Y-129492529D01*
X153595291Y-129265927D01*
X153433086Y-129067043D01*
X153352399Y-129000293D01*
X153420057Y-128945895D01*
X153585024Y-128749295D01*
X153708663Y-128524397D01*
X153786264Y-128279767D01*
X153814872Y-128024723D01*
X153815000Y-128006363D01*
X153815000Y-127993637D01*
X153789956Y-127738219D01*
X153715778Y-127492529D01*
X153595291Y-127265927D01*
X153433086Y-127067043D01*
X153352399Y-127000293D01*
X153420057Y-126945895D01*
X153585024Y-126749295D01*
X153708663Y-126524397D01*
X153786264Y-126279767D01*
X153814872Y-126024723D01*
X153815000Y-126006363D01*
X153815000Y-125993637D01*
X153789956Y-125738219D01*
X153715778Y-125492529D01*
X153595291Y-125265927D01*
X153433086Y-125067043D01*
X153352399Y-125000293D01*
X153420057Y-124945895D01*
X153585024Y-124749295D01*
X153708663Y-124524397D01*
X153786264Y-124279767D01*
X153814872Y-124024723D01*
X153815000Y-124006363D01*
X153815000Y-123993637D01*
X153789956Y-123738219D01*
X153715778Y-123492529D01*
X153595291Y-123265927D01*
X153540632Y-123198908D01*
X153602559Y-123158100D01*
X153719025Y-123021450D01*
X153792810Y-122857763D01*
X153818072Y-122680000D01*
X153818072Y-121320000D01*
X153810008Y-121218879D01*
X153756894Y-121047366D01*
X153658100Y-120897441D01*
X153521450Y-120780975D01*
X153357763Y-120707190D01*
X153180000Y-120681928D01*
X151820000Y-120681928D01*
X151718879Y-120689992D01*
X151547366Y-120743106D01*
X151397441Y-120841900D01*
X151299642Y-120956648D01*
X151235339Y-120903453D01*
X151009583Y-120781387D01*
X150764417Y-120705496D01*
X150509180Y-120678669D01*
X150253594Y-120701929D01*
X150007392Y-120774390D01*
X149779954Y-120893292D01*
X149579943Y-121054105D01*
X149414976Y-121250705D01*
X149291337Y-121475603D01*
X149213736Y-121720233D01*
X149185128Y-121975277D01*
X149185000Y-121993637D01*
X149185000Y-122006363D01*
X149210044Y-122261781D01*
X149284222Y-122507471D01*
X149404709Y-122734073D01*
X149566914Y-122932957D01*
X149647601Y-122999707D01*
X149579943Y-123054105D01*
X149414976Y-123250705D01*
X149291337Y-123475603D01*
X149213736Y-123720233D01*
X149185128Y-123975277D01*
X149185000Y-123993637D01*
X149185000Y-124006363D01*
X149210044Y-124261781D01*
X149284222Y-124507471D01*
X149404709Y-124734073D01*
X149566914Y-124932957D01*
X149647601Y-124999707D01*
X149579943Y-125054105D01*
X149414976Y-125250705D01*
X149291337Y-125475603D01*
X149233315Y-125658513D01*
X149040418Y-125465616D01*
X149040418Y-120408670D01*
X149033567Y-120338793D01*
X149027449Y-120268867D01*
X149026334Y-120265029D01*
X149025944Y-120261052D01*
X149005654Y-120193849D01*
X148986067Y-120126430D01*
X148984228Y-120122882D01*
X148983073Y-120119057D01*
X148950119Y-120057079D01*
X148917808Y-119994745D01*
X148915315Y-119991622D01*
X148913438Y-119988092D01*
X148869063Y-119933683D01*
X148825270Y-119878824D01*
X148819787Y-119873264D01*
X148819692Y-119873148D01*
X148819584Y-119873059D01*
X148817819Y-119871269D01*
X147173684Y-118227134D01*
X147119428Y-118182567D01*
X147065658Y-118137449D01*
X147062157Y-118135524D01*
X147059068Y-118132987D01*
X146997216Y-118099822D01*
X146935679Y-118065992D01*
X146931867Y-118064783D01*
X146928348Y-118062896D01*
X146861252Y-118042383D01*
X146794296Y-118021143D01*
X146790324Y-118020697D01*
X146786502Y-118019529D01*
X146716634Y-118012432D01*
X146646894Y-118004609D01*
X146639089Y-118004555D01*
X146638936Y-118004539D01*
X146638793Y-118004553D01*
X146636283Y-118004535D01*
X140944608Y-118004535D01*
X140846090Y-117938084D01*
X140677055Y-117867028D01*
X140497437Y-117830158D01*
X140314079Y-117828878D01*
X140133963Y-117863236D01*
X139963952Y-117931925D01*
X139810521Y-118032328D01*
X139679513Y-118160621D01*
X139575919Y-118311916D01*
X139503684Y-118480451D01*
X139496726Y-118513184D01*
X139337007Y-118543651D01*
X139166996Y-118612340D01*
X139013565Y-118712743D01*
X138882557Y-118841036D01*
X138778963Y-118992331D01*
X138706728Y-119160866D01*
X138668605Y-119340222D01*
X138666045Y-119523567D01*
X138699146Y-119703918D01*
X138766646Y-119874404D01*
X138865975Y-120028533D01*
X138993350Y-120160434D01*
X139143918Y-120265081D01*
X139311945Y-120338490D01*
X139464362Y-120372001D01*
X139517206Y-120416343D01*
X139520707Y-120418268D01*
X139523796Y-120420805D01*
X139585683Y-120453989D01*
X139647185Y-120487800D01*
X139650993Y-120489008D01*
X139654516Y-120490897D01*
X139721699Y-120511437D01*
X139788568Y-120532649D01*
X139792535Y-120533094D01*
X139796362Y-120534264D01*
X139866280Y-120541366D01*
X139935970Y-120549183D01*
X139943775Y-120549237D01*
X139943928Y-120549253D01*
X139944071Y-120549239D01*
X139946581Y-120549257D01*
X146133443Y-120549257D01*
X146560000Y-120975814D01*
X146560000Y-126820000D01*
X146566851Y-126889877D01*
X146572969Y-126959803D01*
X146574084Y-126963641D01*
X146574474Y-126967618D01*
X146594764Y-127034821D01*
X146614351Y-127102240D01*
X146616190Y-127105788D01*
X146617345Y-127109613D01*
X146650299Y-127171591D01*
X146682610Y-127233925D01*
X146685103Y-127237048D01*
X146686980Y-127240578D01*
X146731355Y-127294987D01*
X146775148Y-127349846D01*
X146780631Y-127355406D01*
X146780726Y-127355522D01*
X146780834Y-127355611D01*
X146782599Y-127357401D01*
X149206847Y-129781649D01*
X149185128Y-129975277D01*
X149185000Y-129993637D01*
X149185000Y-130006363D01*
X149210044Y-130261781D01*
X149284222Y-130507471D01*
X149404709Y-130734073D01*
X149566914Y-130932957D01*
X149647601Y-130999707D01*
X149579943Y-131054105D01*
X149414976Y-131250705D01*
X149291337Y-131475603D01*
X149213736Y-131720233D01*
X149200809Y-131835480D01*
X148721288Y-132315000D01*
X147979190Y-132315000D01*
X147884004Y-132324333D01*
X147788801Y-132332662D01*
X147783578Y-132334180D01*
X147778157Y-132334711D01*
X147686612Y-132362350D01*
X147594824Y-132389017D01*
X147589991Y-132391522D01*
X147584782Y-132393095D01*
X147500414Y-132437954D01*
X147415488Y-132481976D01*
X147411231Y-132485374D01*
X147406430Y-132487927D01*
X147332364Y-132548334D01*
X147257624Y-132607998D01*
X147250050Y-132615467D01*
X147249894Y-132615594D01*
X147249775Y-132615738D01*
X147247334Y-132618145D01*
X146370000Y-133495478D01*
X144751001Y-131876479D01*
X144677064Y-131815747D01*
X144603886Y-131754343D01*
X144599122Y-131751724D01*
X144594911Y-131748265D01*
X144510595Y-131703056D01*
X144426875Y-131657030D01*
X144421688Y-131655384D01*
X144416890Y-131652812D01*
X144386332Y-131643470D01*
X144682401Y-131347401D01*
X144726968Y-131293145D01*
X144772086Y-131239375D01*
X144774011Y-131235874D01*
X144776548Y-131232785D01*
X144809732Y-131170898D01*
X144843543Y-131109396D01*
X144844751Y-131105588D01*
X144846640Y-131102065D01*
X144867180Y-131034882D01*
X144888392Y-130968013D01*
X144888837Y-130964046D01*
X144890007Y-130960219D01*
X144897109Y-130890301D01*
X144904926Y-130820611D01*
X144904980Y-130812806D01*
X144904996Y-130812653D01*
X144904982Y-130812510D01*
X144905000Y-130810000D01*
X144905000Y-130625000D01*
X144959250Y-130625000D01*
X145118000Y-130466250D01*
X145118000Y-129667000D01*
X145372000Y-129667000D01*
X145372000Y-130466250D01*
X145530750Y-130625000D01*
X145907542Y-130625000D01*
X146030223Y-130600597D01*
X146145785Y-130552730D01*
X146249789Y-130483237D01*
X146338237Y-130394789D01*
X146407730Y-130290785D01*
X146455597Y-130175223D01*
X146480000Y-130052542D01*
X146480000Y-129825750D01*
X146321250Y-129667000D01*
X145372000Y-129667000D01*
X145118000Y-129667000D01*
X145098000Y-129667000D01*
X145098000Y-129413000D01*
X145118000Y-129413000D01*
X145118000Y-128613750D01*
X145372000Y-128613750D01*
X145372000Y-129413000D01*
X146321250Y-129413000D01*
X146480000Y-129254250D01*
X146480000Y-129027458D01*
X146455597Y-128904777D01*
X146407730Y-128789215D01*
X146338237Y-128685211D01*
X146249789Y-128596763D01*
X146145785Y-128527270D01*
X146030223Y-128479403D01*
X145907542Y-128455000D01*
X145530750Y-128455000D01*
X145372000Y-128613750D01*
X145118000Y-128613750D01*
X144959250Y-128455000D01*
X144905000Y-128455000D01*
X144905000Y-127670060D01*
X144968000Y-127607060D01*
X144968000Y-126857760D01*
X145222000Y-126857760D01*
X145222000Y-127607060D01*
X145380750Y-127765810D01*
X145557592Y-127765810D01*
X145680273Y-127741407D01*
X145795835Y-127693540D01*
X145899839Y-127624047D01*
X145988287Y-127535599D01*
X146057780Y-127431595D01*
X146105647Y-127316033D01*
X146130050Y-127193352D01*
X146130050Y-127016510D01*
X145971300Y-126857760D01*
X145222000Y-126857760D01*
X144968000Y-126857760D01*
X144948000Y-126857760D01*
X144948000Y-126603760D01*
X144968000Y-126603760D01*
X144968000Y-125854460D01*
X145222000Y-125854460D01*
X145222000Y-126603760D01*
X145971300Y-126603760D01*
X146130050Y-126445010D01*
X146130050Y-126268168D01*
X146105647Y-126145487D01*
X146057780Y-126029925D01*
X145988287Y-125925921D01*
X145899839Y-125837473D01*
X145795835Y-125767980D01*
X145680273Y-125720113D01*
X145557592Y-125695710D01*
X145380750Y-125695710D01*
X145222000Y-125854460D01*
X144968000Y-125854460D01*
X144905000Y-125791460D01*
X144905000Y-125651187D01*
X144967609Y-125609930D01*
X145084075Y-125473280D01*
X145157860Y-125309593D01*
X145183122Y-125131830D01*
X145183122Y-124331730D01*
X145175058Y-124230609D01*
X145121944Y-124059096D01*
X145023150Y-123909171D01*
X145021255Y-123907556D01*
X145062240Y-123895649D01*
X145065788Y-123893810D01*
X145069613Y-123892655D01*
X145131591Y-123859701D01*
X145193925Y-123827390D01*
X145197048Y-123824897D01*
X145200578Y-123823020D01*
X145254987Y-123778645D01*
X145309846Y-123734852D01*
X145315406Y-123729369D01*
X145315522Y-123729274D01*
X145315611Y-123729166D01*
X145317401Y-123727401D01*
X145782401Y-123262401D01*
X145826968Y-123208145D01*
X145872086Y-123154375D01*
X145874011Y-123150874D01*
X145876548Y-123147785D01*
X145909713Y-123085933D01*
X145943543Y-123024396D01*
X145944752Y-123020584D01*
X145946639Y-123017065D01*
X145952453Y-122998047D01*
X146117634Y-122946894D01*
X146267559Y-122848100D01*
X146384025Y-122711450D01*
X146457810Y-122547763D01*
X146483072Y-122370000D01*
X146483072Y-121470000D01*
X146475008Y-121368879D01*
X146421894Y-121197366D01*
X146323100Y-121047441D01*
X146186450Y-120930975D01*
X146022763Y-120857190D01*
X145845000Y-120831928D01*
X144645000Y-120831928D01*
X144543879Y-120839992D01*
X144372366Y-120893106D01*
X144222441Y-120991900D01*
X144145775Y-121081852D01*
X144123100Y-121047441D01*
X143986450Y-120930975D01*
X143822763Y-120857190D01*
X143645000Y-120831928D01*
X142445000Y-120831928D01*
X142343879Y-120839992D01*
X142172366Y-120893106D01*
X142022441Y-120991900D01*
X141905975Y-121128550D01*
X141891798Y-121160000D01*
X140270927Y-121160000D01*
X140201050Y-121166851D01*
X140131124Y-121172969D01*
X140127286Y-121174084D01*
X140123309Y-121174474D01*
X140056106Y-121194764D01*
X139988687Y-121214351D01*
X139985139Y-121216190D01*
X139981314Y-121217345D01*
X139919356Y-121250288D01*
X139857001Y-121282610D01*
X139853876Y-121285105D01*
X139850349Y-121286980D01*
X139795962Y-121331337D01*
X139741081Y-121375148D01*
X139735521Y-121380631D01*
X139735405Y-121380726D01*
X139735316Y-121380834D01*
X139733526Y-121382599D01*
X138922148Y-122193977D01*
X138808753Y-122215608D01*
X138638742Y-122284297D01*
X138485311Y-122384700D01*
X138354303Y-122512993D01*
X138250709Y-122664288D01*
X138178474Y-122832823D01*
X138140351Y-123012179D01*
X138137791Y-123195524D01*
X138170892Y-123375875D01*
X138238392Y-123546361D01*
X138337721Y-123700490D01*
X138465096Y-123832391D01*
X138615664Y-123937038D01*
X138783691Y-124010447D01*
X138962777Y-124049822D01*
X139033886Y-124051312D01*
X138123784Y-124961414D01*
X138036185Y-124873815D01*
X138036133Y-124873780D01*
X138036083Y-124873713D01*
X137892499Y-124765911D01*
X137792499Y-124710911D01*
X137756853Y-124699374D01*
X137695787Y-124667750D01*
X137619990Y-124641221D01*
X137619990Y-117834763D01*
X137613138Y-117764882D01*
X137607021Y-117694960D01*
X137605906Y-117691122D01*
X137605516Y-117687145D01*
X137585236Y-117619975D01*
X137565640Y-117552524D01*
X137563799Y-117548973D01*
X137562645Y-117545150D01*
X137529700Y-117483189D01*
X137497380Y-117420838D01*
X137494887Y-117417715D01*
X137493010Y-117414185D01*
X137448635Y-117359776D01*
X137404842Y-117304917D01*
X137399359Y-117299357D01*
X137399264Y-117299241D01*
X137399156Y-117299152D01*
X137397391Y-117297362D01*
X133434550Y-113334521D01*
X137825521Y-115869649D01*
X137917127Y-115913226D01*
X138092218Y-115952984D01*
X138271454Y-115942388D01*
X138440642Y-115882279D01*
X138586385Y-115777414D01*
X138697144Y-115636098D01*
X139708572Y-113884252D01*
X139887590Y-113884252D01*
X139898186Y-114063488D01*
X139958295Y-114232675D01*
X140063160Y-114378419D01*
X140204476Y-114489178D01*
X142672648Y-115914178D01*
X142764254Y-115957755D01*
X142939345Y-115997513D01*
X143118581Y-115986917D01*
X143287768Y-115926808D01*
X143433512Y-115821943D01*
X143544271Y-115680627D01*
X144969271Y-113212455D01*
X145012848Y-113120849D01*
X145052606Y-112945758D01*
X145042010Y-112766522D01*
X144981901Y-112597335D01*
X144877036Y-112451591D01*
X144735720Y-112340832D01*
X142267548Y-110915832D01*
X142175942Y-110872255D01*
X142000851Y-110832497D01*
X141821615Y-110843093D01*
X141652428Y-110903202D01*
X141506684Y-111008067D01*
X141395925Y-111149383D01*
X139970925Y-113617555D01*
X139927348Y-113709161D01*
X139887590Y-113884252D01*
X139708572Y-113884252D01*
X142507144Y-109036984D01*
X142550721Y-108945378D01*
X142590479Y-108770287D01*
X142579883Y-108591051D01*
X142519774Y-108421863D01*
X142414909Y-108276120D01*
X142273593Y-108165361D01*
X135674479Y-104355361D01*
X135582873Y-104311784D01*
X135407782Y-104272026D01*
X135228546Y-104282622D01*
X135059358Y-104342731D01*
X134913615Y-104447596D01*
X134802856Y-104588912D01*
X131100906Y-111000877D01*
X127379281Y-107279252D01*
X128447394Y-107279252D01*
X128457990Y-107458488D01*
X128518099Y-107627675D01*
X128622964Y-107773419D01*
X128764280Y-107884178D01*
X131232452Y-109309178D01*
X131324058Y-109352755D01*
X131499149Y-109392513D01*
X131678385Y-109381917D01*
X131847572Y-109321808D01*
X131993316Y-109216943D01*
X132104075Y-109075627D01*
X133529075Y-106607455D01*
X133572652Y-106515849D01*
X133612410Y-106340758D01*
X133601814Y-106161522D01*
X133541705Y-105992335D01*
X133436840Y-105846591D01*
X133295524Y-105735832D01*
X130827352Y-104310832D01*
X130735746Y-104267255D01*
X130560655Y-104227497D01*
X130381419Y-104238093D01*
X130212232Y-104298202D01*
X130066488Y-104403067D01*
X129955729Y-104544383D01*
X128530729Y-107012555D01*
X128487152Y-107104161D01*
X128447394Y-107279252D01*
X127379281Y-107279252D01*
X126059634Y-105959605D01*
X126005378Y-105915038D01*
X125951608Y-105869920D01*
X125948107Y-105867995D01*
X125945018Y-105865458D01*
X125883166Y-105832293D01*
X125821629Y-105798463D01*
X125817817Y-105797254D01*
X125814298Y-105795367D01*
X125747202Y-105774854D01*
X125680246Y-105753614D01*
X125676274Y-105753168D01*
X125672452Y-105752000D01*
X125602584Y-105744903D01*
X125532844Y-105737080D01*
X125525039Y-105737026D01*
X125524886Y-105737010D01*
X125524743Y-105737024D01*
X125522233Y-105737006D01*
X121807599Y-105737006D01*
X121709081Y-105670555D01*
X121540046Y-105599499D01*
X121360428Y-105562629D01*
X121177070Y-105561349D01*
X120996954Y-105595707D01*
X120826943Y-105664396D01*
X120673512Y-105764799D01*
X120542504Y-105893092D01*
X120438910Y-106044387D01*
X120366675Y-106212922D01*
X120328552Y-106392278D01*
X120326280Y-106555000D01*
X118795398Y-106555000D01*
X118696880Y-106488549D01*
X118594273Y-106445417D01*
X118600174Y-106387319D01*
X118608002Y-106317535D01*
X118608057Y-106309720D01*
X118608071Y-106309577D01*
X118608058Y-106309444D01*
X118608076Y-106306924D01*
X118608076Y-106214607D01*
X118719659Y-106134739D01*
X118895363Y-105947673D01*
X119031386Y-105730042D01*
X119122547Y-105490136D01*
X119140044Y-105386752D01*
X119220852Y-105418105D01*
X119473591Y-105462698D01*
X119730179Y-105457350D01*
X119980841Y-105402266D01*
X120216030Y-105299544D01*
X120231996Y-105290477D01*
X120243017Y-105284115D01*
X120451710Y-105134739D01*
X120627414Y-104947673D01*
X120763437Y-104730042D01*
X120854598Y-104490136D01*
X120897425Y-104237091D01*
X120890286Y-103980547D01*
X120833453Y-103730276D01*
X120729092Y-103495809D01*
X120581178Y-103286080D01*
X120395342Y-103109073D01*
X120178666Y-102971534D01*
X119939402Y-102878701D01*
X119813680Y-102856519D01*
X119867774Y-102683196D01*
X119895090Y-102426861D01*
X119871874Y-102170123D01*
X119847559Y-102065865D01*
X119638910Y-101951710D01*
X118753612Y-102462837D01*
X118763612Y-102480158D01*
X118543642Y-102607158D01*
X118533642Y-102589837D01*
X117906859Y-102951710D01*
X117021561Y-103462837D01*
X117031561Y-103480158D01*
X116811591Y-103607158D01*
X116801591Y-103589837D01*
X116784270Y-103599837D01*
X116657270Y-103379867D01*
X116674591Y-103369867D01*
X116163037Y-102483829D01*
X115925687Y-102479102D01*
X115760562Y-102677060D01*
X115637230Y-102903428D01*
X115560429Y-103149508D01*
X115557341Y-103178482D01*
X115475300Y-103146650D01*
X115222560Y-103102057D01*
X114965973Y-103107405D01*
X114715311Y-103162489D01*
X114480121Y-103265211D01*
X114464156Y-103274278D01*
X114453134Y-103280640D01*
X114244442Y-103430016D01*
X114068738Y-103617082D01*
X113932715Y-103834714D01*
X113841554Y-104074620D01*
X113824057Y-104178003D01*
X113743250Y-104146650D01*
X113490510Y-104102057D01*
X113233923Y-104107405D01*
X113152465Y-104125306D01*
X113133351Y-104109267D01*
X113129850Y-104107342D01*
X113126761Y-104104805D01*
X113064909Y-104071640D01*
X113003372Y-104037810D01*
X112999560Y-104036601D01*
X112996041Y-104034714D01*
X112928945Y-104014201D01*
X112861989Y-103992961D01*
X112858017Y-103992515D01*
X112854195Y-103991347D01*
X112784327Y-103984250D01*
X112714587Y-103976427D01*
X112706782Y-103976373D01*
X112706629Y-103976357D01*
X112706486Y-103976371D01*
X112703976Y-103976353D01*
X109901770Y-103976353D01*
X109831889Y-103983205D01*
X109761967Y-103989322D01*
X109758129Y-103990437D01*
X109754152Y-103990827D01*
X109686982Y-104011107D01*
X109619531Y-104030703D01*
X109615980Y-104032544D01*
X109612157Y-104033698D01*
X109550196Y-104066643D01*
X109487845Y-104098963D01*
X109484722Y-104101456D01*
X109481192Y-104103333D01*
X109426783Y-104147708D01*
X109371924Y-104191501D01*
X109366364Y-104196984D01*
X109366248Y-104197079D01*
X109366159Y-104197187D01*
X109364369Y-104198952D01*
X107409909Y-106153412D01*
X107365342Y-106207668D01*
X107320224Y-106261438D01*
X107318299Y-106264939D01*
X107315762Y-106268028D01*
X107282597Y-106329880D01*
X107248767Y-106391417D01*
X107247558Y-106395229D01*
X107245671Y-106398748D01*
X107225158Y-106465844D01*
X107203918Y-106532800D01*
X107203472Y-106536772D01*
X107202304Y-106540594D01*
X107195207Y-106610462D01*
X107187384Y-106680202D01*
X107187330Y-106688007D01*
X107187314Y-106688160D01*
X107187328Y-106688303D01*
X107187310Y-106690813D01*
X107187310Y-111749781D01*
X107194161Y-111819658D01*
X107200279Y-111889584D01*
X107201394Y-111893422D01*
X107201784Y-111897399D01*
X107222074Y-111964602D01*
X107241661Y-112032021D01*
X107243500Y-112035569D01*
X107244655Y-112039394D01*
X107277609Y-112101372D01*
X107309920Y-112163706D01*
X107312413Y-112166829D01*
X107314290Y-112170359D01*
X107358665Y-112224768D01*
X107402458Y-112279627D01*
X107407941Y-112285187D01*
X107408036Y-112285303D01*
X107408144Y-112285392D01*
X107409909Y-112287182D01*
X110084264Y-114961537D01*
X110084264Y-117352415D01*
X107510448Y-114778599D01*
X107483368Y-114756356D01*
X107432894Y-114593366D01*
X107334100Y-114443441D01*
X107197450Y-114326975D01*
X107033763Y-114253190D01*
X106856000Y-114227928D01*
X105656000Y-114227928D01*
X105554879Y-114235992D01*
X105383366Y-114289106D01*
X105233441Y-114387900D01*
X105156775Y-114477852D01*
X105134100Y-114443441D01*
X104997450Y-114326975D01*
X104833763Y-114253190D01*
X104656000Y-114227928D01*
X103456000Y-114227928D01*
X103354879Y-114235992D01*
X103183366Y-114289106D01*
X103033441Y-114387900D01*
X102916975Y-114524550D01*
X102883805Y-114598136D01*
X102841760Y-114610351D01*
X102838212Y-114612190D01*
X102834387Y-114613345D01*
X102772390Y-114646309D01*
X102710074Y-114678611D01*
X102706953Y-114681103D01*
X102703422Y-114682980D01*
X102649007Y-114727359D01*
X102594154Y-114771148D01*
X102588594Y-114776631D01*
X102588478Y-114776726D01*
X102588389Y-114776834D01*
X102586599Y-114778599D01*
X100541899Y-116823299D01*
X100497341Y-116877545D01*
X100452214Y-116931325D01*
X100450289Y-116934826D01*
X100447752Y-116937915D01*
X100414587Y-116999767D01*
X100380757Y-117061304D01*
X100379548Y-117065116D01*
X100377661Y-117068635D01*
X100357148Y-117135731D01*
X100335908Y-117202687D01*
X100335462Y-117206659D01*
X100334294Y-117210481D01*
X100327197Y-117280349D01*
X100319374Y-117350089D01*
X100319320Y-117357894D01*
X100319304Y-117358047D01*
X100319318Y-117358190D01*
X100319300Y-117360700D01*
X100319300Y-125048572D01*
X100280265Y-125022490D01*
X100164703Y-124974623D01*
X100042022Y-124950220D01*
X99866450Y-124950220D01*
X99707700Y-125108970D01*
X99453700Y-125108970D01*
X99294950Y-124950220D01*
X99119378Y-124950220D01*
X98996697Y-124974623D01*
X98881135Y-125022490D01*
X98777131Y-125091983D01*
X98688683Y-125180431D01*
X98619190Y-125284435D01*
X98571323Y-125399997D01*
X98546920Y-125522678D01*
X97796252Y-125522678D01*
X97790265Y-125381247D01*
X98660223Y-119746248D01*
X100608121Y-114387550D01*
X103559763Y-109509256D01*
X107402729Y-105297174D01*
X111387464Y-102356829D01*
X116383007Y-102356829D01*
X116894561Y-103242867D01*
X117521344Y-102880994D01*
X118406642Y-102369867D01*
X117895088Y-101483829D01*
X117657738Y-101479102D01*
X117492613Y-101677060D01*
X117369281Y-101903428D01*
X117292480Y-102149508D01*
X117289190Y-102180383D01*
X117260806Y-102167795D01*
X117009294Y-102111266D01*
X116751587Y-102104891D01*
X116497588Y-102148915D01*
X116383007Y-102356829D01*
X111387464Y-102356829D01*
X111990632Y-101911750D01*
X113168634Y-101356829D01*
X118115058Y-101356829D01*
X118626612Y-102242867D01*
X119511910Y-101731740D01*
X119517373Y-101493967D01*
X119439241Y-101420781D01*
X119228507Y-101272306D01*
X118992857Y-101167795D01*
X118741345Y-101111266D01*
X118483638Y-101104891D01*
X118229639Y-101148915D01*
X118115058Y-101356829D01*
X113168634Y-101356829D01*
X117148730Y-99481927D01*
X122699098Y-98095626D01*
X124410000Y-97915803D01*
X124410000Y-98425000D01*
X124410000Y-98425000D01*
G37*
X124410000Y-98425000D02*
X124416290Y-98489145D01*
X124422133Y-98553356D01*
X124422812Y-98555662D01*
X124423046Y-98558051D01*
X124441666Y-98619723D01*
X124459879Y-98681606D01*
X124460992Y-98683736D01*
X124461686Y-98686033D01*
X124491916Y-98742886D01*
X124521816Y-98800081D01*
X124523323Y-98801955D01*
X124524449Y-98804073D01*
X124565157Y-98853986D01*
X124605586Y-98904269D01*
X124607427Y-98905813D01*
X124608944Y-98907674D01*
X124658616Y-98948766D01*
X124707998Y-98990203D01*
X124710102Y-98991360D01*
X124711953Y-98992891D01*
X124768639Y-99023541D01*
X124825150Y-99054608D01*
X124827442Y-99055335D01*
X124829552Y-99056476D01*
X124891084Y-99075524D01*
X124952580Y-99095031D01*
X124954968Y-99095299D01*
X124957262Y-99096009D01*
X125021366Y-99102746D01*
X125085436Y-99109933D01*
X125090050Y-99109965D01*
X125090218Y-99109983D01*
X125090386Y-99109968D01*
X125095000Y-99110000D01*
X128905000Y-99110000D01*
X128969145Y-99103710D01*
X129033356Y-99097867D01*
X129035662Y-99097188D01*
X129038051Y-99096954D01*
X129099723Y-99078334D01*
X129161606Y-99060121D01*
X129163736Y-99059008D01*
X129166033Y-99058314D01*
X129222886Y-99028084D01*
X129280081Y-98998184D01*
X129281955Y-98996677D01*
X129284073Y-98995551D01*
X129333986Y-98954843D01*
X129384269Y-98914414D01*
X129385813Y-98912573D01*
X129387674Y-98911056D01*
X129428766Y-98861384D01*
X129470203Y-98812002D01*
X129471360Y-98809898D01*
X129472891Y-98808047D01*
X129503541Y-98751361D01*
X129534608Y-98694850D01*
X129535335Y-98692558D01*
X129536476Y-98690448D01*
X129555524Y-98628916D01*
X129575031Y-98567420D01*
X129575299Y-98565032D01*
X129576009Y-98562738D01*
X129582746Y-98498634D01*
X129589933Y-98434564D01*
X129589965Y-98429950D01*
X129589983Y-98429782D01*
X129589968Y-98429614D01*
X129590000Y-98425000D01*
X129590000Y-97959570D01*
X134490845Y-98751253D01*
X139835817Y-100736515D01*
X144693387Y-103722142D01*
X148878532Y-107594415D01*
X152231846Y-112205843D01*
X154625598Y-117380777D01*
X155968613Y-122922107D01*
X156209735Y-128618753D01*
X155339778Y-134253751D01*
X153391879Y-139612450D01*
X150440237Y-144490744D01*
X146597271Y-148702826D01*
X142009368Y-152088250D01*
X136851272Y-154518073D01*
X131300909Y-155904372D01*
X129590000Y-156084197D01*
X129590000Y-155575000D01*
X129583710Y-155510855D01*
X129577867Y-155446644D01*
X129577188Y-155444338D01*
X129576954Y-155441949D01*
X129558334Y-155380277D01*
X129540121Y-155318394D01*
X129539008Y-155316264D01*
X129538314Y-155313967D01*
X129508084Y-155257114D01*
X129478184Y-155199919D01*
X129476677Y-155198045D01*
X129475551Y-155195927D01*
X129434843Y-155146014D01*
X129394414Y-155095731D01*
X129392573Y-155094187D01*
X129391056Y-155092326D01*
X129341384Y-155051234D01*
X129292002Y-155009797D01*
X129289898Y-155008640D01*
X129288047Y-155007109D01*
X129231361Y-154976459D01*
X129174850Y-154945392D01*
X129172558Y-154944665D01*
X129170448Y-154943524D01*
X129108916Y-154924476D01*
X129047420Y-154904969D01*
X129045032Y-154904701D01*
X129042738Y-154903991D01*
X128978634Y-154897254D01*
X128914564Y-154890067D01*
X128909950Y-154890035D01*
X128909782Y-154890017D01*
X128909614Y-154890032D01*
X128905000Y-154890000D01*
X125095000Y-154890000D01*
X125030855Y-154896290D01*
X124966644Y-154902133D01*
X124964338Y-154902812D01*
X124961949Y-154903046D01*
X124900277Y-154921666D01*
X124838394Y-154939879D01*
X124836264Y-154940992D01*
X124833967Y-154941686D01*
X124777114Y-154971916D01*
X124719919Y-155001816D01*
X124718045Y-155003323D01*
X124715927Y-155004449D01*
X124666014Y-155045157D01*
X124615731Y-155085586D01*
X124614187Y-155087427D01*
X124612326Y-155088944D01*
X124571234Y-155138616D01*
X124529797Y-155187998D01*
X124528640Y-155190102D01*
X124527109Y-155191953D01*
X124496459Y-155248639D01*
X124465392Y-155305150D01*
X124464665Y-155307442D01*
X124463524Y-155309552D01*
X124444476Y-155371084D01*
X124424969Y-155432580D01*
X124424701Y-155434968D01*
X124423991Y-155437262D01*
X124417254Y-155501366D01*
X124410067Y-155565436D01*
X124410035Y-155570050D01*
X124410017Y-155570218D01*
X124410032Y-155570386D01*
X124410000Y-155575000D01*
X124410000Y-156040430D01*
X119509155Y-155248747D01*
X114164185Y-153263486D01*
X109306613Y-150277858D01*
X105121468Y-146405585D01*
X101768154Y-141794157D01*
X99374402Y-136619223D01*
X98031387Y-131077893D01*
X97913882Y-128301750D01*
X98546920Y-128301750D01*
X98546920Y-128477322D01*
X98571323Y-128600003D01*
X98619190Y-128715565D01*
X98688683Y-128819569D01*
X98777131Y-128908017D01*
X98881135Y-128977510D01*
X98996697Y-129025377D01*
X99119378Y-129049780D01*
X99294950Y-129049780D01*
X99453700Y-128891030D01*
X99453700Y-128143000D01*
X98705670Y-128143000D01*
X98546920Y-128301750D01*
X97913882Y-128301750D01*
X97827873Y-126269750D01*
X98546920Y-126269750D01*
X98546920Y-126445322D01*
X98571323Y-126568003D01*
X98619190Y-126683565D01*
X98688683Y-126787569D01*
X98777131Y-126876017D01*
X98881135Y-126945510D01*
X98996697Y-126993377D01*
X99029993Y-127000000D01*
X98996697Y-127006623D01*
X98881135Y-127054490D01*
X98777131Y-127123983D01*
X98688683Y-127212431D01*
X98619190Y-127316435D01*
X98571323Y-127431997D01*
X98546920Y-127554678D01*
X98546920Y-127730250D01*
X98705670Y-127889000D01*
X99453700Y-127889000D01*
X99453700Y-127140970D01*
X99312730Y-127000000D01*
X99453700Y-126859030D01*
X99453700Y-126111000D01*
X98705670Y-126111000D01*
X98546920Y-126269750D01*
X97827873Y-126269750D01*
X97796252Y-125522678D01*
X98546920Y-125522678D01*
X98546920Y-125698250D01*
X98705670Y-125857000D01*
X99453700Y-125857000D01*
X99453700Y-125108970D01*
X99707700Y-125108970D01*
X99707700Y-125857000D01*
X99727700Y-125857000D01*
X99727700Y-126111000D01*
X99707700Y-126111000D01*
X99707700Y-126859030D01*
X99848670Y-127000000D01*
X99707700Y-127140970D01*
X99707700Y-127889000D01*
X99727700Y-127889000D01*
X99727700Y-128143000D01*
X99707700Y-128143000D01*
X99707700Y-128891030D01*
X99866450Y-129049780D01*
X100042022Y-129049780D01*
X100164703Y-129025377D01*
X100280265Y-128977510D01*
X100328818Y-128945068D01*
X100339070Y-128953805D01*
X100502757Y-129027590D01*
X100680520Y-129052852D01*
X101478080Y-129052852D01*
X101579201Y-129044788D01*
X101750714Y-128991674D01*
X101900639Y-128892880D01*
X102017105Y-128756230D01*
X102039197Y-128707221D01*
X102079671Y-128685701D01*
X102142005Y-128653390D01*
X102145128Y-128650897D01*
X102148658Y-128649020D01*
X102203067Y-128604645D01*
X102217372Y-128593226D01*
X102217372Y-132351470D01*
X102224223Y-132421347D01*
X102230341Y-132491273D01*
X102231456Y-132495111D01*
X102231846Y-132499088D01*
X102252136Y-132566291D01*
X102271723Y-132633710D01*
X102273562Y-132637258D01*
X102274717Y-132641083D01*
X102307671Y-132703061D01*
X102339982Y-132765395D01*
X102342475Y-132768518D01*
X102344352Y-132772048D01*
X102388727Y-132826457D01*
X102432520Y-132881316D01*
X102438003Y-132886876D01*
X102438098Y-132886992D01*
X102438206Y-132887081D01*
X102439971Y-132888871D01*
X104327631Y-134776531D01*
X104327631Y-135258254D01*
X103692600Y-135893285D01*
X103648033Y-135947541D01*
X103602915Y-136001311D01*
X103600990Y-136004812D01*
X103598453Y-136007901D01*
X103565288Y-136069753D01*
X103531458Y-136131290D01*
X103530249Y-136135102D01*
X103528362Y-136138621D01*
X103507849Y-136205717D01*
X103486609Y-136272673D01*
X103486163Y-136276645D01*
X103484995Y-136280467D01*
X103477898Y-136350335D01*
X103470075Y-136420075D01*
X103470021Y-136427880D01*
X103470005Y-136428033D01*
X103470019Y-136428176D01*
X103470001Y-136430686D01*
X103470001Y-143600001D01*
X103476852Y-143669878D01*
X103482970Y-143739804D01*
X103484085Y-143743642D01*
X103484475Y-143747619D01*
X103504765Y-143814822D01*
X103524352Y-143882241D01*
X103526191Y-143885789D01*
X103527346Y-143889614D01*
X103560300Y-143951592D01*
X103592611Y-144013926D01*
X103595104Y-144017049D01*
X103596981Y-144020579D01*
X103641356Y-144074988D01*
X103685149Y-144129847D01*
X103690632Y-144135407D01*
X103690727Y-144135523D01*
X103690835Y-144135612D01*
X103692600Y-144137402D01*
X110003305Y-150448107D01*
X110057561Y-150492674D01*
X110111331Y-150537792D01*
X110114832Y-150539717D01*
X110117921Y-150542254D01*
X110179808Y-150575438D01*
X110241310Y-150609249D01*
X110245118Y-150610457D01*
X110248641Y-150612346D01*
X110315824Y-150632886D01*
X110382693Y-150654098D01*
X110386660Y-150654543D01*
X110390487Y-150655713D01*
X110460405Y-150662815D01*
X110530095Y-150670632D01*
X110537900Y-150670686D01*
X110538053Y-150670702D01*
X110538196Y-150670688D01*
X110540706Y-150670706D01*
X114383892Y-150670706D01*
X114437297Y-150710071D01*
X114453134Y-150719360D01*
X114464156Y-150725722D01*
X114697888Y-150831717D01*
X114947757Y-150890296D01*
X115204244Y-150899225D01*
X115457581Y-150858166D01*
X115555601Y-150821701D01*
X115568913Y-150907628D01*
X115656715Y-151148785D01*
X115789686Y-151368294D01*
X115962762Y-151557795D01*
X116088076Y-151650165D01*
X116088076Y-151701157D01*
X116094927Y-151771034D01*
X116101045Y-151840960D01*
X116102160Y-151844798D01*
X116102550Y-151848775D01*
X116122840Y-151915978D01*
X116142427Y-151983397D01*
X116144266Y-151986945D01*
X116145421Y-151990770D01*
X116178375Y-152052748D01*
X116210686Y-152115082D01*
X116213179Y-152118205D01*
X116215056Y-152121735D01*
X116259431Y-152176144D01*
X116303224Y-152231003D01*
X116308707Y-152236563D01*
X116308802Y-152236679D01*
X116308910Y-152236768D01*
X116310675Y-152238558D01*
X117597072Y-153524956D01*
X117651354Y-153569543D01*
X117705099Y-153614641D01*
X117708600Y-153616566D01*
X117711689Y-153619103D01*
X117773541Y-153652268D01*
X117835078Y-153686098D01*
X117838890Y-153687307D01*
X117842409Y-153689194D01*
X117909517Y-153709711D01*
X117976461Y-153730947D01*
X117980432Y-153731392D01*
X117984254Y-153732561D01*
X118054084Y-153739654D01*
X118123863Y-153747481D01*
X118131678Y-153747536D01*
X118131821Y-153747550D01*
X118131954Y-153747537D01*
X118134474Y-153747555D01*
X120235541Y-153747555D01*
X120305418Y-153740704D01*
X120375344Y-153734586D01*
X120379182Y-153733471D01*
X120383159Y-153733081D01*
X120450362Y-153712791D01*
X120517781Y-153693204D01*
X120521329Y-153691365D01*
X120525154Y-153690210D01*
X120587132Y-153657256D01*
X120649466Y-153624945D01*
X120652589Y-153622452D01*
X120656119Y-153620575D01*
X120710528Y-153576200D01*
X120765387Y-153532407D01*
X120770947Y-153526924D01*
X120771063Y-153526829D01*
X120771152Y-153526721D01*
X120772942Y-153524956D01*
X127655681Y-146642217D01*
X128445782Y-146642217D01*
X128463726Y-146820867D01*
X128530729Y-146987445D01*
X129955729Y-149455617D01*
X130013274Y-149539159D01*
X130145028Y-149661136D01*
X130305549Y-149741578D01*
X130482124Y-149774115D01*
X130660774Y-149756171D01*
X130827352Y-149689168D01*
X133295524Y-148264168D01*
X133379066Y-148206623D01*
X133501043Y-148074869D01*
X133581485Y-147914348D01*
X133614022Y-147737773D01*
X133596078Y-147559123D01*
X133529075Y-147392545D01*
X132104075Y-144924373D01*
X132046530Y-144840831D01*
X131914776Y-144718854D01*
X131754255Y-144638412D01*
X131577680Y-144605875D01*
X131399030Y-144623819D01*
X131232452Y-144690822D01*
X128764280Y-146115822D01*
X128680738Y-146173367D01*
X128558761Y-146305121D01*
X128478319Y-146465642D01*
X128445782Y-146642217D01*
X127655681Y-146642217D01*
X131173331Y-143124567D01*
X134802856Y-149411088D01*
X134860401Y-149494630D01*
X134992155Y-149616607D01*
X135152676Y-149697049D01*
X135329251Y-149729586D01*
X135507901Y-149711643D01*
X135674479Y-149644639D01*
X142273593Y-145834639D01*
X142357135Y-145777094D01*
X142479112Y-145645340D01*
X142559554Y-145484819D01*
X142592091Y-145308244D01*
X142574148Y-145129594D01*
X142507144Y-144963016D01*
X138697144Y-138363902D01*
X138639599Y-138280360D01*
X138507845Y-138158383D01*
X138347324Y-138077941D01*
X138170749Y-138045404D01*
X137992099Y-138063347D01*
X137825521Y-138130351D01*
X133902713Y-140395185D01*
X138082174Y-136215724D01*
X138126741Y-136161468D01*
X138171859Y-136107698D01*
X138173784Y-136104197D01*
X138176321Y-136101108D01*
X138209505Y-136039221D01*
X138243316Y-135977719D01*
X138244524Y-135973911D01*
X138246413Y-135970388D01*
X138266953Y-135903205D01*
X138288165Y-135836336D01*
X138288610Y-135832369D01*
X138289780Y-135828542D01*
X138290787Y-135818633D01*
X138361684Y-135718129D01*
X138396078Y-135640880D01*
X138631928Y-135876730D01*
X138631928Y-136340000D01*
X138639992Y-136441121D01*
X138693106Y-136612634D01*
X138791900Y-136762559D01*
X138928550Y-136879025D01*
X139092237Y-136952810D01*
X139270000Y-136978072D01*
X140470000Y-136978072D01*
X140571121Y-136970008D01*
X140742634Y-136916894D01*
X140892559Y-136818100D01*
X140969225Y-136728148D01*
X140991900Y-136762559D01*
X141128550Y-136879025D01*
X141292237Y-136952810D01*
X141470000Y-136978072D01*
X142670000Y-136978072D01*
X142771121Y-136970008D01*
X142942634Y-136916894D01*
X143092559Y-136818100D01*
X143209025Y-136681450D01*
X143223202Y-136650000D01*
X145339112Y-136650000D01*
X145339942Y-136660411D01*
X145393056Y-136831924D01*
X145491850Y-136981849D01*
X145628500Y-137098315D01*
X145792187Y-137172100D01*
X145969950Y-137197362D01*
X146622905Y-137197362D01*
X146497391Y-137280070D01*
X146380925Y-137416720D01*
X146307140Y-137580407D01*
X146281878Y-137758170D01*
X146281878Y-138558270D01*
X146285000Y-138597419D01*
X146285000Y-138665000D01*
X143743819Y-138665000D01*
X143544271Y-138319373D01*
X143486726Y-138235831D01*
X143354972Y-138113854D01*
X143194451Y-138033412D01*
X143017876Y-138000875D01*
X142839226Y-138018819D01*
X142672648Y-138085822D01*
X140204476Y-139510822D01*
X140120934Y-139568367D01*
X139998957Y-139700121D01*
X139918515Y-139860642D01*
X139885978Y-140037217D01*
X139903922Y-140215867D01*
X139970925Y-140382445D01*
X141395925Y-142850617D01*
X141453470Y-142934159D01*
X141585224Y-143056136D01*
X141745745Y-143136578D01*
X141922320Y-143169115D01*
X142100970Y-143151171D01*
X142267548Y-143084168D01*
X144735720Y-141659168D01*
X144819262Y-141601623D01*
X144941239Y-141469869D01*
X145021681Y-141309348D01*
X145054218Y-141132773D01*
X145036274Y-140954123D01*
X144969271Y-140787545D01*
X144938934Y-140735000D01*
X146978270Y-140735000D01*
X147073456Y-140725667D01*
X147168659Y-140717338D01*
X147173882Y-140715820D01*
X147179303Y-140715289D01*
X147270848Y-140687650D01*
X147362636Y-140660983D01*
X147367469Y-140658478D01*
X147372678Y-140656905D01*
X147457066Y-140612035D01*
X147541971Y-140568024D01*
X147546226Y-140564627D01*
X147551030Y-140562073D01*
X147625088Y-140501673D01*
X147699836Y-140442003D01*
X147707416Y-140434528D01*
X147707566Y-140434406D01*
X147707681Y-140434267D01*
X147710126Y-140431856D01*
X148051855Y-140090126D01*
X148112541Y-140016246D01*
X148173992Y-139943011D01*
X148176613Y-139938243D01*
X148180069Y-139934036D01*
X148225249Y-139849775D01*
X148271305Y-139766000D01*
X148272951Y-139760811D01*
X148275522Y-139756016D01*
X148303453Y-139664657D01*
X148332383Y-139573459D01*
X148332990Y-139568045D01*
X148334580Y-139562845D01*
X148344234Y-139467803D01*
X148354899Y-139372721D01*
X148354973Y-139362076D01*
X148354993Y-139361883D01*
X148354976Y-139361703D01*
X148355000Y-139358270D01*
X148355000Y-138580239D01*
X148358122Y-138558270D01*
X148358122Y-137758170D01*
X148350058Y-137657049D01*
X148296944Y-137485536D01*
X148198150Y-137335611D01*
X148061500Y-137219145D01*
X147991120Y-137187420D01*
X148143000Y-137035540D01*
X148143000Y-136286240D01*
X148397000Y-136286240D01*
X148397000Y-137035540D01*
X148555750Y-137194290D01*
X148732592Y-137194290D01*
X148855273Y-137169887D01*
X148970835Y-137122020D01*
X149074839Y-137052527D01*
X149163287Y-136964079D01*
X149232780Y-136860075D01*
X149280647Y-136744513D01*
X149305050Y-136621832D01*
X149305050Y-136444990D01*
X149146300Y-136286240D01*
X148397000Y-136286240D01*
X148143000Y-136286240D01*
X148123000Y-136286240D01*
X148123000Y-136032240D01*
X148143000Y-136032240D01*
X148143000Y-135282940D01*
X148397000Y-135282940D01*
X148397000Y-136032240D01*
X149146300Y-136032240D01*
X149305050Y-135873490D01*
X149305050Y-135696648D01*
X149280647Y-135573967D01*
X149232780Y-135458405D01*
X149163287Y-135354401D01*
X149074839Y-135265953D01*
X148970835Y-135196460D01*
X148855273Y-135148593D01*
X148732592Y-135124190D01*
X148555750Y-135124190D01*
X148397000Y-135282940D01*
X148143000Y-135282940D01*
X147984250Y-135124190D01*
X147807408Y-135124190D01*
X147684727Y-135148593D01*
X147615729Y-135177173D01*
X148407901Y-134385000D01*
X149150000Y-134385000D01*
X149245186Y-134375667D01*
X149340389Y-134367338D01*
X149345612Y-134365820D01*
X149351033Y-134365289D01*
X149442578Y-134337650D01*
X149534366Y-134310983D01*
X149539199Y-134308478D01*
X149544408Y-134306905D01*
X149628796Y-134262035D01*
X149713701Y-134218024D01*
X149717956Y-134214627D01*
X149722760Y-134212073D01*
X149796818Y-134151673D01*
X149871566Y-134092003D01*
X149879146Y-134084528D01*
X149879296Y-134084406D01*
X149879411Y-134084267D01*
X149881856Y-134081856D01*
X150657554Y-133306157D01*
X150746406Y-133298071D01*
X150992608Y-133225610D01*
X151220046Y-133106708D01*
X151420057Y-132945895D01*
X151502028Y-132848206D01*
X151625083Y-132981713D01*
X151833417Y-133133537D01*
X152067367Y-133241800D01*
X152169814Y-133272872D01*
X152373000Y-133149254D01*
X152373000Y-132127000D01*
X152627000Y-132127000D01*
X152627000Y-133149254D01*
X152830186Y-133272872D01*
X152932633Y-133241800D01*
X153166583Y-133133537D01*
X153374917Y-132981713D01*
X153549628Y-132792162D01*
X153684003Y-132572169D01*
X153772877Y-132330187D01*
X153650108Y-132127000D01*
X152627000Y-132127000D01*
X152373000Y-132127000D01*
X152353000Y-132127000D01*
X152353000Y-131873000D01*
X152373000Y-131873000D01*
X152373000Y-131853000D01*
X152627000Y-131853000D01*
X152627000Y-131873000D01*
X153650108Y-131873000D01*
X153772877Y-131669813D01*
X153684003Y-131427831D01*
X153549628Y-131207838D01*
X153374917Y-131018287D01*
X153351366Y-131001124D01*
X153420057Y-130945895D01*
X153585024Y-130749295D01*
X153708663Y-130524397D01*
X153786264Y-130279767D01*
X153814872Y-130024723D01*
X153815000Y-130006363D01*
X153815000Y-129993637D01*
X153789956Y-129738219D01*
X153715778Y-129492529D01*
X153595291Y-129265927D01*
X153433086Y-129067043D01*
X153352399Y-129000293D01*
X153420057Y-128945895D01*
X153585024Y-128749295D01*
X153708663Y-128524397D01*
X153786264Y-128279767D01*
X153814872Y-128024723D01*
X153815000Y-128006363D01*
X153815000Y-127993637D01*
X153789956Y-127738219D01*
X153715778Y-127492529D01*
X153595291Y-127265927D01*
X153433086Y-127067043D01*
X153352399Y-127000293D01*
X153420057Y-126945895D01*
X153585024Y-126749295D01*
X153708663Y-126524397D01*
X153786264Y-126279767D01*
X153814872Y-126024723D01*
X153815000Y-126006363D01*
X153815000Y-125993637D01*
X153789956Y-125738219D01*
X153715778Y-125492529D01*
X153595291Y-125265927D01*
X153433086Y-125067043D01*
X153352399Y-125000293D01*
X153420057Y-124945895D01*
X153585024Y-124749295D01*
X153708663Y-124524397D01*
X153786264Y-124279767D01*
X153814872Y-124024723D01*
X153815000Y-124006363D01*
X153815000Y-123993637D01*
X153789956Y-123738219D01*
X153715778Y-123492529D01*
X153595291Y-123265927D01*
X153540632Y-123198908D01*
X153602559Y-123158100D01*
X153719025Y-123021450D01*
X153792810Y-122857763D01*
X153818072Y-122680000D01*
X153818072Y-121320000D01*
X153810008Y-121218879D01*
X153756894Y-121047366D01*
X153658100Y-120897441D01*
X153521450Y-120780975D01*
X153357763Y-120707190D01*
X153180000Y-120681928D01*
X151820000Y-120681928D01*
X151718879Y-120689992D01*
X151547366Y-120743106D01*
X151397441Y-120841900D01*
X151299642Y-120956648D01*
X151235339Y-120903453D01*
X151009583Y-120781387D01*
X150764417Y-120705496D01*
X150509180Y-120678669D01*
X150253594Y-120701929D01*
X150007392Y-120774390D01*
X149779954Y-120893292D01*
X149579943Y-121054105D01*
X149414976Y-121250705D01*
X149291337Y-121475603D01*
X149213736Y-121720233D01*
X149185128Y-121975277D01*
X149185000Y-121993637D01*
X149185000Y-122006363D01*
X149210044Y-122261781D01*
X149284222Y-122507471D01*
X149404709Y-122734073D01*
X149566914Y-122932957D01*
X149647601Y-122999707D01*
X149579943Y-123054105D01*
X149414976Y-123250705D01*
X149291337Y-123475603D01*
X149213736Y-123720233D01*
X149185128Y-123975277D01*
X149185000Y-123993637D01*
X149185000Y-124006363D01*
X149210044Y-124261781D01*
X149284222Y-124507471D01*
X149404709Y-124734073D01*
X149566914Y-124932957D01*
X149647601Y-124999707D01*
X149579943Y-125054105D01*
X149414976Y-125250705D01*
X149291337Y-125475603D01*
X149233315Y-125658513D01*
X149040418Y-125465616D01*
X149040418Y-120408670D01*
X149033567Y-120338793D01*
X149027449Y-120268867D01*
X149026334Y-120265029D01*
X149025944Y-120261052D01*
X149005654Y-120193849D01*
X148986067Y-120126430D01*
X148984228Y-120122882D01*
X148983073Y-120119057D01*
X148950119Y-120057079D01*
X148917808Y-119994745D01*
X148915315Y-119991622D01*
X148913438Y-119988092D01*
X148869063Y-119933683D01*
X148825270Y-119878824D01*
X148819787Y-119873264D01*
X148819692Y-119873148D01*
X148819584Y-119873059D01*
X148817819Y-119871269D01*
X147173684Y-118227134D01*
X147119428Y-118182567D01*
X147065658Y-118137449D01*
X147062157Y-118135524D01*
X147059068Y-118132987D01*
X146997216Y-118099822D01*
X146935679Y-118065992D01*
X146931867Y-118064783D01*
X146928348Y-118062896D01*
X146861252Y-118042383D01*
X146794296Y-118021143D01*
X146790324Y-118020697D01*
X146786502Y-118019529D01*
X146716634Y-118012432D01*
X146646894Y-118004609D01*
X146639089Y-118004555D01*
X146638936Y-118004539D01*
X146638793Y-118004553D01*
X146636283Y-118004535D01*
X140944608Y-118004535D01*
X140846090Y-117938084D01*
X140677055Y-117867028D01*
X140497437Y-117830158D01*
X140314079Y-117828878D01*
X140133963Y-117863236D01*
X139963952Y-117931925D01*
X139810521Y-118032328D01*
X139679513Y-118160621D01*
X139575919Y-118311916D01*
X139503684Y-118480451D01*
X139496726Y-118513184D01*
X139337007Y-118543651D01*
X139166996Y-118612340D01*
X139013565Y-118712743D01*
X138882557Y-118841036D01*
X138778963Y-118992331D01*
X138706728Y-119160866D01*
X138668605Y-119340222D01*
X138666045Y-119523567D01*
X138699146Y-119703918D01*
X138766646Y-119874404D01*
X138865975Y-120028533D01*
X138993350Y-120160434D01*
X139143918Y-120265081D01*
X139311945Y-120338490D01*
X139464362Y-120372001D01*
X139517206Y-120416343D01*
X139520707Y-120418268D01*
X139523796Y-120420805D01*
X139585683Y-120453989D01*
X139647185Y-120487800D01*
X139650993Y-120489008D01*
X139654516Y-120490897D01*
X139721699Y-120511437D01*
X139788568Y-120532649D01*
X139792535Y-120533094D01*
X139796362Y-120534264D01*
X139866280Y-120541366D01*
X139935970Y-120549183D01*
X139943775Y-120549237D01*
X139943928Y-120549253D01*
X139944071Y-120549239D01*
X139946581Y-120549257D01*
X146133443Y-120549257D01*
X146560000Y-120975814D01*
X146560000Y-126820000D01*
X146566851Y-126889877D01*
X146572969Y-126959803D01*
X146574084Y-126963641D01*
X146574474Y-126967618D01*
X146594764Y-127034821D01*
X146614351Y-127102240D01*
X146616190Y-127105788D01*
X146617345Y-127109613D01*
X146650299Y-127171591D01*
X146682610Y-127233925D01*
X146685103Y-127237048D01*
X146686980Y-127240578D01*
X146731355Y-127294987D01*
X146775148Y-127349846D01*
X146780631Y-127355406D01*
X146780726Y-127355522D01*
X146780834Y-127355611D01*
X146782599Y-127357401D01*
X149206847Y-129781649D01*
X149185128Y-129975277D01*
X149185000Y-129993637D01*
X149185000Y-130006363D01*
X149210044Y-130261781D01*
X149284222Y-130507471D01*
X149404709Y-130734073D01*
X149566914Y-130932957D01*
X149647601Y-130999707D01*
X149579943Y-131054105D01*
X149414976Y-131250705D01*
X149291337Y-131475603D01*
X149213736Y-131720233D01*
X149200809Y-131835480D01*
X148721288Y-132315000D01*
X147979190Y-132315000D01*
X147884004Y-132324333D01*
X147788801Y-132332662D01*
X147783578Y-132334180D01*
X147778157Y-132334711D01*
X147686612Y-132362350D01*
X147594824Y-132389017D01*
X147589991Y-132391522D01*
X147584782Y-132393095D01*
X147500414Y-132437954D01*
X147415488Y-132481976D01*
X147411231Y-132485374D01*
X147406430Y-132487927D01*
X147332364Y-132548334D01*
X147257624Y-132607998D01*
X147250050Y-132615467D01*
X147249894Y-132615594D01*
X147249775Y-132615738D01*
X147247334Y-132618145D01*
X146370000Y-133495478D01*
X144751001Y-131876479D01*
X144677064Y-131815747D01*
X144603886Y-131754343D01*
X144599122Y-131751724D01*
X144594911Y-131748265D01*
X144510595Y-131703056D01*
X144426875Y-131657030D01*
X144421688Y-131655384D01*
X144416890Y-131652812D01*
X144386332Y-131643470D01*
X144682401Y-131347401D01*
X144726968Y-131293145D01*
X144772086Y-131239375D01*
X144774011Y-131235874D01*
X144776548Y-131232785D01*
X144809732Y-131170898D01*
X144843543Y-131109396D01*
X144844751Y-131105588D01*
X144846640Y-131102065D01*
X144867180Y-131034882D01*
X144888392Y-130968013D01*
X144888837Y-130964046D01*
X144890007Y-130960219D01*
X144897109Y-130890301D01*
X144904926Y-130820611D01*
X144904980Y-130812806D01*
X144904996Y-130812653D01*
X144904982Y-130812510D01*
X144905000Y-130810000D01*
X144905000Y-130625000D01*
X144959250Y-130625000D01*
X145118000Y-130466250D01*
X145118000Y-129667000D01*
X145372000Y-129667000D01*
X145372000Y-130466250D01*
X145530750Y-130625000D01*
X145907542Y-130625000D01*
X146030223Y-130600597D01*
X146145785Y-130552730D01*
X146249789Y-130483237D01*
X146338237Y-130394789D01*
X146407730Y-130290785D01*
X146455597Y-130175223D01*
X146480000Y-130052542D01*
X146480000Y-129825750D01*
X146321250Y-129667000D01*
X145372000Y-129667000D01*
X145118000Y-129667000D01*
X145098000Y-129667000D01*
X145098000Y-129413000D01*
X145118000Y-129413000D01*
X145118000Y-128613750D01*
X145372000Y-128613750D01*
X145372000Y-129413000D01*
X146321250Y-129413000D01*
X146480000Y-129254250D01*
X146480000Y-129027458D01*
X146455597Y-128904777D01*
X146407730Y-128789215D01*
X146338237Y-128685211D01*
X146249789Y-128596763D01*
X146145785Y-128527270D01*
X146030223Y-128479403D01*
X145907542Y-128455000D01*
X145530750Y-128455000D01*
X145372000Y-128613750D01*
X145118000Y-128613750D01*
X144959250Y-128455000D01*
X144905000Y-128455000D01*
X144905000Y-127670060D01*
X144968000Y-127607060D01*
X144968000Y-126857760D01*
X145222000Y-126857760D01*
X145222000Y-127607060D01*
X145380750Y-127765810D01*
X145557592Y-127765810D01*
X145680273Y-127741407D01*
X145795835Y-127693540D01*
X145899839Y-127624047D01*
X145988287Y-127535599D01*
X146057780Y-127431595D01*
X146105647Y-127316033D01*
X146130050Y-127193352D01*
X146130050Y-127016510D01*
X145971300Y-126857760D01*
X145222000Y-126857760D01*
X144968000Y-126857760D01*
X144948000Y-126857760D01*
X144948000Y-126603760D01*
X144968000Y-126603760D01*
X144968000Y-125854460D01*
X145222000Y-125854460D01*
X145222000Y-126603760D01*
X145971300Y-126603760D01*
X146130050Y-126445010D01*
X146130050Y-126268168D01*
X146105647Y-126145487D01*
X146057780Y-126029925D01*
X145988287Y-125925921D01*
X145899839Y-125837473D01*
X145795835Y-125767980D01*
X145680273Y-125720113D01*
X145557592Y-125695710D01*
X145380750Y-125695710D01*
X145222000Y-125854460D01*
X144968000Y-125854460D01*
X144905000Y-125791460D01*
X144905000Y-125651187D01*
X144967609Y-125609930D01*
X145084075Y-125473280D01*
X145157860Y-125309593D01*
X145183122Y-125131830D01*
X145183122Y-124331730D01*
X145175058Y-124230609D01*
X145121944Y-124059096D01*
X145023150Y-123909171D01*
X145021255Y-123907556D01*
X145062240Y-123895649D01*
X145065788Y-123893810D01*
X145069613Y-123892655D01*
X145131591Y-123859701D01*
X145193925Y-123827390D01*
X145197048Y-123824897D01*
X145200578Y-123823020D01*
X145254987Y-123778645D01*
X145309846Y-123734852D01*
X145315406Y-123729369D01*
X145315522Y-123729274D01*
X145315611Y-123729166D01*
X145317401Y-123727401D01*
X145782401Y-123262401D01*
X145826968Y-123208145D01*
X145872086Y-123154375D01*
X145874011Y-123150874D01*
X145876548Y-123147785D01*
X145909713Y-123085933D01*
X145943543Y-123024396D01*
X145944752Y-123020584D01*
X145946639Y-123017065D01*
X145952453Y-122998047D01*
X146117634Y-122946894D01*
X146267559Y-122848100D01*
X146384025Y-122711450D01*
X146457810Y-122547763D01*
X146483072Y-122370000D01*
X146483072Y-121470000D01*
X146475008Y-121368879D01*
X146421894Y-121197366D01*
X146323100Y-121047441D01*
X146186450Y-120930975D01*
X146022763Y-120857190D01*
X145845000Y-120831928D01*
X144645000Y-120831928D01*
X144543879Y-120839992D01*
X144372366Y-120893106D01*
X144222441Y-120991900D01*
X144145775Y-121081852D01*
X144123100Y-121047441D01*
X143986450Y-120930975D01*
X143822763Y-120857190D01*
X143645000Y-120831928D01*
X142445000Y-120831928D01*
X142343879Y-120839992D01*
X142172366Y-120893106D01*
X142022441Y-120991900D01*
X141905975Y-121128550D01*
X141891798Y-121160000D01*
X140270927Y-121160000D01*
X140201050Y-121166851D01*
X140131124Y-121172969D01*
X140127286Y-121174084D01*
X140123309Y-121174474D01*
X140056106Y-121194764D01*
X139988687Y-121214351D01*
X139985139Y-121216190D01*
X139981314Y-121217345D01*
X139919356Y-121250288D01*
X139857001Y-121282610D01*
X139853876Y-121285105D01*
X139850349Y-121286980D01*
X139795962Y-121331337D01*
X139741081Y-121375148D01*
X139735521Y-121380631D01*
X139735405Y-121380726D01*
X139735316Y-121380834D01*
X139733526Y-121382599D01*
X138922148Y-122193977D01*
X138808753Y-122215608D01*
X138638742Y-122284297D01*
X138485311Y-122384700D01*
X138354303Y-122512993D01*
X138250709Y-122664288D01*
X138178474Y-122832823D01*
X138140351Y-123012179D01*
X138137791Y-123195524D01*
X138170892Y-123375875D01*
X138238392Y-123546361D01*
X138337721Y-123700490D01*
X138465096Y-123832391D01*
X138615664Y-123937038D01*
X138783691Y-124010447D01*
X138962777Y-124049822D01*
X139033886Y-124051312D01*
X138123784Y-124961414D01*
X138036185Y-124873815D01*
X138036133Y-124873780D01*
X138036083Y-124873713D01*
X137892499Y-124765911D01*
X137792499Y-124710911D01*
X137756853Y-124699374D01*
X137695787Y-124667750D01*
X137619990Y-124641221D01*
X137619990Y-117834763D01*
X137613138Y-117764882D01*
X137607021Y-117694960D01*
X137605906Y-117691122D01*
X137605516Y-117687145D01*
X137585236Y-117619975D01*
X137565640Y-117552524D01*
X137563799Y-117548973D01*
X137562645Y-117545150D01*
X137529700Y-117483189D01*
X137497380Y-117420838D01*
X137494887Y-117417715D01*
X137493010Y-117414185D01*
X137448635Y-117359776D01*
X137404842Y-117304917D01*
X137399359Y-117299357D01*
X137399264Y-117299241D01*
X137399156Y-117299152D01*
X137397391Y-117297362D01*
X133434550Y-113334521D01*
X137825521Y-115869649D01*
X137917127Y-115913226D01*
X138092218Y-115952984D01*
X138271454Y-115942388D01*
X138440642Y-115882279D01*
X138586385Y-115777414D01*
X138697144Y-115636098D01*
X139708572Y-113884252D01*
X139887590Y-113884252D01*
X139898186Y-114063488D01*
X139958295Y-114232675D01*
X140063160Y-114378419D01*
X140204476Y-114489178D01*
X142672648Y-115914178D01*
X142764254Y-115957755D01*
X142939345Y-115997513D01*
X143118581Y-115986917D01*
X143287768Y-115926808D01*
X143433512Y-115821943D01*
X143544271Y-115680627D01*
X144969271Y-113212455D01*
X145012848Y-113120849D01*
X145052606Y-112945758D01*
X145042010Y-112766522D01*
X144981901Y-112597335D01*
X144877036Y-112451591D01*
X144735720Y-112340832D01*
X142267548Y-110915832D01*
X142175942Y-110872255D01*
X142000851Y-110832497D01*
X141821615Y-110843093D01*
X141652428Y-110903202D01*
X141506684Y-111008067D01*
X141395925Y-111149383D01*
X139970925Y-113617555D01*
X139927348Y-113709161D01*
X139887590Y-113884252D01*
X139708572Y-113884252D01*
X142507144Y-109036984D01*
X142550721Y-108945378D01*
X142590479Y-108770287D01*
X142579883Y-108591051D01*
X142519774Y-108421863D01*
X142414909Y-108276120D01*
X142273593Y-108165361D01*
X135674479Y-104355361D01*
X135582873Y-104311784D01*
X135407782Y-104272026D01*
X135228546Y-104282622D01*
X135059358Y-104342731D01*
X134913615Y-104447596D01*
X134802856Y-104588912D01*
X131100906Y-111000877D01*
X127379281Y-107279252D01*
X128447394Y-107279252D01*
X128457990Y-107458488D01*
X128518099Y-107627675D01*
X128622964Y-107773419D01*
X128764280Y-107884178D01*
X131232452Y-109309178D01*
X131324058Y-109352755D01*
X131499149Y-109392513D01*
X131678385Y-109381917D01*
X131847572Y-109321808D01*
X131993316Y-109216943D01*
X132104075Y-109075627D01*
X133529075Y-106607455D01*
X133572652Y-106515849D01*
X133612410Y-106340758D01*
X133601814Y-106161522D01*
X133541705Y-105992335D01*
X133436840Y-105846591D01*
X133295524Y-105735832D01*
X130827352Y-104310832D01*
X130735746Y-104267255D01*
X130560655Y-104227497D01*
X130381419Y-104238093D01*
X130212232Y-104298202D01*
X130066488Y-104403067D01*
X129955729Y-104544383D01*
X128530729Y-107012555D01*
X128487152Y-107104161D01*
X128447394Y-107279252D01*
X127379281Y-107279252D01*
X126059634Y-105959605D01*
X126005378Y-105915038D01*
X125951608Y-105869920D01*
X125948107Y-105867995D01*
X125945018Y-105865458D01*
X125883166Y-105832293D01*
X125821629Y-105798463D01*
X125817817Y-105797254D01*
X125814298Y-105795367D01*
X125747202Y-105774854D01*
X125680246Y-105753614D01*
X125676274Y-105753168D01*
X125672452Y-105752000D01*
X125602584Y-105744903D01*
X125532844Y-105737080D01*
X125525039Y-105737026D01*
X125524886Y-105737010D01*
X125524743Y-105737024D01*
X125522233Y-105737006D01*
X121807599Y-105737006D01*
X121709081Y-105670555D01*
X121540046Y-105599499D01*
X121360428Y-105562629D01*
X121177070Y-105561349D01*
X120996954Y-105595707D01*
X120826943Y-105664396D01*
X120673512Y-105764799D01*
X120542504Y-105893092D01*
X120438910Y-106044387D01*
X120366675Y-106212922D01*
X120328552Y-106392278D01*
X120326280Y-106555000D01*
X118795398Y-106555000D01*
X118696880Y-106488549D01*
X118594273Y-106445417D01*
X118600174Y-106387319D01*
X118608002Y-106317535D01*
X118608057Y-106309720D01*
X118608071Y-106309577D01*
X118608058Y-106309444D01*
X118608076Y-106306924D01*
X118608076Y-106214607D01*
X118719659Y-106134739D01*
X118895363Y-105947673D01*
X119031386Y-105730042D01*
X119122547Y-105490136D01*
X119140044Y-105386752D01*
X119220852Y-105418105D01*
X119473591Y-105462698D01*
X119730179Y-105457350D01*
X119980841Y-105402266D01*
X120216030Y-105299544D01*
X120231996Y-105290477D01*
X120243017Y-105284115D01*
X120451710Y-105134739D01*
X120627414Y-104947673D01*
X120763437Y-104730042D01*
X120854598Y-104490136D01*
X120897425Y-104237091D01*
X120890286Y-103980547D01*
X120833453Y-103730276D01*
X120729092Y-103495809D01*
X120581178Y-103286080D01*
X120395342Y-103109073D01*
X120178666Y-102971534D01*
X119939402Y-102878701D01*
X119813680Y-102856519D01*
X119867774Y-102683196D01*
X119895090Y-102426861D01*
X119871874Y-102170123D01*
X119847559Y-102065865D01*
X119638910Y-101951710D01*
X118753612Y-102462837D01*
X118763612Y-102480158D01*
X118543642Y-102607158D01*
X118533642Y-102589837D01*
X117906859Y-102951710D01*
X117021561Y-103462837D01*
X117031561Y-103480158D01*
X116811591Y-103607158D01*
X116801591Y-103589837D01*
X116784270Y-103599837D01*
X116657270Y-103379867D01*
X116674591Y-103369867D01*
X116163037Y-102483829D01*
X115925687Y-102479102D01*
X115760562Y-102677060D01*
X115637230Y-102903428D01*
X115560429Y-103149508D01*
X115557341Y-103178482D01*
X115475300Y-103146650D01*
X115222560Y-103102057D01*
X114965973Y-103107405D01*
X114715311Y-103162489D01*
X114480121Y-103265211D01*
X114464156Y-103274278D01*
X114453134Y-103280640D01*
X114244442Y-103430016D01*
X114068738Y-103617082D01*
X113932715Y-103834714D01*
X113841554Y-104074620D01*
X113824057Y-104178003D01*
X113743250Y-104146650D01*
X113490510Y-104102057D01*
X113233923Y-104107405D01*
X113152465Y-104125306D01*
X113133351Y-104109267D01*
X113129850Y-104107342D01*
X113126761Y-104104805D01*
X113064909Y-104071640D01*
X113003372Y-104037810D01*
X112999560Y-104036601D01*
X112996041Y-104034714D01*
X112928945Y-104014201D01*
X112861989Y-103992961D01*
X112858017Y-103992515D01*
X112854195Y-103991347D01*
X112784327Y-103984250D01*
X112714587Y-103976427D01*
X112706782Y-103976373D01*
X112706629Y-103976357D01*
X112706486Y-103976371D01*
X112703976Y-103976353D01*
X109901770Y-103976353D01*
X109831889Y-103983205D01*
X109761967Y-103989322D01*
X109758129Y-103990437D01*
X109754152Y-103990827D01*
X109686982Y-104011107D01*
X109619531Y-104030703D01*
X109615980Y-104032544D01*
X109612157Y-104033698D01*
X109550196Y-104066643D01*
X109487845Y-104098963D01*
X109484722Y-104101456D01*
X109481192Y-104103333D01*
X109426783Y-104147708D01*
X109371924Y-104191501D01*
X109366364Y-104196984D01*
X109366248Y-104197079D01*
X109366159Y-104197187D01*
X109364369Y-104198952D01*
X107409909Y-106153412D01*
X107365342Y-106207668D01*
X107320224Y-106261438D01*
X107318299Y-106264939D01*
X107315762Y-106268028D01*
X107282597Y-106329880D01*
X107248767Y-106391417D01*
X107247558Y-106395229D01*
X107245671Y-106398748D01*
X107225158Y-106465844D01*
X107203918Y-106532800D01*
X107203472Y-106536772D01*
X107202304Y-106540594D01*
X107195207Y-106610462D01*
X107187384Y-106680202D01*
X107187330Y-106688007D01*
X107187314Y-106688160D01*
X107187328Y-106688303D01*
X107187310Y-106690813D01*
X107187310Y-111749781D01*
X107194161Y-111819658D01*
X107200279Y-111889584D01*
X107201394Y-111893422D01*
X107201784Y-111897399D01*
X107222074Y-111964602D01*
X107241661Y-112032021D01*
X107243500Y-112035569D01*
X107244655Y-112039394D01*
X107277609Y-112101372D01*
X107309920Y-112163706D01*
X107312413Y-112166829D01*
X107314290Y-112170359D01*
X107358665Y-112224768D01*
X107402458Y-112279627D01*
X107407941Y-112285187D01*
X107408036Y-112285303D01*
X107408144Y-112285392D01*
X107409909Y-112287182D01*
X110084264Y-114961537D01*
X110084264Y-117352415D01*
X107510448Y-114778599D01*
X107483368Y-114756356D01*
X107432894Y-114593366D01*
X107334100Y-114443441D01*
X107197450Y-114326975D01*
X107033763Y-114253190D01*
X106856000Y-114227928D01*
X105656000Y-114227928D01*
X105554879Y-114235992D01*
X105383366Y-114289106D01*
X105233441Y-114387900D01*
X105156775Y-114477852D01*
X105134100Y-114443441D01*
X104997450Y-114326975D01*
X104833763Y-114253190D01*
X104656000Y-114227928D01*
X103456000Y-114227928D01*
X103354879Y-114235992D01*
X103183366Y-114289106D01*
X103033441Y-114387900D01*
X102916975Y-114524550D01*
X102883805Y-114598136D01*
X102841760Y-114610351D01*
X102838212Y-114612190D01*
X102834387Y-114613345D01*
X102772390Y-114646309D01*
X102710074Y-114678611D01*
X102706953Y-114681103D01*
X102703422Y-114682980D01*
X102649007Y-114727359D01*
X102594154Y-114771148D01*
X102588594Y-114776631D01*
X102588478Y-114776726D01*
X102588389Y-114776834D01*
X102586599Y-114778599D01*
X100541899Y-116823299D01*
X100497341Y-116877545D01*
X100452214Y-116931325D01*
X100450289Y-116934826D01*
X100447752Y-116937915D01*
X100414587Y-116999767D01*
X100380757Y-117061304D01*
X100379548Y-117065116D01*
X100377661Y-117068635D01*
X100357148Y-117135731D01*
X100335908Y-117202687D01*
X100335462Y-117206659D01*
X100334294Y-117210481D01*
X100327197Y-117280349D01*
X100319374Y-117350089D01*
X100319320Y-117357894D01*
X100319304Y-117358047D01*
X100319318Y-117358190D01*
X100319300Y-117360700D01*
X100319300Y-125048572D01*
X100280265Y-125022490D01*
X100164703Y-124974623D01*
X100042022Y-124950220D01*
X99866450Y-124950220D01*
X99707700Y-125108970D01*
X99453700Y-125108970D01*
X99294950Y-124950220D01*
X99119378Y-124950220D01*
X98996697Y-124974623D01*
X98881135Y-125022490D01*
X98777131Y-125091983D01*
X98688683Y-125180431D01*
X98619190Y-125284435D01*
X98571323Y-125399997D01*
X98546920Y-125522678D01*
X97796252Y-125522678D01*
X97790265Y-125381247D01*
X98660223Y-119746248D01*
X100608121Y-114387550D01*
X103559763Y-109509256D01*
X107402729Y-105297174D01*
X111387464Y-102356829D01*
X116383007Y-102356829D01*
X116894561Y-103242867D01*
X117521344Y-102880994D01*
X118406642Y-102369867D01*
X117895088Y-101483829D01*
X117657738Y-101479102D01*
X117492613Y-101677060D01*
X117369281Y-101903428D01*
X117292480Y-102149508D01*
X117289190Y-102180383D01*
X117260806Y-102167795D01*
X117009294Y-102111266D01*
X116751587Y-102104891D01*
X116497588Y-102148915D01*
X116383007Y-102356829D01*
X111387464Y-102356829D01*
X111990632Y-101911750D01*
X113168634Y-101356829D01*
X118115058Y-101356829D01*
X118626612Y-102242867D01*
X119511910Y-101731740D01*
X119517373Y-101493967D01*
X119439241Y-101420781D01*
X119228507Y-101272306D01*
X118992857Y-101167795D01*
X118741345Y-101111266D01*
X118483638Y-101104891D01*
X118229639Y-101148915D01*
X118115058Y-101356829D01*
X113168634Y-101356829D01*
X117148730Y-99481927D01*
X122699098Y-98095626D01*
X124410000Y-97915803D01*
X124410000Y-98425000D01*
G36*
X106072237Y-143302810D02*
X106195170Y-143320280D01*
X106212610Y-143353925D01*
X106215103Y-143357048D01*
X106216980Y-143360578D01*
X106261355Y-143414987D01*
X106305148Y-143469846D01*
X106310631Y-143475406D01*
X106310726Y-143475522D01*
X106310834Y-143475611D01*
X106312599Y-143477401D01*
X108224196Y-145388998D01*
X108278452Y-145433565D01*
X108332222Y-145478683D01*
X108335723Y-145480608D01*
X108338812Y-145483145D01*
X108400664Y-145516310D01*
X108462201Y-145550140D01*
X108466013Y-145551349D01*
X108469532Y-145553236D01*
X108536628Y-145573749D01*
X108603584Y-145594989D01*
X108607556Y-145595435D01*
X108611378Y-145596603D01*
X108681202Y-145603695D01*
X108750986Y-145611523D01*
X108758801Y-145611578D01*
X108758944Y-145611592D01*
X108759077Y-145611579D01*
X108761597Y-145611597D01*
X109035649Y-145611597D01*
X108982627Y-145661263D01*
X108988090Y-145899036D01*
X109873388Y-146410163D01*
X109883388Y-146392842D01*
X110103358Y-146519842D01*
X110093358Y-146537163D01*
X110978656Y-147048290D01*
X111605439Y-147410163D01*
X111615439Y-147392842D01*
X111835409Y-147519842D01*
X111825409Y-147537163D01*
X111842730Y-147547163D01*
X111715730Y-147767133D01*
X111698409Y-147757133D01*
X111688409Y-147774454D01*
X111468439Y-147647454D01*
X111478439Y-147630133D01*
X110593141Y-147119006D01*
X109966358Y-146757133D01*
X109956358Y-146774454D01*
X109736388Y-146647454D01*
X109746388Y-146630133D01*
X108861464Y-146119222D01*
X106022741Y-143280499D01*
X106072237Y-143302810D01*
X106072237Y-143302810D01*
G37*
X106072237Y-143302810D02*
X106195170Y-143320280D01*
X106212610Y-143353925D01*
X106215103Y-143357048D01*
X106216980Y-143360578D01*
X106261355Y-143414987D01*
X106305148Y-143469846D01*
X106310631Y-143475406D01*
X106310726Y-143475522D01*
X106310834Y-143475611D01*
X106312599Y-143477401D01*
X108224196Y-145388998D01*
X108278452Y-145433565D01*
X108332222Y-145478683D01*
X108335723Y-145480608D01*
X108338812Y-145483145D01*
X108400664Y-145516310D01*
X108462201Y-145550140D01*
X108466013Y-145551349D01*
X108469532Y-145553236D01*
X108536628Y-145573749D01*
X108603584Y-145594989D01*
X108607556Y-145595435D01*
X108611378Y-145596603D01*
X108681202Y-145603695D01*
X108750986Y-145611523D01*
X108758801Y-145611578D01*
X108758944Y-145611592D01*
X108759077Y-145611579D01*
X108761597Y-145611597D01*
X109035649Y-145611597D01*
X108982627Y-145661263D01*
X108988090Y-145899036D01*
X109873388Y-146410163D01*
X109883388Y-146392842D01*
X110103358Y-146519842D01*
X110093358Y-146537163D01*
X110978656Y-147048290D01*
X111605439Y-147410163D01*
X111615439Y-147392842D01*
X111835409Y-147519842D01*
X111825409Y-147537163D01*
X111842730Y-147547163D01*
X111715730Y-147767133D01*
X111698409Y-147757133D01*
X111688409Y-147774454D01*
X111468439Y-147647454D01*
X111478439Y-147630133D01*
X110593141Y-147119006D01*
X109966358Y-146757133D01*
X109956358Y-146774454D01*
X109736388Y-146647454D01*
X109746388Y-146630133D01*
X108861464Y-146119222D01*
X106022741Y-143280499D01*
X106072237Y-143302810D01*
G36*
X132992724Y-133831864D02*
X132993013Y-133833016D01*
X132992870Y-133834659D01*
X133027750Y-134010787D01*
X133097750Y-134210787D01*
X133116283Y-134242400D01*
X133140911Y-134307499D01*
X133143707Y-134312582D01*
X132601288Y-134855000D01*
X131469190Y-134855000D01*
X131374004Y-134864333D01*
X131278801Y-134872662D01*
X131273578Y-134874180D01*
X131268157Y-134874711D01*
X131176612Y-134902350D01*
X131084824Y-134929017D01*
X131079991Y-134931522D01*
X131074782Y-134933095D01*
X130990394Y-134977965D01*
X130905489Y-135021976D01*
X130901234Y-135025373D01*
X130896430Y-135027927D01*
X130822342Y-135088351D01*
X130747624Y-135147998D01*
X130740050Y-135155467D01*
X130739894Y-135155594D01*
X130739775Y-135155738D01*
X130737334Y-135158145D01*
X130398144Y-135497334D01*
X130337412Y-135571271D01*
X130276008Y-135644449D01*
X130273389Y-135649213D01*
X130269930Y-135653424D01*
X130224721Y-135737740D01*
X130178695Y-135821460D01*
X130177049Y-135826647D01*
X130174477Y-135831445D01*
X130146537Y-135922835D01*
X130117617Y-136014001D01*
X130117010Y-136019415D01*
X130115420Y-136024615D01*
X130105761Y-136119702D01*
X130095434Y-136211769D01*
X130005223Y-136174403D01*
X129882542Y-136150000D01*
X129505750Y-136150000D01*
X129347000Y-136308750D01*
X129347000Y-137033000D01*
X129367000Y-137033000D01*
X129367000Y-137287000D01*
X129347000Y-137287000D01*
X129347000Y-138011250D01*
X129505750Y-138170000D01*
X129882542Y-138170000D01*
X130005223Y-138145597D01*
X130120785Y-138097730D01*
X130146447Y-138080583D01*
X130153056Y-138101924D01*
X130251850Y-138251849D01*
X130388500Y-138368315D01*
X130552187Y-138442100D01*
X130572279Y-138444955D01*
X130495584Y-138467237D01*
X130490751Y-138469742D01*
X130485542Y-138471315D01*
X130401174Y-138516174D01*
X130316248Y-138560196D01*
X130311991Y-138563594D01*
X130307190Y-138566147D01*
X130233124Y-138626554D01*
X130158384Y-138686218D01*
X130150810Y-138693687D01*
X130150654Y-138693814D01*
X130150535Y-138693958D01*
X130148094Y-138696365D01*
X125707860Y-143136598D01*
X111599872Y-143136598D01*
X111504731Y-143145926D01*
X111409483Y-143154260D01*
X111404260Y-143155778D01*
X111398839Y-143156309D01*
X111307281Y-143183952D01*
X111215507Y-143210615D01*
X111210675Y-143213120D01*
X111205464Y-143214693D01*
X111121097Y-143259552D01*
X111036171Y-143303573D01*
X111031913Y-143306973D01*
X111027112Y-143309525D01*
X110953082Y-143369902D01*
X110878306Y-143429595D01*
X110870730Y-143437066D01*
X110870576Y-143437192D01*
X110870458Y-143437335D01*
X110868017Y-143439742D01*
X110760150Y-143547608D01*
X110578317Y-143577078D01*
X110337779Y-143666563D01*
X110119203Y-143801063D01*
X109930915Y-143975458D01*
X109846554Y-144091597D01*
X109076399Y-144091597D01*
X108290159Y-143305357D01*
X108450000Y-143328072D01*
X109650000Y-143328072D01*
X109751121Y-143320008D01*
X109922634Y-143266894D01*
X110072559Y-143168100D01*
X110189025Y-143031450D01*
X110224764Y-142952166D01*
X110348374Y-143038077D01*
X110516401Y-143111486D01*
X110695487Y-143150861D01*
X110878809Y-143154701D01*
X111059387Y-143122860D01*
X111230340Y-143056552D01*
X111236022Y-143052946D01*
X113250224Y-143052946D01*
X113326971Y-143045421D01*
X113403824Y-143038697D01*
X113408038Y-143037473D01*
X113412410Y-143037044D01*
X113486305Y-143014734D01*
X113560316Y-142993231D01*
X113564210Y-142991212D01*
X113568418Y-142989942D01*
X113636535Y-142953723D01*
X113704998Y-142918236D01*
X113708431Y-142915495D01*
X113712306Y-142913435D01*
X113772090Y-142864677D01*
X113832357Y-142816566D01*
X113838462Y-142810546D01*
X113838594Y-142810438D01*
X113838695Y-142810315D01*
X113840658Y-142808380D01*
X116224808Y-140424230D01*
X116262187Y-140441080D01*
X116439950Y-140466342D01*
X117240050Y-140466342D01*
X117341171Y-140458278D01*
X117512684Y-140405164D01*
X117662609Y-140306370D01*
X117779075Y-140169720D01*
X117852860Y-140006033D01*
X117878122Y-139828270D01*
X117878122Y-139313169D01*
X118426367Y-139313169D01*
X119473249Y-140360051D01*
X119492872Y-140466968D01*
X119560372Y-140637454D01*
X119659701Y-140791583D01*
X119787076Y-140923484D01*
X119937644Y-141028131D01*
X120105671Y-141101540D01*
X120284757Y-141140915D01*
X120468079Y-141144755D01*
X120648657Y-141112914D01*
X120819610Y-141046606D01*
X120974429Y-140948355D01*
X121107215Y-140821904D01*
X121212911Y-140672070D01*
X121287492Y-140504560D01*
X121328116Y-140325754D01*
X121331040Y-140116319D01*
X121295425Y-139936448D01*
X121225550Y-139766920D01*
X121124079Y-139614193D01*
X120994875Y-139484084D01*
X120842860Y-139381549D01*
X120673825Y-139310493D01*
X120547329Y-139284527D01*
X119423526Y-138160724D01*
X119573000Y-138011250D01*
X119573000Y-137287000D01*
X119553000Y-137287000D01*
X119553000Y-137033000D01*
X119573000Y-137033000D01*
X119573000Y-136308750D01*
X119454121Y-136189871D01*
X119655844Y-135988148D01*
X120101890Y-135988148D01*
X120188408Y-136048279D01*
X120356435Y-136121688D01*
X120535521Y-136161063D01*
X120718843Y-136164903D01*
X120899421Y-136133062D01*
X120973443Y-136104351D01*
X120973443Y-136149046D01*
X120898879Y-136154992D01*
X120727366Y-136208106D01*
X120652963Y-136257134D01*
X120600785Y-136222270D01*
X120485223Y-136174403D01*
X120362542Y-136150000D01*
X119985750Y-136150000D01*
X119827000Y-136308750D01*
X119827000Y-137033000D01*
X119847000Y-137033000D01*
X119847000Y-137287000D01*
X119827000Y-137287000D01*
X119827000Y-138011250D01*
X119985750Y-138170000D01*
X120362542Y-138170000D01*
X120485223Y-138145597D01*
X120600785Y-138097730D01*
X120648756Y-138065677D01*
X120658550Y-138074025D01*
X120822237Y-138147810D01*
X121000000Y-138173072D01*
X122200000Y-138173072D01*
X122238522Y-138170000D01*
X122577915Y-138170000D01*
X122631850Y-138251849D01*
X122768500Y-138368315D01*
X122932187Y-138442100D01*
X123109950Y-138467362D01*
X123762905Y-138467362D01*
X123637391Y-138550070D01*
X123520925Y-138686720D01*
X123447140Y-138850407D01*
X123421878Y-139028170D01*
X123421878Y-139828270D01*
X123429942Y-139929391D01*
X123483056Y-140100904D01*
X123581850Y-140250829D01*
X123718500Y-140367295D01*
X123882187Y-140441080D01*
X124059950Y-140466342D01*
X124860050Y-140466342D01*
X124899199Y-140463220D01*
X126226780Y-140463220D01*
X126321966Y-140453887D01*
X126417169Y-140445558D01*
X126422392Y-140444040D01*
X126427813Y-140443509D01*
X126519358Y-140415870D01*
X126611146Y-140389203D01*
X126615979Y-140386698D01*
X126621188Y-140385125D01*
X126705576Y-140340255D01*
X126790481Y-140296244D01*
X126794736Y-140292847D01*
X126799540Y-140290293D01*
X126873598Y-140229893D01*
X126948346Y-140170223D01*
X126955926Y-140162748D01*
X126956076Y-140162626D01*
X126956191Y-140162487D01*
X126958636Y-140160076D01*
X127731855Y-139386856D01*
X127792541Y-139312976D01*
X127853992Y-139239741D01*
X127856613Y-139234973D01*
X127860069Y-139230766D01*
X127905249Y-139146505D01*
X127951305Y-139062730D01*
X127952951Y-139057541D01*
X127955522Y-139052746D01*
X127983453Y-138961387D01*
X128012383Y-138870189D01*
X128012990Y-138864775D01*
X128014580Y-138859575D01*
X128024234Y-138764533D01*
X128034899Y-138669451D01*
X128034973Y-138658806D01*
X128034993Y-138658613D01*
X128034976Y-138658433D01*
X128035000Y-138655000D01*
X128035000Y-138160710D01*
X128192634Y-138111894D01*
X128267037Y-138062866D01*
X128319215Y-138097730D01*
X128434777Y-138145597D01*
X128557458Y-138170000D01*
X128934250Y-138170000D01*
X129093000Y-138011250D01*
X129093000Y-137287000D01*
X129073000Y-137287000D01*
X129073000Y-137033000D01*
X129093000Y-137033000D01*
X129093000Y-136308750D01*
X128934250Y-136150000D01*
X128557458Y-136150000D01*
X128434777Y-136174403D01*
X128319215Y-136222270D01*
X128271244Y-136254323D01*
X128261450Y-136245975D01*
X128097763Y-136172190D01*
X128035000Y-136163271D01*
X128035000Y-134870854D01*
X128061185Y-134851185D01*
X128261185Y-134651185D01*
X128261220Y-134651133D01*
X128261287Y-134651083D01*
X128369089Y-134507499D01*
X128479089Y-134307499D01*
X128490626Y-134271853D01*
X128522250Y-134210787D01*
X128592250Y-134010787D01*
X128592616Y-134009222D01*
X128593169Y-134008143D01*
X128594600Y-134000746D01*
X128623237Y-133878398D01*
X128622815Y-133854922D01*
X128627276Y-133831864D01*
X128637119Y-133635000D01*
X132982881Y-133635000D01*
X132992724Y-133831864D01*
X132992724Y-133831864D01*
G37*
X132992724Y-133831864D02*
X132993013Y-133833016D01*
X132992870Y-133834659D01*
X133027750Y-134010787D01*
X133097750Y-134210787D01*
X133116283Y-134242400D01*
X133140911Y-134307499D01*
X133143707Y-134312582D01*
X132601288Y-134855000D01*
X131469190Y-134855000D01*
X131374004Y-134864333D01*
X131278801Y-134872662D01*
X131273578Y-134874180D01*
X131268157Y-134874711D01*
X131176612Y-134902350D01*
X131084824Y-134929017D01*
X131079991Y-134931522D01*
X131074782Y-134933095D01*
X130990394Y-134977965D01*
X130905489Y-135021976D01*
X130901234Y-135025373D01*
X130896430Y-135027927D01*
X130822342Y-135088351D01*
X130747624Y-135147998D01*
X130740050Y-135155467D01*
X130739894Y-135155594D01*
X130739775Y-135155738D01*
X130737334Y-135158145D01*
X130398144Y-135497334D01*
X130337412Y-135571271D01*
X130276008Y-135644449D01*
X130273389Y-135649213D01*
X130269930Y-135653424D01*
X130224721Y-135737740D01*
X130178695Y-135821460D01*
X130177049Y-135826647D01*
X130174477Y-135831445D01*
X130146537Y-135922835D01*
X130117617Y-136014001D01*
X130117010Y-136019415D01*
X130115420Y-136024615D01*
X130105761Y-136119702D01*
X130095434Y-136211769D01*
X130005223Y-136174403D01*
X129882542Y-136150000D01*
X129505750Y-136150000D01*
X129347000Y-136308750D01*
X129347000Y-137033000D01*
X129367000Y-137033000D01*
X129367000Y-137287000D01*
X129347000Y-137287000D01*
X129347000Y-138011250D01*
X129505750Y-138170000D01*
X129882542Y-138170000D01*
X130005223Y-138145597D01*
X130120785Y-138097730D01*
X130146447Y-138080583D01*
X130153056Y-138101924D01*
X130251850Y-138251849D01*
X130388500Y-138368315D01*
X130552187Y-138442100D01*
X130572279Y-138444955D01*
X130495584Y-138467237D01*
X130490751Y-138469742D01*
X130485542Y-138471315D01*
X130401174Y-138516174D01*
X130316248Y-138560196D01*
X130311991Y-138563594D01*
X130307190Y-138566147D01*
X130233124Y-138626554D01*
X130158384Y-138686218D01*
X130150810Y-138693687D01*
X130150654Y-138693814D01*
X130150535Y-138693958D01*
X130148094Y-138696365D01*
X125707860Y-143136598D01*
X111599872Y-143136598D01*
X111504731Y-143145926D01*
X111409483Y-143154260D01*
X111404260Y-143155778D01*
X111398839Y-143156309D01*
X111307281Y-143183952D01*
X111215507Y-143210615D01*
X111210675Y-143213120D01*
X111205464Y-143214693D01*
X111121097Y-143259552D01*
X111036171Y-143303573D01*
X111031913Y-143306973D01*
X111027112Y-143309525D01*
X110953082Y-143369902D01*
X110878306Y-143429595D01*
X110870730Y-143437066D01*
X110870576Y-143437192D01*
X110870458Y-143437335D01*
X110868017Y-143439742D01*
X110760150Y-143547608D01*
X110578317Y-143577078D01*
X110337779Y-143666563D01*
X110119203Y-143801063D01*
X109930915Y-143975458D01*
X109846554Y-144091597D01*
X109076399Y-144091597D01*
X108290159Y-143305357D01*
X108450000Y-143328072D01*
X109650000Y-143328072D01*
X109751121Y-143320008D01*
X109922634Y-143266894D01*
X110072559Y-143168100D01*
X110189025Y-143031450D01*
X110224764Y-142952166D01*
X110348374Y-143038077D01*
X110516401Y-143111486D01*
X110695487Y-143150861D01*
X110878809Y-143154701D01*
X111059387Y-143122860D01*
X111230340Y-143056552D01*
X111236022Y-143052946D01*
X113250224Y-143052946D01*
X113326971Y-143045421D01*
X113403824Y-143038697D01*
X113408038Y-143037473D01*
X113412410Y-143037044D01*
X113486305Y-143014734D01*
X113560316Y-142993231D01*
X113564210Y-142991212D01*
X113568418Y-142989942D01*
X113636535Y-142953723D01*
X113704998Y-142918236D01*
X113708431Y-142915495D01*
X113712306Y-142913435D01*
X113772090Y-142864677D01*
X113832357Y-142816566D01*
X113838462Y-142810546D01*
X113838594Y-142810438D01*
X113838695Y-142810315D01*
X113840658Y-142808380D01*
X116224808Y-140424230D01*
X116262187Y-140441080D01*
X116439950Y-140466342D01*
X117240050Y-140466342D01*
X117341171Y-140458278D01*
X117512684Y-140405164D01*
X117662609Y-140306370D01*
X117779075Y-140169720D01*
X117852860Y-140006033D01*
X117878122Y-139828270D01*
X117878122Y-139313169D01*
X118426367Y-139313169D01*
X119473249Y-140360051D01*
X119492872Y-140466968D01*
X119560372Y-140637454D01*
X119659701Y-140791583D01*
X119787076Y-140923484D01*
X119937644Y-141028131D01*
X120105671Y-141101540D01*
X120284757Y-141140915D01*
X120468079Y-141144755D01*
X120648657Y-141112914D01*
X120819610Y-141046606D01*
X120974429Y-140948355D01*
X121107215Y-140821904D01*
X121212911Y-140672070D01*
X121287492Y-140504560D01*
X121328116Y-140325754D01*
X121331040Y-140116319D01*
X121295425Y-139936448D01*
X121225550Y-139766920D01*
X121124079Y-139614193D01*
X120994875Y-139484084D01*
X120842860Y-139381549D01*
X120673825Y-139310493D01*
X120547329Y-139284527D01*
X119423526Y-138160724D01*
X119573000Y-138011250D01*
X119573000Y-137287000D01*
X119553000Y-137287000D01*
X119553000Y-137033000D01*
X119573000Y-137033000D01*
X119573000Y-136308750D01*
X119454121Y-136189871D01*
X119655844Y-135988148D01*
X120101890Y-135988148D01*
X120188408Y-136048279D01*
X120356435Y-136121688D01*
X120535521Y-136161063D01*
X120718843Y-136164903D01*
X120899421Y-136133062D01*
X120973443Y-136104351D01*
X120973443Y-136149046D01*
X120898879Y-136154992D01*
X120727366Y-136208106D01*
X120652963Y-136257134D01*
X120600785Y-136222270D01*
X120485223Y-136174403D01*
X120362542Y-136150000D01*
X119985750Y-136150000D01*
X119827000Y-136308750D01*
X119827000Y-137033000D01*
X119847000Y-137033000D01*
X119847000Y-137287000D01*
X119827000Y-137287000D01*
X119827000Y-138011250D01*
X119985750Y-138170000D01*
X120362542Y-138170000D01*
X120485223Y-138145597D01*
X120600785Y-138097730D01*
X120648756Y-138065677D01*
X120658550Y-138074025D01*
X120822237Y-138147810D01*
X121000000Y-138173072D01*
X122200000Y-138173072D01*
X122238522Y-138170000D01*
X122577915Y-138170000D01*
X122631850Y-138251849D01*
X122768500Y-138368315D01*
X122932187Y-138442100D01*
X123109950Y-138467362D01*
X123762905Y-138467362D01*
X123637391Y-138550070D01*
X123520925Y-138686720D01*
X123447140Y-138850407D01*
X123421878Y-139028170D01*
X123421878Y-139828270D01*
X123429942Y-139929391D01*
X123483056Y-140100904D01*
X123581850Y-140250829D01*
X123718500Y-140367295D01*
X123882187Y-140441080D01*
X124059950Y-140466342D01*
X124860050Y-140466342D01*
X124899199Y-140463220D01*
X126226780Y-140463220D01*
X126321966Y-140453887D01*
X126417169Y-140445558D01*
X126422392Y-140444040D01*
X126427813Y-140443509D01*
X126519358Y-140415870D01*
X126611146Y-140389203D01*
X126615979Y-140386698D01*
X126621188Y-140385125D01*
X126705576Y-140340255D01*
X126790481Y-140296244D01*
X126794736Y-140292847D01*
X126799540Y-140290293D01*
X126873598Y-140229893D01*
X126948346Y-140170223D01*
X126955926Y-140162748D01*
X126956076Y-140162626D01*
X126956191Y-140162487D01*
X126958636Y-140160076D01*
X127731855Y-139386856D01*
X127792541Y-139312976D01*
X127853992Y-139239741D01*
X127856613Y-139234973D01*
X127860069Y-139230766D01*
X127905249Y-139146505D01*
X127951305Y-139062730D01*
X127952951Y-139057541D01*
X127955522Y-139052746D01*
X127983453Y-138961387D01*
X128012383Y-138870189D01*
X128012990Y-138864775D01*
X128014580Y-138859575D01*
X128024234Y-138764533D01*
X128034899Y-138669451D01*
X128034973Y-138658806D01*
X128034993Y-138658613D01*
X128034976Y-138658433D01*
X128035000Y-138655000D01*
X128035000Y-138160710D01*
X128192634Y-138111894D01*
X128267037Y-138062866D01*
X128319215Y-138097730D01*
X128434777Y-138145597D01*
X128557458Y-138170000D01*
X128934250Y-138170000D01*
X129093000Y-138011250D01*
X129093000Y-137287000D01*
X129073000Y-137287000D01*
X129073000Y-137033000D01*
X129093000Y-137033000D01*
X129093000Y-136308750D01*
X128934250Y-136150000D01*
X128557458Y-136150000D01*
X128434777Y-136174403D01*
X128319215Y-136222270D01*
X128271244Y-136254323D01*
X128261450Y-136245975D01*
X128097763Y-136172190D01*
X128035000Y-136163271D01*
X128035000Y-134870854D01*
X128061185Y-134851185D01*
X128261185Y-134651185D01*
X128261220Y-134651133D01*
X128261287Y-134651083D01*
X128369089Y-134507499D01*
X128479089Y-134307499D01*
X128490626Y-134271853D01*
X128522250Y-134210787D01*
X128592250Y-134010787D01*
X128592616Y-134009222D01*
X128593169Y-134008143D01*
X128594600Y-134000746D01*
X128623237Y-133878398D01*
X128622815Y-133854922D01*
X128627276Y-133831864D01*
X128637119Y-133635000D01*
X132982881Y-133635000D01*
X132992724Y-133831864D01*
G36*
X107127000Y-140208000D02*
X107147000Y-140208000D01*
X107147000Y-140462000D01*
X107127000Y-140462000D01*
X107127000Y-140482000D01*
X106873000Y-140482000D01*
X106873000Y-140462000D01*
X106853000Y-140462000D01*
X106853000Y-140208000D01*
X106873000Y-140208000D01*
X106873000Y-140188000D01*
X107127000Y-140188000D01*
X107127000Y-140208000D01*
X107127000Y-140208000D01*
G37*
X107127000Y-140208000D02*
X107147000Y-140208000D01*
X107147000Y-140462000D01*
X107127000Y-140462000D01*
X107127000Y-140482000D01*
X106873000Y-140482000D01*
X106873000Y-140462000D01*
X106853000Y-140462000D01*
X106853000Y-140208000D01*
X106873000Y-140208000D01*
X106873000Y-140188000D01*
X107127000Y-140188000D01*
X107127000Y-140208000D01*
G36*
X108297897Y-136682176D02*
X108290074Y-136751916D01*
X108290020Y-136759721D01*
X108290004Y-136759874D01*
X108290018Y-136760017D01*
X108290000Y-136762527D01*
X108290000Y-137368226D01*
X108177366Y-137403106D01*
X108027441Y-137501900D01*
X107952783Y-137589497D01*
X107943237Y-137575211D01*
X107854789Y-137486763D01*
X107750785Y-137417270D01*
X107635223Y-137369403D01*
X107512542Y-137345000D01*
X107135750Y-137345000D01*
X106977000Y-137503750D01*
X106977000Y-138303000D01*
X106997000Y-138303000D01*
X106997000Y-138557000D01*
X106977000Y-138557000D01*
X106977000Y-138577000D01*
X106723000Y-138577000D01*
X106723000Y-138557000D01*
X106703000Y-138557000D01*
X106703000Y-138303000D01*
X106723000Y-138303000D01*
X106723000Y-137503750D01*
X106564250Y-137345000D01*
X106553802Y-137345000D01*
X107248802Y-136650000D01*
X108301165Y-136650000D01*
X108297897Y-136682176D01*
X108297897Y-136682176D01*
G37*
X108297897Y-136682176D02*
X108290074Y-136751916D01*
X108290020Y-136759721D01*
X108290004Y-136759874D01*
X108290018Y-136760017D01*
X108290000Y-136762527D01*
X108290000Y-137368226D01*
X108177366Y-137403106D01*
X108027441Y-137501900D01*
X107952783Y-137589497D01*
X107943237Y-137575211D01*
X107854789Y-137486763D01*
X107750785Y-137417270D01*
X107635223Y-137369403D01*
X107512542Y-137345000D01*
X107135750Y-137345000D01*
X106977000Y-137503750D01*
X106977000Y-138303000D01*
X106997000Y-138303000D01*
X106997000Y-138557000D01*
X106977000Y-138557000D01*
X106977000Y-138577000D01*
X106723000Y-138577000D01*
X106723000Y-138557000D01*
X106703000Y-138557000D01*
X106703000Y-138303000D01*
X106723000Y-138303000D01*
X106723000Y-137503750D01*
X106564250Y-137345000D01*
X106553802Y-137345000D01*
X107248802Y-136650000D01*
X108301165Y-136650000D01*
X108297897Y-136682176D01*
G36*
X129623106Y-125672634D02*
X129721900Y-125822559D01*
X129858550Y-125939025D01*
X130022237Y-126012810D01*
X130200000Y-126038072D01*
X130324209Y-126038072D01*
X130337610Y-126063925D01*
X130340103Y-126067048D01*
X130341980Y-126070578D01*
X130386355Y-126124987D01*
X130430148Y-126179846D01*
X130435631Y-126185406D01*
X130435726Y-126185522D01*
X130435834Y-126185611D01*
X130437599Y-126187401D01*
X135754412Y-131504214D01*
X135808668Y-131548781D01*
X135837931Y-131573335D01*
X135197765Y-131573335D01*
X134961776Y-131494672D01*
X134760000Y-131461928D01*
X134480000Y-131461928D01*
X134278224Y-131494672D01*
X134067240Y-131565000D01*
X127552760Y-131565000D01*
X127341776Y-131494672D01*
X127140000Y-131461928D01*
X126860000Y-131461928D01*
X126658224Y-131494672D01*
X126358224Y-131594672D01*
X126296845Y-131625173D01*
X126236485Y-131650024D01*
X126066485Y-131750024D01*
X126038610Y-131773855D01*
X125938815Y-131848815D01*
X125738815Y-132048815D01*
X125738780Y-132048867D01*
X125738713Y-132048917D01*
X125630911Y-132192501D01*
X125520911Y-132392501D01*
X125509374Y-132428147D01*
X125477750Y-132489213D01*
X125407750Y-132689213D01*
X125407384Y-132690778D01*
X125406831Y-132691857D01*
X125405400Y-132699254D01*
X125376763Y-132821602D01*
X125377185Y-132845078D01*
X125372724Y-132868136D01*
X125362724Y-133068136D01*
X125369992Y-133201121D01*
X125417586Y-133354809D01*
X125379077Y-133453061D01*
X125362724Y-133631864D01*
X125372724Y-133831864D01*
X125373013Y-133833016D01*
X125372870Y-133834659D01*
X125407750Y-134010787D01*
X125477750Y-134210787D01*
X125496283Y-134242400D01*
X125520911Y-134307499D01*
X125630911Y-134507499D01*
X125630959Y-134507568D01*
X125630981Y-134507625D01*
X125631278Y-134508020D01*
X125711900Y-134622559D01*
X125726944Y-134635381D01*
X125738815Y-134651185D01*
X125938815Y-134851185D01*
X125965000Y-134872145D01*
X125965000Y-136412571D01*
X125872592Y-136394190D01*
X125695750Y-136394190D01*
X125537000Y-136552940D01*
X125537000Y-137302240D01*
X125557000Y-137302240D01*
X125557000Y-137556240D01*
X125537000Y-137556240D01*
X125537000Y-137576240D01*
X125283000Y-137576240D01*
X125283000Y-137556240D01*
X125263000Y-137556240D01*
X125263000Y-137302240D01*
X125283000Y-137302240D01*
X125283000Y-136552940D01*
X125124250Y-136394190D01*
X124947408Y-136394190D01*
X124824727Y-136418593D01*
X124709165Y-136466460D01*
X124605161Y-136535953D01*
X124516713Y-136624401D01*
X124457880Y-136712451D01*
X124388150Y-136606631D01*
X124251500Y-136490165D01*
X124087813Y-136416380D01*
X123910050Y-136391118D01*
X123837581Y-136391118D01*
X123832060Y-136386583D01*
X123760617Y-136326635D01*
X123755964Y-136324077D01*
X123751859Y-136320705D01*
X123669642Y-136276621D01*
X123587881Y-136231673D01*
X123582816Y-136230066D01*
X123578138Y-136227558D01*
X123488981Y-136200300D01*
X123399991Y-136172071D01*
X123394709Y-136171478D01*
X123389634Y-136169927D01*
X123296876Y-136160505D01*
X123204102Y-136150098D01*
X123193720Y-136150026D01*
X123193525Y-136150006D01*
X123193343Y-136150023D01*
X123190000Y-136150000D01*
X122993443Y-136150000D01*
X122993443Y-134238443D01*
X122984337Y-134145568D01*
X122976208Y-134052652D01*
X122974726Y-134047552D01*
X122974208Y-134042266D01*
X122947240Y-133952945D01*
X122921213Y-133863361D01*
X122918769Y-133858646D01*
X122917234Y-133853562D01*
X122873440Y-133771198D01*
X122830500Y-133688358D01*
X122827186Y-133684206D01*
X122824693Y-133679518D01*
X122765748Y-133607244D01*
X122707523Y-133534306D01*
X122700231Y-133526912D01*
X122700109Y-133526762D01*
X122699970Y-133526647D01*
X122697621Y-133524265D01*
X122534999Y-133361643D01*
X122534999Y-130535000D01*
X122739250Y-130535000D01*
X122898000Y-130376250D01*
X122898000Y-129377000D01*
X123152000Y-129377000D01*
X123152000Y-130376250D01*
X123310750Y-130535000D01*
X123862542Y-130535000D01*
X123985223Y-130510597D01*
X124100785Y-130462730D01*
X124204789Y-130393237D01*
X124293237Y-130304789D01*
X124362730Y-130200785D01*
X124410597Y-130085223D01*
X124435000Y-129962542D01*
X124435000Y-129535750D01*
X129565000Y-129535750D01*
X129565000Y-129962542D01*
X129589403Y-130085223D01*
X129637270Y-130200785D01*
X129706763Y-130304789D01*
X129795211Y-130393237D01*
X129899215Y-130462730D01*
X130014777Y-130510597D01*
X130137458Y-130535000D01*
X130689250Y-130535000D01*
X130848000Y-130376250D01*
X130848000Y-129377000D01*
X131102000Y-129377000D01*
X131102000Y-130376250D01*
X131260750Y-130535000D01*
X131812542Y-130535000D01*
X131935223Y-130510597D01*
X132050785Y-130462730D01*
X132154789Y-130393237D01*
X132243237Y-130304789D01*
X132312730Y-130200785D01*
X132360597Y-130085223D01*
X132385000Y-129962542D01*
X132385000Y-129535750D01*
X132226250Y-129377000D01*
X131102000Y-129377000D01*
X130848000Y-129377000D01*
X129723750Y-129377000D01*
X129565000Y-129535750D01*
X124435000Y-129535750D01*
X124276250Y-129377000D01*
X123152000Y-129377000D01*
X122898000Y-129377000D01*
X122878000Y-129377000D01*
X122878000Y-129123000D01*
X122898000Y-129123000D01*
X122898000Y-128123750D01*
X123152000Y-128123750D01*
X123152000Y-129123000D01*
X124276250Y-129123000D01*
X124435000Y-128964250D01*
X124435000Y-128537458D01*
X129565000Y-128537458D01*
X129565000Y-128964250D01*
X129723750Y-129123000D01*
X130848000Y-129123000D01*
X130848000Y-128123750D01*
X131102000Y-128123750D01*
X131102000Y-129123000D01*
X132226250Y-129123000D01*
X132385000Y-128964250D01*
X132385000Y-128537458D01*
X132360597Y-128414777D01*
X132312730Y-128299215D01*
X132243237Y-128195211D01*
X132154789Y-128106763D01*
X132050785Y-128037270D01*
X131935223Y-127989403D01*
X131812542Y-127965000D01*
X131260750Y-127965000D01*
X131102000Y-128123750D01*
X130848000Y-128123750D01*
X130689250Y-127965000D01*
X130137458Y-127965000D01*
X130014777Y-127989403D01*
X129899215Y-128037270D01*
X129795211Y-128106763D01*
X129706763Y-128195211D01*
X129637270Y-128299215D01*
X129589403Y-128414777D01*
X129565000Y-128537458D01*
X124435000Y-128537458D01*
X124410597Y-128414777D01*
X124362730Y-128299215D01*
X124293237Y-128195211D01*
X124204789Y-128106763D01*
X124100785Y-128037270D01*
X123985223Y-127989403D01*
X123862542Y-127965000D01*
X123310750Y-127965000D01*
X123152000Y-128123750D01*
X122898000Y-128123750D01*
X122739250Y-127965000D01*
X122534999Y-127965000D01*
X122534999Y-127110569D01*
X125683271Y-127110569D01*
X125729824Y-127364217D01*
X125824758Y-127603992D01*
X125964456Y-127820762D01*
X126143598Y-128006269D01*
X126355360Y-128153447D01*
X126591676Y-128256691D01*
X126843545Y-128312068D01*
X127101374Y-128317469D01*
X127355341Y-128272687D01*
X127595773Y-128179430D01*
X127813512Y-128041248D01*
X128000265Y-127863406D01*
X128148918Y-127652677D01*
X128253810Y-127417087D01*
X128310944Y-127165611D01*
X128315057Y-126871058D01*
X128264967Y-126618084D01*
X128166694Y-126379658D01*
X128023983Y-126164860D01*
X127842268Y-125981872D01*
X127628472Y-125837665D01*
X127390738Y-125737731D01*
X127138120Y-125685876D01*
X126880241Y-125684075D01*
X126626924Y-125732398D01*
X126387818Y-125829003D01*
X126172029Y-125970212D01*
X125987777Y-126150644D01*
X125842081Y-126363429D01*
X125740489Y-126600460D01*
X125686872Y-126852709D01*
X125683271Y-127110569D01*
X122534999Y-127110569D01*
X122534999Y-126038072D01*
X123800000Y-126038072D01*
X123901121Y-126030008D01*
X124072634Y-125976894D01*
X124222559Y-125878100D01*
X124339025Y-125741450D01*
X124412810Y-125577763D01*
X124422440Y-125510000D01*
X129572742Y-125510000D01*
X129623106Y-125672634D01*
X129623106Y-125672634D01*
G37*
X129623106Y-125672634D02*
X129721900Y-125822559D01*
X129858550Y-125939025D01*
X130022237Y-126012810D01*
X130200000Y-126038072D01*
X130324209Y-126038072D01*
X130337610Y-126063925D01*
X130340103Y-126067048D01*
X130341980Y-126070578D01*
X130386355Y-126124987D01*
X130430148Y-126179846D01*
X130435631Y-126185406D01*
X130435726Y-126185522D01*
X130435834Y-126185611D01*
X130437599Y-126187401D01*
X135754412Y-131504214D01*
X135808668Y-131548781D01*
X135837931Y-131573335D01*
X135197765Y-131573335D01*
X134961776Y-131494672D01*
X134760000Y-131461928D01*
X134480000Y-131461928D01*
X134278224Y-131494672D01*
X134067240Y-131565000D01*
X127552760Y-131565000D01*
X127341776Y-131494672D01*
X127140000Y-131461928D01*
X126860000Y-131461928D01*
X126658224Y-131494672D01*
X126358224Y-131594672D01*
X126296845Y-131625173D01*
X126236485Y-131650024D01*
X126066485Y-131750024D01*
X126038610Y-131773855D01*
X125938815Y-131848815D01*
X125738815Y-132048815D01*
X125738780Y-132048867D01*
X125738713Y-132048917D01*
X125630911Y-132192501D01*
X125520911Y-132392501D01*
X125509374Y-132428147D01*
X125477750Y-132489213D01*
X125407750Y-132689213D01*
X125407384Y-132690778D01*
X125406831Y-132691857D01*
X125405400Y-132699254D01*
X125376763Y-132821602D01*
X125377185Y-132845078D01*
X125372724Y-132868136D01*
X125362724Y-133068136D01*
X125369992Y-133201121D01*
X125417586Y-133354809D01*
X125379077Y-133453061D01*
X125362724Y-133631864D01*
X125372724Y-133831864D01*
X125373013Y-133833016D01*
X125372870Y-133834659D01*
X125407750Y-134010787D01*
X125477750Y-134210787D01*
X125496283Y-134242400D01*
X125520911Y-134307499D01*
X125630911Y-134507499D01*
X125630959Y-134507568D01*
X125630981Y-134507625D01*
X125631278Y-134508020D01*
X125711900Y-134622559D01*
X125726944Y-134635381D01*
X125738815Y-134651185D01*
X125938815Y-134851185D01*
X125965000Y-134872145D01*
X125965000Y-136412571D01*
X125872592Y-136394190D01*
X125695750Y-136394190D01*
X125537000Y-136552940D01*
X125537000Y-137302240D01*
X125557000Y-137302240D01*
X125557000Y-137556240D01*
X125537000Y-137556240D01*
X125537000Y-137576240D01*
X125283000Y-137576240D01*
X125283000Y-137556240D01*
X125263000Y-137556240D01*
X125263000Y-137302240D01*
X125283000Y-137302240D01*
X125283000Y-136552940D01*
X125124250Y-136394190D01*
X124947408Y-136394190D01*
X124824727Y-136418593D01*
X124709165Y-136466460D01*
X124605161Y-136535953D01*
X124516713Y-136624401D01*
X124457880Y-136712451D01*
X124388150Y-136606631D01*
X124251500Y-136490165D01*
X124087813Y-136416380D01*
X123910050Y-136391118D01*
X123837581Y-136391118D01*
X123832060Y-136386583D01*
X123760617Y-136326635D01*
X123755964Y-136324077D01*
X123751859Y-136320705D01*
X123669642Y-136276621D01*
X123587881Y-136231673D01*
X123582816Y-136230066D01*
X123578138Y-136227558D01*
X123488981Y-136200300D01*
X123399991Y-136172071D01*
X123394709Y-136171478D01*
X123389634Y-136169927D01*
X123296876Y-136160505D01*
X123204102Y-136150098D01*
X123193720Y-136150026D01*
X123193525Y-136150006D01*
X123193343Y-136150023D01*
X123190000Y-136150000D01*
X122993443Y-136150000D01*
X122993443Y-134238443D01*
X122984337Y-134145568D01*
X122976208Y-134052652D01*
X122974726Y-134047552D01*
X122974208Y-134042266D01*
X122947240Y-133952945D01*
X122921213Y-133863361D01*
X122918769Y-133858646D01*
X122917234Y-133853562D01*
X122873440Y-133771198D01*
X122830500Y-133688358D01*
X122827186Y-133684206D01*
X122824693Y-133679518D01*
X122765748Y-133607244D01*
X122707523Y-133534306D01*
X122700231Y-133526912D01*
X122700109Y-133526762D01*
X122699970Y-133526647D01*
X122697621Y-133524265D01*
X122534999Y-133361643D01*
X122534999Y-130535000D01*
X122739250Y-130535000D01*
X122898000Y-130376250D01*
X122898000Y-129377000D01*
X123152000Y-129377000D01*
X123152000Y-130376250D01*
X123310750Y-130535000D01*
X123862542Y-130535000D01*
X123985223Y-130510597D01*
X124100785Y-130462730D01*
X124204789Y-130393237D01*
X124293237Y-130304789D01*
X124362730Y-130200785D01*
X124410597Y-130085223D01*
X124435000Y-129962542D01*
X124435000Y-129535750D01*
X129565000Y-129535750D01*
X129565000Y-129962542D01*
X129589403Y-130085223D01*
X129637270Y-130200785D01*
X129706763Y-130304789D01*
X129795211Y-130393237D01*
X129899215Y-130462730D01*
X130014777Y-130510597D01*
X130137458Y-130535000D01*
X130689250Y-130535000D01*
X130848000Y-130376250D01*
X130848000Y-129377000D01*
X131102000Y-129377000D01*
X131102000Y-130376250D01*
X131260750Y-130535000D01*
X131812542Y-130535000D01*
X131935223Y-130510597D01*
X132050785Y-130462730D01*
X132154789Y-130393237D01*
X132243237Y-130304789D01*
X132312730Y-130200785D01*
X132360597Y-130085223D01*
X132385000Y-129962542D01*
X132385000Y-129535750D01*
X132226250Y-129377000D01*
X131102000Y-129377000D01*
X130848000Y-129377000D01*
X129723750Y-129377000D01*
X129565000Y-129535750D01*
X124435000Y-129535750D01*
X124276250Y-129377000D01*
X123152000Y-129377000D01*
X122898000Y-129377000D01*
X122878000Y-129377000D01*
X122878000Y-129123000D01*
X122898000Y-129123000D01*
X122898000Y-128123750D01*
X123152000Y-128123750D01*
X123152000Y-129123000D01*
X124276250Y-129123000D01*
X124435000Y-128964250D01*
X124435000Y-128537458D01*
X129565000Y-128537458D01*
X129565000Y-128964250D01*
X129723750Y-129123000D01*
X130848000Y-129123000D01*
X130848000Y-128123750D01*
X131102000Y-128123750D01*
X131102000Y-129123000D01*
X132226250Y-129123000D01*
X132385000Y-128964250D01*
X132385000Y-128537458D01*
X132360597Y-128414777D01*
X132312730Y-128299215D01*
X132243237Y-128195211D01*
X132154789Y-128106763D01*
X132050785Y-128037270D01*
X131935223Y-127989403D01*
X131812542Y-127965000D01*
X131260750Y-127965000D01*
X131102000Y-128123750D01*
X130848000Y-128123750D01*
X130689250Y-127965000D01*
X130137458Y-127965000D01*
X130014777Y-127989403D01*
X129899215Y-128037270D01*
X129795211Y-128106763D01*
X129706763Y-128195211D01*
X129637270Y-128299215D01*
X129589403Y-128414777D01*
X129565000Y-128537458D01*
X124435000Y-128537458D01*
X124410597Y-128414777D01*
X124362730Y-128299215D01*
X124293237Y-128195211D01*
X124204789Y-128106763D01*
X124100785Y-128037270D01*
X123985223Y-127989403D01*
X123862542Y-127965000D01*
X123310750Y-127965000D01*
X123152000Y-128123750D01*
X122898000Y-128123750D01*
X122739250Y-127965000D01*
X122534999Y-127965000D01*
X122534999Y-127110569D01*
X125683271Y-127110569D01*
X125729824Y-127364217D01*
X125824758Y-127603992D01*
X125964456Y-127820762D01*
X126143598Y-128006269D01*
X126355360Y-128153447D01*
X126591676Y-128256691D01*
X126843545Y-128312068D01*
X127101374Y-128317469D01*
X127355341Y-128272687D01*
X127595773Y-128179430D01*
X127813512Y-128041248D01*
X128000265Y-127863406D01*
X128148918Y-127652677D01*
X128253810Y-127417087D01*
X128310944Y-127165611D01*
X128315057Y-126871058D01*
X128264967Y-126618084D01*
X128166694Y-126379658D01*
X128023983Y-126164860D01*
X127842268Y-125981872D01*
X127628472Y-125837665D01*
X127390738Y-125737731D01*
X127138120Y-125685876D01*
X126880241Y-125684075D01*
X126626924Y-125732398D01*
X126387818Y-125829003D01*
X126172029Y-125970212D01*
X125987777Y-126150644D01*
X125842081Y-126363429D01*
X125740489Y-126600460D01*
X125686872Y-126852709D01*
X125683271Y-127110569D01*
X122534999Y-127110569D01*
X122534999Y-126038072D01*
X123800000Y-126038072D01*
X123901121Y-126030008D01*
X124072634Y-125976894D01*
X124222559Y-125878100D01*
X124339025Y-125741450D01*
X124412810Y-125577763D01*
X124422440Y-125510000D01*
X129572742Y-125510000D01*
X129623106Y-125672634D01*
G36*
X122836227Y-113760219D02*
X122843078Y-113830096D01*
X122849196Y-113900022D01*
X122850311Y-113903860D01*
X122850701Y-113907837D01*
X122870991Y-113975040D01*
X122890578Y-114042459D01*
X122892417Y-114046007D01*
X122893077Y-114048193D01*
X122892721Y-114073710D01*
X122925822Y-114254061D01*
X122993322Y-114424547D01*
X123092651Y-114578676D01*
X123220026Y-114710577D01*
X123370594Y-114815224D01*
X123538621Y-114888633D01*
X123717707Y-114928008D01*
X123751115Y-114928708D01*
X123751115Y-115202191D01*
X123757966Y-115272068D01*
X123764084Y-115341994D01*
X123765199Y-115345832D01*
X123765589Y-115349809D01*
X123785879Y-115417012D01*
X123805466Y-115484431D01*
X123807305Y-115487979D01*
X123808460Y-115491804D01*
X123841414Y-115553782D01*
X123873725Y-115616116D01*
X123876218Y-115619239D01*
X123878095Y-115622769D01*
X123922470Y-115677178D01*
X123966263Y-115732037D01*
X123971746Y-115737597D01*
X123971841Y-115737713D01*
X123971949Y-115737802D01*
X123973714Y-115739592D01*
X124456396Y-116222274D01*
X124510652Y-116266841D01*
X124564422Y-116311959D01*
X124567923Y-116313884D01*
X124571012Y-116316421D01*
X124622521Y-116344040D01*
X124676906Y-116400357D01*
X124827474Y-116505004D01*
X124995501Y-116578413D01*
X125174587Y-116617788D01*
X125357909Y-116621628D01*
X125538487Y-116589787D01*
X125709440Y-116523479D01*
X125864259Y-116425228D01*
X125901765Y-116389511D01*
X126924382Y-117412128D01*
X126929580Y-117477322D01*
X126850404Y-117461045D01*
X126671423Y-117475317D01*
X126659795Y-117479719D01*
X126531293Y-117479719D01*
X126494671Y-117516341D01*
X126455523Y-117574929D01*
X126359945Y-117646722D01*
X125971036Y-118035631D01*
X125905234Y-118112837D01*
X125891088Y-118139676D01*
X125794260Y-118212407D01*
X125571521Y-118435146D01*
X123118200Y-115981825D01*
X123118200Y-115838476D01*
X123111349Y-115768599D01*
X123105231Y-115698673D01*
X123104116Y-115694835D01*
X123103726Y-115690858D01*
X123083436Y-115623655D01*
X123063849Y-115556236D01*
X123062010Y-115552688D01*
X123060855Y-115548863D01*
X123027891Y-115486866D01*
X122995589Y-115424550D01*
X122993097Y-115421429D01*
X122991220Y-115417898D01*
X122946841Y-115363483D01*
X122903052Y-115308630D01*
X122897569Y-115303070D01*
X122897474Y-115302954D01*
X122897366Y-115302865D01*
X122895601Y-115301075D01*
X122062430Y-114467904D01*
X122062430Y-114109486D01*
X122055578Y-114039605D01*
X122049461Y-113969683D01*
X122048346Y-113965845D01*
X122047956Y-113961868D01*
X122027676Y-113894698D01*
X122008080Y-113827247D01*
X122006239Y-113823696D01*
X122005085Y-113819873D01*
X122002579Y-113815159D01*
X121990420Y-113662678D01*
X122069596Y-113678955D01*
X122248577Y-113664683D01*
X122260205Y-113660281D01*
X122388707Y-113660281D01*
X122425329Y-113623659D01*
X122464477Y-113565071D01*
X122560055Y-113493278D01*
X122836227Y-113217106D01*
X122836227Y-113760219D01*
X122836227Y-113760219D01*
G37*
X122836227Y-113760219D02*
X122843078Y-113830096D01*
X122849196Y-113900022D01*
X122850311Y-113903860D01*
X122850701Y-113907837D01*
X122870991Y-113975040D01*
X122890578Y-114042459D01*
X122892417Y-114046007D01*
X122893077Y-114048193D01*
X122892721Y-114073710D01*
X122925822Y-114254061D01*
X122993322Y-114424547D01*
X123092651Y-114578676D01*
X123220026Y-114710577D01*
X123370594Y-114815224D01*
X123538621Y-114888633D01*
X123717707Y-114928008D01*
X123751115Y-114928708D01*
X123751115Y-115202191D01*
X123757966Y-115272068D01*
X123764084Y-115341994D01*
X123765199Y-115345832D01*
X123765589Y-115349809D01*
X123785879Y-115417012D01*
X123805466Y-115484431D01*
X123807305Y-115487979D01*
X123808460Y-115491804D01*
X123841414Y-115553782D01*
X123873725Y-115616116D01*
X123876218Y-115619239D01*
X123878095Y-115622769D01*
X123922470Y-115677178D01*
X123966263Y-115732037D01*
X123971746Y-115737597D01*
X123971841Y-115737713D01*
X123971949Y-115737802D01*
X123973714Y-115739592D01*
X124456396Y-116222274D01*
X124510652Y-116266841D01*
X124564422Y-116311959D01*
X124567923Y-116313884D01*
X124571012Y-116316421D01*
X124622521Y-116344040D01*
X124676906Y-116400357D01*
X124827474Y-116505004D01*
X124995501Y-116578413D01*
X125174587Y-116617788D01*
X125357909Y-116621628D01*
X125538487Y-116589787D01*
X125709440Y-116523479D01*
X125864259Y-116425228D01*
X125901765Y-116389511D01*
X126924382Y-117412128D01*
X126929580Y-117477322D01*
X126850404Y-117461045D01*
X126671423Y-117475317D01*
X126659795Y-117479719D01*
X126531293Y-117479719D01*
X126494671Y-117516341D01*
X126455523Y-117574929D01*
X126359945Y-117646722D01*
X125971036Y-118035631D01*
X125905234Y-118112837D01*
X125891088Y-118139676D01*
X125794260Y-118212407D01*
X125571521Y-118435146D01*
X123118200Y-115981825D01*
X123118200Y-115838476D01*
X123111349Y-115768599D01*
X123105231Y-115698673D01*
X123104116Y-115694835D01*
X123103726Y-115690858D01*
X123083436Y-115623655D01*
X123063849Y-115556236D01*
X123062010Y-115552688D01*
X123060855Y-115548863D01*
X123027891Y-115486866D01*
X122995589Y-115424550D01*
X122993097Y-115421429D01*
X122991220Y-115417898D01*
X122946841Y-115363483D01*
X122903052Y-115308630D01*
X122897569Y-115303070D01*
X122897474Y-115302954D01*
X122897366Y-115302865D01*
X122895601Y-115301075D01*
X122062430Y-114467904D01*
X122062430Y-114109486D01*
X122055578Y-114039605D01*
X122049461Y-113969683D01*
X122048346Y-113965845D01*
X122047956Y-113961868D01*
X122027676Y-113894698D01*
X122008080Y-113827247D01*
X122006239Y-113823696D01*
X122005085Y-113819873D01*
X122002579Y-113815159D01*
X121990420Y-113662678D01*
X122069596Y-113678955D01*
X122248577Y-113664683D01*
X122260205Y-113660281D01*
X122388707Y-113660281D01*
X122425329Y-113623659D01*
X122464477Y-113565071D01*
X122560055Y-113493278D01*
X122836227Y-113217106D01*
X122836227Y-113760219D01*
G36*
X119806061Y-108127583D02*
X119539629Y-108394015D01*
X119539629Y-108618522D01*
X120051751Y-109130644D01*
X120722972Y-108459423D01*
X120722972Y-108234916D01*
X120615639Y-108127583D01*
X120536943Y-108075000D01*
X125247595Y-108075000D01*
X126361097Y-109188502D01*
X126121700Y-109188502D01*
X126051773Y-109195358D01*
X125981897Y-109201472D01*
X125978064Y-109202586D01*
X125974082Y-109202976D01*
X125972092Y-109203577D01*
X125895810Y-109187895D01*
X125716829Y-109202167D01*
X125548911Y-109265738D01*
X125405351Y-109373572D01*
X124460000Y-110318923D01*
X123514649Y-109373572D01*
X123437443Y-109307770D01*
X123278608Y-109224050D01*
X123102738Y-109187895D01*
X122923757Y-109202167D01*
X122908375Y-109207990D01*
X122812458Y-109063623D01*
X122683254Y-108933514D01*
X122531239Y-108830979D01*
X122362204Y-108759923D01*
X122182586Y-108723053D01*
X121999228Y-108721773D01*
X121819112Y-108756131D01*
X121649101Y-108824820D01*
X121495670Y-108925223D01*
X121368460Y-109049797D01*
X121351777Y-108965927D01*
X121303910Y-108850365D01*
X121234417Y-108746361D01*
X121127084Y-108639028D01*
X120902577Y-108639028D01*
X120231356Y-109310249D01*
X120743478Y-109822371D01*
X120967985Y-109822371D01*
X121149479Y-109640877D01*
X121148150Y-109736047D01*
X121181251Y-109916398D01*
X121248751Y-110086884D01*
X121324379Y-110204236D01*
X121324379Y-110365952D01*
X121331230Y-110435829D01*
X121337348Y-110505755D01*
X121338463Y-110509593D01*
X121338853Y-110513570D01*
X121359143Y-110580773D01*
X121378730Y-110648192D01*
X121380569Y-110651740D01*
X121381724Y-110655565D01*
X121414678Y-110717543D01*
X121446989Y-110779877D01*
X121449482Y-110783000D01*
X121451359Y-110786530D01*
X121478351Y-110819626D01*
X121484858Y-110901228D01*
X121417964Y-110887476D01*
X121118087Y-110587599D01*
X121063831Y-110543032D01*
X121010061Y-110497914D01*
X121006560Y-110495989D01*
X121003471Y-110493452D01*
X120941619Y-110460287D01*
X120880082Y-110426457D01*
X120876270Y-110425248D01*
X120872751Y-110423361D01*
X120805655Y-110402848D01*
X120738699Y-110381608D01*
X120734727Y-110381162D01*
X120730905Y-110379994D01*
X120661037Y-110372897D01*
X120591297Y-110365074D01*
X120583492Y-110365020D01*
X120583339Y-110365004D01*
X120583196Y-110365018D01*
X120580686Y-110365000D01*
X120425356Y-110365000D01*
X120563873Y-110226483D01*
X120563873Y-110001976D01*
X120051751Y-109489854D01*
X120037609Y-109503997D01*
X119858004Y-109324392D01*
X119872146Y-109310249D01*
X119360024Y-108798127D01*
X119135517Y-108798127D01*
X118869085Y-109064559D01*
X118799592Y-109168563D01*
X118751725Y-109284125D01*
X118740470Y-109340709D01*
X118727641Y-109341732D01*
X118559723Y-109405303D01*
X118545378Y-109416078D01*
X118235000Y-109105700D01*
X118235000Y-108249931D01*
X118322099Y-108251755D01*
X118502677Y-108219914D01*
X118673630Y-108153606D01*
X118797493Y-108075000D01*
X119884757Y-108075000D01*
X119806061Y-108127583D01*
X119806061Y-108127583D01*
G37*
X119806061Y-108127583D02*
X119539629Y-108394015D01*
X119539629Y-108618522D01*
X120051751Y-109130644D01*
X120722972Y-108459423D01*
X120722972Y-108234916D01*
X120615639Y-108127583D01*
X120536943Y-108075000D01*
X125247595Y-108075000D01*
X126361097Y-109188502D01*
X126121700Y-109188502D01*
X126051773Y-109195358D01*
X125981897Y-109201472D01*
X125978064Y-109202586D01*
X125974082Y-109202976D01*
X125972092Y-109203577D01*
X125895810Y-109187895D01*
X125716829Y-109202167D01*
X125548911Y-109265738D01*
X125405351Y-109373572D01*
X124460000Y-110318923D01*
X123514649Y-109373572D01*
X123437443Y-109307770D01*
X123278608Y-109224050D01*
X123102738Y-109187895D01*
X122923757Y-109202167D01*
X122908375Y-109207990D01*
X122812458Y-109063623D01*
X122683254Y-108933514D01*
X122531239Y-108830979D01*
X122362204Y-108759923D01*
X122182586Y-108723053D01*
X121999228Y-108721773D01*
X121819112Y-108756131D01*
X121649101Y-108824820D01*
X121495670Y-108925223D01*
X121368460Y-109049797D01*
X121351777Y-108965927D01*
X121303910Y-108850365D01*
X121234417Y-108746361D01*
X121127084Y-108639028D01*
X120902577Y-108639028D01*
X120231356Y-109310249D01*
X120743478Y-109822371D01*
X120967985Y-109822371D01*
X121149479Y-109640877D01*
X121148150Y-109736047D01*
X121181251Y-109916398D01*
X121248751Y-110086884D01*
X121324379Y-110204236D01*
X121324379Y-110365952D01*
X121331230Y-110435829D01*
X121337348Y-110505755D01*
X121338463Y-110509593D01*
X121338853Y-110513570D01*
X121359143Y-110580773D01*
X121378730Y-110648192D01*
X121380569Y-110651740D01*
X121381724Y-110655565D01*
X121414678Y-110717543D01*
X121446989Y-110779877D01*
X121449482Y-110783000D01*
X121451359Y-110786530D01*
X121478351Y-110819626D01*
X121484858Y-110901228D01*
X121417964Y-110887476D01*
X121118087Y-110587599D01*
X121063831Y-110543032D01*
X121010061Y-110497914D01*
X121006560Y-110495989D01*
X121003471Y-110493452D01*
X120941619Y-110460287D01*
X120880082Y-110426457D01*
X120876270Y-110425248D01*
X120872751Y-110423361D01*
X120805655Y-110402848D01*
X120738699Y-110381608D01*
X120734727Y-110381162D01*
X120730905Y-110379994D01*
X120661037Y-110372897D01*
X120591297Y-110365074D01*
X120583492Y-110365020D01*
X120583339Y-110365004D01*
X120583196Y-110365018D01*
X120580686Y-110365000D01*
X120425356Y-110365000D01*
X120563873Y-110226483D01*
X120563873Y-110001976D01*
X120051751Y-109489854D01*
X120037609Y-109503997D01*
X119858004Y-109324392D01*
X119872146Y-109310249D01*
X119360024Y-108798127D01*
X119135517Y-108798127D01*
X118869085Y-109064559D01*
X118799592Y-109168563D01*
X118751725Y-109284125D01*
X118740470Y-109340709D01*
X118727641Y-109341732D01*
X118559723Y-109405303D01*
X118545378Y-109416078D01*
X118235000Y-109105700D01*
X118235000Y-108249931D01*
X118322099Y-108251755D01*
X118502677Y-108219914D01*
X118673630Y-108153606D01*
X118797493Y-108075000D01*
X119884757Y-108075000D01*
X119806061Y-108127583D01*
M02*
