G04 #@! TF.FileFunction,Soldermask,Top*
%FSLAX46Y46*%
G04 Gerber Fmt 4.6, Leading zero omitted, Abs format (unit mm)*
G04 Created by KiCad (PCBNEW (2015-08-12 BZR 6086)-product) date Tue 01 Sep 2015 09:02:53 PM CEST*
%MOMM*%
G01*
G04 APERTURE LIST*
%ADD10C,0.100000*%
%ADD11C,2.400000*%
%ADD12C,1.400000*%
%ADD13R,8.020000X8.020000*%
%ADD14R,3.250000X3.250000*%
%ADD15R,1.600000X1.150000*%
%ADD16R,1.600000X1.300000*%
%ADD17R,1.950000X1.700000*%
%ADD18R,1.200100X1.200100*%
%ADD19R,1.197560X1.197560*%
%ADD20C,1.760000*%
%ADD21C,1.760000*%
%ADD22R,1.760000X1.760000*%
%ADD23O,1.760000X1.760000*%
G04 APERTURE END LIST*
D10*
D11*
X134620000Y-133100000D02*
X134620000Y-133600000D01*
X127000000Y-133100000D02*
X127000000Y-133600000D01*
X119380000Y-133100000D02*
X119380000Y-133600000D01*
D12*
X137035000Y-129540000D02*
X137285000Y-129540000D01*
X137035000Y-127635000D02*
X137285000Y-127635000D01*
X137035000Y-125730000D02*
X137285000Y-125730000D01*
X116965000Y-125730000D02*
X116715000Y-125730000D01*
X116965000Y-127635000D02*
X116715000Y-127635000D01*
X116965000Y-129540000D02*
X116715000Y-129540000D01*
D10*
G36*
X138217762Y-138409733D02*
X142227762Y-145355257D01*
X135282238Y-149365257D01*
X131272238Y-142419733D01*
X138217762Y-138409733D01*
X138217762Y-138409733D01*
G37*
D13*
X107500000Y-127000000D03*
D10*
G36*
X131624693Y-144970204D02*
X133249693Y-147784786D01*
X130435111Y-149409786D01*
X128810111Y-146595204D01*
X131624693Y-144970204D01*
X131624693Y-144970204D01*
G37*
G36*
X143064889Y-138365204D02*
X144689889Y-141179786D01*
X141875307Y-142804786D01*
X140250307Y-139990204D01*
X143064889Y-138365204D01*
X143064889Y-138365204D01*
G37*
D14*
X107500000Y-120395000D03*
X107500000Y-133605000D03*
D10*
G36*
X140250307Y-114009796D02*
X141875307Y-111195214D01*
X144689889Y-112820214D01*
X143064889Y-115634796D01*
X140250307Y-114009796D01*
X140250307Y-114009796D01*
G37*
G36*
X128810111Y-107404796D02*
X130435111Y-104590214D01*
X133249693Y-106215214D01*
X131624693Y-109029796D01*
X128810111Y-107404796D01*
X128810111Y-107404796D01*
G37*
G36*
X122391712Y-110213666D02*
X123063464Y-109541914D01*
X124477678Y-110956128D01*
X123805926Y-111627880D01*
X122391712Y-110213666D01*
X122391712Y-110213666D01*
G37*
G36*
X121826027Y-110779352D02*
X122497779Y-110107600D01*
X123911993Y-111521814D01*
X123240241Y-112193566D01*
X121826027Y-110779352D01*
X121826027Y-110779352D01*
G37*
G36*
X121260341Y-111345037D02*
X121932093Y-110673285D01*
X123346307Y-112087499D01*
X122674555Y-112759251D01*
X121260341Y-111345037D01*
X121260341Y-111345037D01*
G37*
G36*
X120694656Y-111910722D02*
X121366408Y-111238970D01*
X122780622Y-112653184D01*
X122108870Y-113324936D01*
X120694656Y-111910722D01*
X120694656Y-111910722D01*
G37*
G36*
X120128970Y-112476408D02*
X120800722Y-111804656D01*
X122214936Y-113218870D01*
X121543184Y-113890622D01*
X120128970Y-112476408D01*
X120128970Y-112476408D01*
G37*
G36*
X119563285Y-113042093D02*
X120235037Y-112370341D01*
X121649251Y-113784555D01*
X120977499Y-114456307D01*
X119563285Y-113042093D01*
X119563285Y-113042093D01*
G37*
G36*
X118997600Y-113607779D02*
X119669352Y-112936027D01*
X121083566Y-114350241D01*
X120411814Y-115021993D01*
X118997600Y-113607779D01*
X118997600Y-113607779D01*
G37*
G36*
X118431914Y-114173464D02*
X119103666Y-113501712D01*
X120517880Y-114915926D01*
X119846128Y-115587678D01*
X118431914Y-114173464D01*
X118431914Y-114173464D01*
G37*
G36*
X119103666Y-117638288D02*
X118431914Y-116966536D01*
X119846128Y-115552322D01*
X120517880Y-116224074D01*
X119103666Y-117638288D01*
X119103666Y-117638288D01*
G37*
G36*
X119669352Y-118203973D02*
X118997600Y-117532221D01*
X120411814Y-116118007D01*
X121083566Y-116789759D01*
X119669352Y-118203973D01*
X119669352Y-118203973D01*
G37*
G36*
X120235037Y-118769659D02*
X119563285Y-118097907D01*
X120977499Y-116683693D01*
X121649251Y-117355445D01*
X120235037Y-118769659D01*
X120235037Y-118769659D01*
G37*
G36*
X120800722Y-119335344D02*
X120128970Y-118663592D01*
X121543184Y-117249378D01*
X122214936Y-117921130D01*
X120800722Y-119335344D01*
X120800722Y-119335344D01*
G37*
G36*
X121366408Y-119901030D02*
X120694656Y-119229278D01*
X122108870Y-117815064D01*
X122780622Y-118486816D01*
X121366408Y-119901030D01*
X121366408Y-119901030D01*
G37*
G36*
X121932093Y-120466715D02*
X121260341Y-119794963D01*
X122674555Y-118380749D01*
X123346307Y-119052501D01*
X121932093Y-120466715D01*
X121932093Y-120466715D01*
G37*
G36*
X122497779Y-121032400D02*
X121826027Y-120360648D01*
X123240241Y-118946434D01*
X123911993Y-119618186D01*
X122497779Y-121032400D01*
X122497779Y-121032400D01*
G37*
G36*
X123063464Y-121598086D02*
X122391712Y-120926334D01*
X123805926Y-119512120D01*
X124477678Y-120183872D01*
X123063464Y-121598086D01*
X123063464Y-121598086D01*
G37*
G36*
X124442322Y-120183872D02*
X125114074Y-119512120D01*
X126528288Y-120926334D01*
X125856536Y-121598086D01*
X124442322Y-120183872D01*
X124442322Y-120183872D01*
G37*
G36*
X125008007Y-119618186D02*
X125679759Y-118946434D01*
X127093973Y-120360648D01*
X126422221Y-121032400D01*
X125008007Y-119618186D01*
X125008007Y-119618186D01*
G37*
G36*
X125573693Y-119052501D02*
X126245445Y-118380749D01*
X127659659Y-119794963D01*
X126987907Y-120466715D01*
X125573693Y-119052501D01*
X125573693Y-119052501D01*
G37*
G36*
X126139378Y-118486816D02*
X126811130Y-117815064D01*
X128225344Y-119229278D01*
X127553592Y-119901030D01*
X126139378Y-118486816D01*
X126139378Y-118486816D01*
G37*
G36*
X126705064Y-117921130D02*
X127376816Y-117249378D01*
X128791030Y-118663592D01*
X128119278Y-119335344D01*
X126705064Y-117921130D01*
X126705064Y-117921130D01*
G37*
G36*
X127270749Y-117355445D02*
X127942501Y-116683693D01*
X129356715Y-118097907D01*
X128684963Y-118769659D01*
X127270749Y-117355445D01*
X127270749Y-117355445D01*
G37*
G36*
X127836434Y-116789759D02*
X128508186Y-116118007D01*
X129922400Y-117532221D01*
X129250648Y-118203973D01*
X127836434Y-116789759D01*
X127836434Y-116789759D01*
G37*
G36*
X128402120Y-116224074D02*
X129073872Y-115552322D01*
X130488086Y-116966536D01*
X129816334Y-117638288D01*
X128402120Y-116224074D01*
X128402120Y-116224074D01*
G37*
G36*
X129073872Y-115587678D02*
X128402120Y-114915926D01*
X129816334Y-113501712D01*
X130488086Y-114173464D01*
X129073872Y-115587678D01*
X129073872Y-115587678D01*
G37*
G36*
X128508186Y-115021993D02*
X127836434Y-114350241D01*
X129250648Y-112936027D01*
X129922400Y-113607779D01*
X128508186Y-115021993D01*
X128508186Y-115021993D01*
G37*
G36*
X127942501Y-114456307D02*
X127270749Y-113784555D01*
X128684963Y-112370341D01*
X129356715Y-113042093D01*
X127942501Y-114456307D01*
X127942501Y-114456307D01*
G37*
G36*
X127376816Y-113890622D02*
X126705064Y-113218870D01*
X128119278Y-111804656D01*
X128791030Y-112476408D01*
X127376816Y-113890622D01*
X127376816Y-113890622D01*
G37*
G36*
X126811130Y-113324936D02*
X126139378Y-112653184D01*
X127553592Y-111238970D01*
X128225344Y-111910722D01*
X126811130Y-113324936D01*
X126811130Y-113324936D01*
G37*
G36*
X126245445Y-112759251D02*
X125573693Y-112087499D01*
X126987907Y-110673285D01*
X127659659Y-111345037D01*
X126245445Y-112759251D01*
X126245445Y-112759251D01*
G37*
G36*
X125679759Y-112193566D02*
X125008007Y-111521814D01*
X126422221Y-110107600D01*
X127093973Y-110779352D01*
X125679759Y-112193566D01*
X125679759Y-112193566D01*
G37*
G36*
X125114074Y-111627880D02*
X124442322Y-110956128D01*
X125856536Y-109541914D01*
X126528288Y-110213666D01*
X125114074Y-111627880D01*
X125114074Y-111627880D01*
G37*
D15*
X127320000Y-137160000D03*
X129220000Y-137160000D03*
X121600000Y-137160000D03*
X119700000Y-137160000D03*
D10*
G36*
X118549150Y-111626023D02*
X117735977Y-110812850D01*
X118867348Y-109681479D01*
X119680521Y-110494652D01*
X118549150Y-111626023D01*
X118549150Y-111626023D01*
G37*
G36*
X119892652Y-110282521D02*
X119079479Y-109469348D01*
X120210850Y-108337977D01*
X121024023Y-109151150D01*
X119892652Y-110282521D01*
X119892652Y-110282521D01*
G37*
D16*
X142070000Y-135890000D03*
X139870000Y-135890000D03*
D17*
X123025000Y-129250000D03*
X123025000Y-124750000D03*
X130975000Y-124750000D03*
X130975000Y-129250000D03*
D16*
X145245000Y-129540000D03*
X143045000Y-129540000D03*
X143045000Y-121920000D03*
X145245000Y-121920000D03*
X130980000Y-121920000D03*
X133180000Y-121920000D03*
D10*
G36*
X135621000Y-133101000D02*
X133619000Y-133101000D01*
X133629000Y-132899000D01*
X135611000Y-132899000D01*
X135621000Y-133101000D01*
X135621000Y-133101000D01*
G37*
G36*
X135611000Y-132901000D02*
X133629000Y-132901000D01*
X133699000Y-132699000D01*
X135541000Y-132699000D01*
X135611000Y-132901000D01*
X135611000Y-132901000D01*
G37*
G36*
X135541000Y-132701000D02*
X133699000Y-132701000D01*
X133809000Y-132499000D01*
X135431000Y-132499000D01*
X135541000Y-132701000D01*
X135541000Y-132701000D01*
G37*
G36*
X135231000Y-132301000D02*
X134009000Y-132301000D01*
X134179000Y-132199000D01*
X135061000Y-132199000D01*
X135231000Y-132301000D01*
X135231000Y-132301000D01*
G37*
G36*
X135061000Y-132201000D02*
X134179000Y-132201000D01*
X134479000Y-132099000D01*
X134761000Y-132099000D01*
X135061000Y-132201000D01*
X135061000Y-132201000D01*
G37*
G36*
X135431000Y-132501000D02*
X133809000Y-132501000D01*
X134009000Y-132299000D01*
X135231000Y-132299000D01*
X135431000Y-132501000D01*
X135431000Y-132501000D01*
G37*
G36*
X134179000Y-134499000D02*
X135061000Y-134499000D01*
X134761000Y-134601000D01*
X134479000Y-134601000D01*
X134179000Y-134499000D01*
X134179000Y-134499000D01*
G37*
G36*
X133619000Y-133599000D02*
X135621000Y-133599000D01*
X135611000Y-133801000D01*
X133629000Y-133801000D01*
X133619000Y-133599000D01*
X133619000Y-133599000D01*
G37*
G36*
X133629000Y-133799000D02*
X135611000Y-133799000D01*
X135541000Y-134001000D01*
X133699000Y-134001000D01*
X133629000Y-133799000D01*
X133629000Y-133799000D01*
G37*
G36*
X133699000Y-133999000D02*
X135541000Y-133999000D01*
X135431000Y-134201000D01*
X133809000Y-134201000D01*
X133699000Y-133999000D01*
X133699000Y-133999000D01*
G37*
G36*
X134009000Y-134399000D02*
X135231000Y-134399000D01*
X135061000Y-134501000D01*
X134179000Y-134501000D01*
X134009000Y-134399000D01*
X134009000Y-134399000D01*
G37*
G36*
X133809000Y-134199000D02*
X135431000Y-134199000D01*
X135231000Y-134401000D01*
X134009000Y-134401000D01*
X133809000Y-134199000D01*
X133809000Y-134199000D01*
G37*
G36*
X128001000Y-133101000D02*
X125999000Y-133101000D01*
X126009000Y-132899000D01*
X127991000Y-132899000D01*
X128001000Y-133101000D01*
X128001000Y-133101000D01*
G37*
G36*
X127991000Y-132901000D02*
X126009000Y-132901000D01*
X126079000Y-132699000D01*
X127921000Y-132699000D01*
X127991000Y-132901000D01*
X127991000Y-132901000D01*
G37*
G36*
X127921000Y-132701000D02*
X126079000Y-132701000D01*
X126189000Y-132499000D01*
X127811000Y-132499000D01*
X127921000Y-132701000D01*
X127921000Y-132701000D01*
G37*
G36*
X127611000Y-132301000D02*
X126389000Y-132301000D01*
X126559000Y-132199000D01*
X127441000Y-132199000D01*
X127611000Y-132301000D01*
X127611000Y-132301000D01*
G37*
G36*
X127441000Y-132201000D02*
X126559000Y-132201000D01*
X126859000Y-132099000D01*
X127141000Y-132099000D01*
X127441000Y-132201000D01*
X127441000Y-132201000D01*
G37*
G36*
X127811000Y-132501000D02*
X126189000Y-132501000D01*
X126389000Y-132299000D01*
X127611000Y-132299000D01*
X127811000Y-132501000D01*
X127811000Y-132501000D01*
G37*
G36*
X126559000Y-134499000D02*
X127441000Y-134499000D01*
X127141000Y-134601000D01*
X126859000Y-134601000D01*
X126559000Y-134499000D01*
X126559000Y-134499000D01*
G37*
G36*
X125999000Y-133599000D02*
X128001000Y-133599000D01*
X127991000Y-133801000D01*
X126009000Y-133801000D01*
X125999000Y-133599000D01*
X125999000Y-133599000D01*
G37*
G36*
X126009000Y-133799000D02*
X127991000Y-133799000D01*
X127921000Y-134001000D01*
X126079000Y-134001000D01*
X126009000Y-133799000D01*
X126009000Y-133799000D01*
G37*
G36*
X126079000Y-133999000D02*
X127921000Y-133999000D01*
X127811000Y-134201000D01*
X126189000Y-134201000D01*
X126079000Y-133999000D01*
X126079000Y-133999000D01*
G37*
G36*
X126389000Y-134399000D02*
X127611000Y-134399000D01*
X127441000Y-134501000D01*
X126559000Y-134501000D01*
X126389000Y-134399000D01*
X126389000Y-134399000D01*
G37*
G36*
X126189000Y-134199000D02*
X127811000Y-134199000D01*
X127611000Y-134401000D01*
X126389000Y-134401000D01*
X126189000Y-134199000D01*
X126189000Y-134199000D01*
G37*
G36*
X120381000Y-133101000D02*
X118379000Y-133101000D01*
X118389000Y-132899000D01*
X120371000Y-132899000D01*
X120381000Y-133101000D01*
X120381000Y-133101000D01*
G37*
G36*
X120371000Y-132901000D02*
X118389000Y-132901000D01*
X118459000Y-132699000D01*
X120301000Y-132699000D01*
X120371000Y-132901000D01*
X120371000Y-132901000D01*
G37*
G36*
X120301000Y-132701000D02*
X118459000Y-132701000D01*
X118569000Y-132499000D01*
X120191000Y-132499000D01*
X120301000Y-132701000D01*
X120301000Y-132701000D01*
G37*
G36*
X119991000Y-132301000D02*
X118769000Y-132301000D01*
X118939000Y-132199000D01*
X119821000Y-132199000D01*
X119991000Y-132301000D01*
X119991000Y-132301000D01*
G37*
G36*
X119821000Y-132201000D02*
X118939000Y-132201000D01*
X119239000Y-132099000D01*
X119521000Y-132099000D01*
X119821000Y-132201000D01*
X119821000Y-132201000D01*
G37*
G36*
X120191000Y-132501000D02*
X118569000Y-132501000D01*
X118769000Y-132299000D01*
X119991000Y-132299000D01*
X120191000Y-132501000D01*
X120191000Y-132501000D01*
G37*
G36*
X118939000Y-134499000D02*
X119821000Y-134499000D01*
X119521000Y-134601000D01*
X119239000Y-134601000D01*
X118939000Y-134499000D01*
X118939000Y-134499000D01*
G37*
G36*
X118379000Y-133599000D02*
X120381000Y-133599000D01*
X120371000Y-133801000D01*
X118389000Y-133801000D01*
X118379000Y-133599000D01*
X118379000Y-133599000D01*
G37*
G36*
X118389000Y-133799000D02*
X120371000Y-133799000D01*
X120301000Y-134001000D01*
X118459000Y-134001000D01*
X118389000Y-133799000D01*
X118389000Y-133799000D01*
G37*
G36*
X118459000Y-133999000D02*
X120301000Y-133999000D01*
X120191000Y-134201000D01*
X118569000Y-134201000D01*
X118459000Y-133999000D01*
X118459000Y-133999000D01*
G37*
G36*
X118769000Y-134399000D02*
X119991000Y-134399000D01*
X119821000Y-134501000D01*
X118939000Y-134501000D01*
X118769000Y-134399000D01*
X118769000Y-134399000D01*
G37*
G36*
X118569000Y-134199000D02*
X120191000Y-134199000D01*
X119991000Y-134401000D01*
X118769000Y-134401000D01*
X118569000Y-134199000D01*
X118569000Y-134199000D01*
G37*
G36*
X137036000Y-129039000D02*
X137036000Y-130041000D01*
X136934000Y-130036000D01*
X136934000Y-129044000D01*
X137036000Y-129039000D01*
X137036000Y-129039000D01*
G37*
G36*
X136936000Y-129044000D02*
X136936000Y-130036000D01*
X136834000Y-130001000D01*
X136834000Y-129079000D01*
X136936000Y-129044000D01*
X136936000Y-129044000D01*
G37*
G36*
X136836000Y-129079000D02*
X136836000Y-130001000D01*
X136734000Y-129946000D01*
X136734000Y-129134000D01*
X136836000Y-129079000D01*
X136836000Y-129079000D01*
G37*
G36*
X136636000Y-129234000D02*
X136636000Y-129846000D01*
X136584000Y-129761000D01*
X136584000Y-129319000D01*
X136636000Y-129234000D01*
X136636000Y-129234000D01*
G37*
G36*
X136586000Y-129319000D02*
X136586000Y-129761000D01*
X136534000Y-129611000D01*
X136534000Y-129469000D01*
X136586000Y-129319000D01*
X136586000Y-129319000D01*
G37*
G36*
X136736000Y-129134000D02*
X136736000Y-129946000D01*
X136634000Y-129846000D01*
X136634000Y-129234000D01*
X136736000Y-129134000D01*
X136736000Y-129134000D01*
G37*
G36*
X137684000Y-129846000D02*
X137684000Y-129234000D01*
X137736000Y-129319000D01*
X137736000Y-129761000D01*
X137684000Y-129846000D01*
X137684000Y-129846000D01*
G37*
G36*
X137734000Y-129761000D02*
X137734000Y-129319000D01*
X137786000Y-129469000D01*
X137786000Y-129611000D01*
X137734000Y-129761000D01*
X137734000Y-129761000D01*
G37*
G36*
X137584000Y-129946000D02*
X137584000Y-129134000D01*
X137686000Y-129234000D01*
X137686000Y-129846000D01*
X137584000Y-129946000D01*
X137584000Y-129946000D01*
G37*
G36*
X137484000Y-130001000D02*
X137484000Y-129079000D01*
X137586000Y-129134000D01*
X137586000Y-129946000D01*
X137484000Y-130001000D01*
X137484000Y-130001000D01*
G37*
G36*
X137384000Y-130036000D02*
X137384000Y-129044000D01*
X137486000Y-129079000D01*
X137486000Y-130001000D01*
X137384000Y-130036000D01*
X137384000Y-130036000D01*
G37*
G36*
X137284000Y-130041000D02*
X137284000Y-129039000D01*
X137386000Y-129044000D01*
X137386000Y-130036000D01*
X137284000Y-130041000D01*
X137284000Y-130041000D01*
G37*
G36*
X137036000Y-127134000D02*
X137036000Y-128136000D01*
X136934000Y-128131000D01*
X136934000Y-127139000D01*
X137036000Y-127134000D01*
X137036000Y-127134000D01*
G37*
G36*
X136936000Y-127139000D02*
X136936000Y-128131000D01*
X136834000Y-128096000D01*
X136834000Y-127174000D01*
X136936000Y-127139000D01*
X136936000Y-127139000D01*
G37*
G36*
X136836000Y-127174000D02*
X136836000Y-128096000D01*
X136734000Y-128041000D01*
X136734000Y-127229000D01*
X136836000Y-127174000D01*
X136836000Y-127174000D01*
G37*
G36*
X136636000Y-127329000D02*
X136636000Y-127941000D01*
X136584000Y-127856000D01*
X136584000Y-127414000D01*
X136636000Y-127329000D01*
X136636000Y-127329000D01*
G37*
G36*
X136586000Y-127414000D02*
X136586000Y-127856000D01*
X136534000Y-127706000D01*
X136534000Y-127564000D01*
X136586000Y-127414000D01*
X136586000Y-127414000D01*
G37*
G36*
X136736000Y-127229000D02*
X136736000Y-128041000D01*
X136634000Y-127941000D01*
X136634000Y-127329000D01*
X136736000Y-127229000D01*
X136736000Y-127229000D01*
G37*
G36*
X137684000Y-127941000D02*
X137684000Y-127329000D01*
X137736000Y-127414000D01*
X137736000Y-127856000D01*
X137684000Y-127941000D01*
X137684000Y-127941000D01*
G37*
G36*
X137734000Y-127856000D02*
X137734000Y-127414000D01*
X137786000Y-127564000D01*
X137786000Y-127706000D01*
X137734000Y-127856000D01*
X137734000Y-127856000D01*
G37*
G36*
X137584000Y-128041000D02*
X137584000Y-127229000D01*
X137686000Y-127329000D01*
X137686000Y-127941000D01*
X137584000Y-128041000D01*
X137584000Y-128041000D01*
G37*
G36*
X137484000Y-128096000D02*
X137484000Y-127174000D01*
X137586000Y-127229000D01*
X137586000Y-128041000D01*
X137484000Y-128096000D01*
X137484000Y-128096000D01*
G37*
G36*
X137384000Y-128131000D02*
X137384000Y-127139000D01*
X137486000Y-127174000D01*
X137486000Y-128096000D01*
X137384000Y-128131000D01*
X137384000Y-128131000D01*
G37*
G36*
X137284000Y-128136000D02*
X137284000Y-127134000D01*
X137386000Y-127139000D01*
X137386000Y-128131000D01*
X137284000Y-128136000D01*
X137284000Y-128136000D01*
G37*
G36*
X137036000Y-125229000D02*
X137036000Y-126231000D01*
X136934000Y-126226000D01*
X136934000Y-125234000D01*
X137036000Y-125229000D01*
X137036000Y-125229000D01*
G37*
G36*
X136936000Y-125234000D02*
X136936000Y-126226000D01*
X136834000Y-126191000D01*
X136834000Y-125269000D01*
X136936000Y-125234000D01*
X136936000Y-125234000D01*
G37*
G36*
X136836000Y-125269000D02*
X136836000Y-126191000D01*
X136734000Y-126136000D01*
X136734000Y-125324000D01*
X136836000Y-125269000D01*
X136836000Y-125269000D01*
G37*
G36*
X136636000Y-125424000D02*
X136636000Y-126036000D01*
X136584000Y-125951000D01*
X136584000Y-125509000D01*
X136636000Y-125424000D01*
X136636000Y-125424000D01*
G37*
G36*
X136586000Y-125509000D02*
X136586000Y-125951000D01*
X136534000Y-125801000D01*
X136534000Y-125659000D01*
X136586000Y-125509000D01*
X136586000Y-125509000D01*
G37*
G36*
X136736000Y-125324000D02*
X136736000Y-126136000D01*
X136634000Y-126036000D01*
X136634000Y-125424000D01*
X136736000Y-125324000D01*
X136736000Y-125324000D01*
G37*
G36*
X137684000Y-126036000D02*
X137684000Y-125424000D01*
X137736000Y-125509000D01*
X137736000Y-125951000D01*
X137684000Y-126036000D01*
X137684000Y-126036000D01*
G37*
G36*
X137734000Y-125951000D02*
X137734000Y-125509000D01*
X137786000Y-125659000D01*
X137786000Y-125801000D01*
X137734000Y-125951000D01*
X137734000Y-125951000D01*
G37*
G36*
X137584000Y-126136000D02*
X137584000Y-125324000D01*
X137686000Y-125424000D01*
X137686000Y-126036000D01*
X137584000Y-126136000D01*
X137584000Y-126136000D01*
G37*
G36*
X137484000Y-126191000D02*
X137484000Y-125269000D01*
X137586000Y-125324000D01*
X137586000Y-126136000D01*
X137484000Y-126191000D01*
X137484000Y-126191000D01*
G37*
G36*
X137384000Y-126226000D02*
X137384000Y-125234000D01*
X137486000Y-125269000D01*
X137486000Y-126191000D01*
X137384000Y-126226000D01*
X137384000Y-126226000D01*
G37*
G36*
X137284000Y-126231000D02*
X137284000Y-125229000D01*
X137386000Y-125234000D01*
X137386000Y-126226000D01*
X137284000Y-126231000D01*
X137284000Y-126231000D01*
G37*
D18*
X148270000Y-136159240D03*
X146370000Y-136159240D03*
X147320000Y-138158220D03*
X133030000Y-137429240D03*
X131130000Y-137429240D03*
X132080000Y-139428220D03*
X117790000Y-137429240D03*
X115890000Y-137429240D03*
X116840000Y-139428220D03*
X143195000Y-126730760D03*
X145095000Y-126730760D03*
X144145000Y-124731780D03*
D15*
X108900000Y-140335000D03*
X107000000Y-140335000D03*
D10*
G36*
X116964000Y-126231000D02*
X116964000Y-125229000D01*
X117066000Y-125234000D01*
X117066000Y-126226000D01*
X116964000Y-126231000D01*
X116964000Y-126231000D01*
G37*
G36*
X117064000Y-126226000D02*
X117064000Y-125234000D01*
X117166000Y-125269000D01*
X117166000Y-126191000D01*
X117064000Y-126226000D01*
X117064000Y-126226000D01*
G37*
G36*
X117164000Y-126191000D02*
X117164000Y-125269000D01*
X117266000Y-125324000D01*
X117266000Y-126136000D01*
X117164000Y-126191000D01*
X117164000Y-126191000D01*
G37*
G36*
X117364000Y-126036000D02*
X117364000Y-125424000D01*
X117416000Y-125509000D01*
X117416000Y-125951000D01*
X117364000Y-126036000D01*
X117364000Y-126036000D01*
G37*
G36*
X117414000Y-125951000D02*
X117414000Y-125509000D01*
X117466000Y-125659000D01*
X117466000Y-125801000D01*
X117414000Y-125951000D01*
X117414000Y-125951000D01*
G37*
G36*
X117264000Y-126136000D02*
X117264000Y-125324000D01*
X117366000Y-125424000D01*
X117366000Y-126036000D01*
X117264000Y-126136000D01*
X117264000Y-126136000D01*
G37*
G36*
X116316000Y-125424000D02*
X116316000Y-126036000D01*
X116264000Y-125951000D01*
X116264000Y-125509000D01*
X116316000Y-125424000D01*
X116316000Y-125424000D01*
G37*
G36*
X116266000Y-125509000D02*
X116266000Y-125951000D01*
X116214000Y-125801000D01*
X116214000Y-125659000D01*
X116266000Y-125509000D01*
X116266000Y-125509000D01*
G37*
G36*
X116416000Y-125324000D02*
X116416000Y-126136000D01*
X116314000Y-126036000D01*
X116314000Y-125424000D01*
X116416000Y-125324000D01*
X116416000Y-125324000D01*
G37*
G36*
X116516000Y-125269000D02*
X116516000Y-126191000D01*
X116414000Y-126136000D01*
X116414000Y-125324000D01*
X116516000Y-125269000D01*
X116516000Y-125269000D01*
G37*
G36*
X116616000Y-125234000D02*
X116616000Y-126226000D01*
X116514000Y-126191000D01*
X116514000Y-125269000D01*
X116616000Y-125234000D01*
X116616000Y-125234000D01*
G37*
G36*
X116716000Y-125229000D02*
X116716000Y-126231000D01*
X116614000Y-126226000D01*
X116614000Y-125234000D01*
X116716000Y-125229000D01*
X116716000Y-125229000D01*
G37*
G36*
X116964000Y-128136000D02*
X116964000Y-127134000D01*
X117066000Y-127139000D01*
X117066000Y-128131000D01*
X116964000Y-128136000D01*
X116964000Y-128136000D01*
G37*
G36*
X117064000Y-128131000D02*
X117064000Y-127139000D01*
X117166000Y-127174000D01*
X117166000Y-128096000D01*
X117064000Y-128131000D01*
X117064000Y-128131000D01*
G37*
G36*
X117164000Y-128096000D02*
X117164000Y-127174000D01*
X117266000Y-127229000D01*
X117266000Y-128041000D01*
X117164000Y-128096000D01*
X117164000Y-128096000D01*
G37*
G36*
X117364000Y-127941000D02*
X117364000Y-127329000D01*
X117416000Y-127414000D01*
X117416000Y-127856000D01*
X117364000Y-127941000D01*
X117364000Y-127941000D01*
G37*
G36*
X117414000Y-127856000D02*
X117414000Y-127414000D01*
X117466000Y-127564000D01*
X117466000Y-127706000D01*
X117414000Y-127856000D01*
X117414000Y-127856000D01*
G37*
G36*
X117264000Y-128041000D02*
X117264000Y-127229000D01*
X117366000Y-127329000D01*
X117366000Y-127941000D01*
X117264000Y-128041000D01*
X117264000Y-128041000D01*
G37*
G36*
X116316000Y-127329000D02*
X116316000Y-127941000D01*
X116264000Y-127856000D01*
X116264000Y-127414000D01*
X116316000Y-127329000D01*
X116316000Y-127329000D01*
G37*
G36*
X116266000Y-127414000D02*
X116266000Y-127856000D01*
X116214000Y-127706000D01*
X116214000Y-127564000D01*
X116266000Y-127414000D01*
X116266000Y-127414000D01*
G37*
G36*
X116416000Y-127229000D02*
X116416000Y-128041000D01*
X116314000Y-127941000D01*
X116314000Y-127329000D01*
X116416000Y-127229000D01*
X116416000Y-127229000D01*
G37*
G36*
X116516000Y-127174000D02*
X116516000Y-128096000D01*
X116414000Y-128041000D01*
X116414000Y-127229000D01*
X116516000Y-127174000D01*
X116516000Y-127174000D01*
G37*
G36*
X116616000Y-127139000D02*
X116616000Y-128131000D01*
X116514000Y-128096000D01*
X116514000Y-127174000D01*
X116616000Y-127139000D01*
X116616000Y-127139000D01*
G37*
G36*
X116716000Y-127134000D02*
X116716000Y-128136000D01*
X116614000Y-128131000D01*
X116614000Y-127139000D01*
X116716000Y-127134000D01*
X116716000Y-127134000D01*
G37*
G36*
X116964000Y-130041000D02*
X116964000Y-129039000D01*
X117066000Y-129044000D01*
X117066000Y-130036000D01*
X116964000Y-130041000D01*
X116964000Y-130041000D01*
G37*
G36*
X117064000Y-130036000D02*
X117064000Y-129044000D01*
X117166000Y-129079000D01*
X117166000Y-130001000D01*
X117064000Y-130036000D01*
X117064000Y-130036000D01*
G37*
G36*
X117164000Y-130001000D02*
X117164000Y-129079000D01*
X117266000Y-129134000D01*
X117266000Y-129946000D01*
X117164000Y-130001000D01*
X117164000Y-130001000D01*
G37*
G36*
X117364000Y-129846000D02*
X117364000Y-129234000D01*
X117416000Y-129319000D01*
X117416000Y-129761000D01*
X117364000Y-129846000D01*
X117364000Y-129846000D01*
G37*
G36*
X117414000Y-129761000D02*
X117414000Y-129319000D01*
X117466000Y-129469000D01*
X117466000Y-129611000D01*
X117414000Y-129761000D01*
X117414000Y-129761000D01*
G37*
G36*
X117264000Y-129946000D02*
X117264000Y-129134000D01*
X117366000Y-129234000D01*
X117366000Y-129846000D01*
X117264000Y-129946000D01*
X117264000Y-129946000D01*
G37*
G36*
X116316000Y-129234000D02*
X116316000Y-129846000D01*
X116264000Y-129761000D01*
X116264000Y-129319000D01*
X116316000Y-129234000D01*
X116316000Y-129234000D01*
G37*
G36*
X116266000Y-129319000D02*
X116266000Y-129761000D01*
X116214000Y-129611000D01*
X116214000Y-129469000D01*
X116266000Y-129319000D01*
X116266000Y-129319000D01*
G37*
G36*
X116416000Y-129134000D02*
X116416000Y-129946000D01*
X116314000Y-129846000D01*
X116314000Y-129234000D01*
X116416000Y-129134000D01*
X116416000Y-129134000D01*
G37*
G36*
X116516000Y-129079000D02*
X116516000Y-130001000D01*
X116414000Y-129946000D01*
X116414000Y-129134000D01*
X116516000Y-129079000D01*
X116516000Y-129079000D01*
G37*
G36*
X116616000Y-129044000D02*
X116616000Y-130036000D01*
X116514000Y-130001000D01*
X116514000Y-129079000D01*
X116616000Y-129044000D01*
X116616000Y-129044000D01*
G37*
G36*
X116716000Y-129039000D02*
X116716000Y-130041000D01*
X116614000Y-130036000D01*
X116614000Y-129044000D01*
X116716000Y-129039000D01*
X116716000Y-129039000D01*
G37*
D16*
X106256000Y-115316000D03*
X104056000Y-115316000D03*
X106256000Y-117348000D03*
X104056000Y-117348000D03*
X106850000Y-142240000D03*
X109050000Y-142240000D03*
X109050000Y-138430000D03*
X106850000Y-138430000D03*
D19*
X101079300Y-125984000D03*
X99580700Y-125984000D03*
X101079300Y-128016000D03*
X99580700Y-128016000D03*
D20*
X127000000Y-127000000D03*
D10*
G36*
X131272238Y-111580267D02*
X135282238Y-104634743D01*
X142227762Y-108644743D01*
X138217762Y-115590267D01*
X131272238Y-111580267D01*
X131272238Y-111580267D01*
G37*
D18*
X125410000Y-137429240D03*
X123510000Y-137429240D03*
X124460000Y-139428220D03*
D10*
G36*
X109597771Y-108618454D02*
X108717771Y-107094250D01*
X110241975Y-106214250D01*
X111121975Y-107738454D01*
X109597771Y-108618454D01*
X109597771Y-108618454D01*
G37*
D21*
X110919873Y-109148403D02*
X110919873Y-109148403D01*
X111651924Y-106416352D02*
X111651924Y-106416352D01*
X112651924Y-108148403D02*
X112651924Y-108148403D01*
X113383975Y-105416352D02*
X113383975Y-105416352D01*
X114383975Y-107148403D02*
X114383975Y-107148403D01*
X115116025Y-104416352D02*
X115116025Y-104416352D01*
X116116025Y-106148403D02*
X116116025Y-106148403D01*
X116848076Y-103416352D02*
X116848076Y-103416352D01*
X117848076Y-105148403D02*
X117848076Y-105148403D01*
X118580127Y-102416352D02*
X118580127Y-102416352D01*
X119580127Y-104148403D02*
X119580127Y-104148403D01*
D10*
G36*
X119782229Y-151261546D02*
X118902229Y-152785750D01*
X117378025Y-151905750D01*
X118258025Y-150381546D01*
X119782229Y-151261546D01*
X119782229Y-151261546D01*
G37*
D21*
X119580127Y-149851597D02*
X119580127Y-149851597D01*
X116848076Y-150583648D02*
X116848076Y-150583648D01*
X117848076Y-148851597D02*
X117848076Y-148851597D01*
X115116025Y-149583648D02*
X115116025Y-149583648D01*
X116116025Y-147851597D02*
X116116025Y-147851597D01*
X113383975Y-148583648D02*
X113383975Y-148583648D01*
X114383975Y-146851597D02*
X114383975Y-146851597D01*
X111651924Y-147583648D02*
X111651924Y-147583648D01*
X112651924Y-145851597D02*
X112651924Y-145851597D01*
X109919873Y-146583648D02*
X109919873Y-146583648D01*
X110919873Y-144851597D02*
X110919873Y-144851597D01*
D22*
X152500000Y-122000000D03*
D23*
X150500000Y-122000000D03*
X152500000Y-124000000D03*
X150500000Y-124000000D03*
X152500000Y-126000000D03*
X150500000Y-126000000D03*
X152500000Y-128000000D03*
X150500000Y-128000000D03*
X152500000Y-130000000D03*
X150500000Y-130000000D03*
X152500000Y-132000000D03*
X150500000Y-132000000D03*
M02*
